Arimo-Regular.ufo
<glyph name="dollar" format="2">
  <advance width="1139"/>
  <unicode hex="0024"/>
  <note>
dollar
</note>
  <outline>
    <contour>
      <point x="518" y="20" type="curve"/>
      <point x="518" y="20" type="line"/>
      <point x="518" y="-142" type="line"/>
      <point x="642" y="-142" type="line"/>
      <point x="642" y="20" type="line"/>
      <point x="938" y="34.667"/>
      <point x="1106" y="176"/>
      <point x="1106" y="396" type="curve" smooth="yes"/>
      <point x="1106.0" y="557.0847457627119"/>
      <point x="1049.234620689655" y="649.1964137931036"/>
      <point x="896.5" y="720" type="curve" smooth="yes"/>
      <point x="846.167" y="743.333"/>
      <point x="761.333" y="769"/>
      <point x="642" y="797" type="curve"/>
      <point x="642" y="1242" type="line"/>
      <point x="798" y="1227.333"/>
      <point x="874.333" y="1157.333"/>
      <point x="901" y="1032" type="curve"/>
      <point x="1075" y="1065" type="line"/>
      <point x="1019" y="1278.333"/>
      <point x="891.333" y="1373"/>
      <point x="642" y="1385" type="curve"/>
      <point x="642" y="1516" type="line"/>
      <point x="518" y="1516" type="line"/>
      <point x="518" y="1385" type="line"/>
      <point x="242" y="1373"/>
      <point x="86" y="1252.667"/>
      <point x="86" y="1046" type="curve" smooth="yes"/>
      <point x="86.0" y="899.9138790474466"/>
      <point x="138.65990536764613" y="812.9160872901491"/>
      <point x="273.5" y="743" type="curve" smooth="yes"/>
      <point x="318.5" y="719.667"/>
      <point x="400" y="693.333"/>
      <point x="518" y="664" type="curve"/>
      <point x="518" y="168" type="line"/>
      <point x="328.667" y="180"/>
      <point x="225.333" y="257.333"/>
      <point x="192" y="416" type="curve"/>
      <point x="22" y="379" type="line"/>
      <point x="68.667" y="151.667"/>
      <point x="234" y="32"/>
    </contour>
    <contour>
      <point x="934" y="394" type="curve"/>
      <point x="934" y="394" type="line"/>
      <point x="934" y="258"/>
      <point x="830" y="179"/>
      <point x="642" y="167" type="curve"/>
      <point x="642" y="635" type="line"/>
      <point x="736.667" y="610.333"/>
      <point x="800.333" y="588.833"/>
      <point x="833" y="570.5" type="curve" smooth="yes"/>
      <point x="898.333" y="533.833"/>
      <point x="934" y="480.667"/>
    </contour>
    <contour>
      <point x="258" y="1048" type="curve" smooth="yes"/>
      <point x="258.0" y="1169.0"/>
      <point x="344.667" y="1234.667"/>
      <point x="518" y="1244" type="curve"/>
      <point x="518" y="823" type="line"/>
      <point x="370" y="860.333"/>
      <point x="316.333" y="893.333"/>
      <point x="283" y="948" type="curve" smooth="yes"/>
      <point x="266.333" y="975.333"/>
      <point x="258" y="1009"/>
    </contour>
  </outline>
</glyph>
<glyph name="percent" format="2">
  <advance width="1821"/>
  <unicode hex="0025"/>
  <note>
percent
</note>
  <outline>
    <contour>
      <point x="1748" y="434" type="curve"/>
      <point x="1748" y="434" type="line"/>
      <point x="1748" y="730"/>
      <point x="1650.667" y="885"/>
      <point x="1432" y="885" type="curve" smooth="yes"/>
      <point x="1210.667" y="885"/>
      <point x="1113" y="738"/>
      <point x="1113" y="434" type="curve" smooth="yes"/>
      <point x="1113" y="139.333"/>
      <point x="1220" y="-12"/>
      <point x="1428" y="-12" type="curve" smooth="yes"/>
      <point x="1638.667" y="-12"/>
      <point x="1748" y="147.333"/>
    </contour>
    <contour>
      <point x="527" y="0" type="line"/>
      <point x="527" y="0" type="line"/>
      <point x="1451" y="1409" type="line"/>
      <point x="1294" y="1409" type="line"/>
      <point x="372" y="0" type="line"/>
    </contour>
    <contour>
      <point x="394" y="1421" type="curve"/>
      <point x="394" y="1421" type="line"/>
      <point x="171.333" y="1421"/>
      <point x="73" y="1272.333"/>
      <point x="73" y="975" type="curve" smooth="yes"/>
      <point x="73" y="683"/>
      <point x="179.333" y="524"/>
      <point x="390" y="524" type="curve" smooth="yes"/>
      <point x="600.667" y="524"/>
      <point x="707" y="685.667"/>
      <point x="707" y="975" type="curve" smooth="yes"/>
      <point x="707" y="1271"/>
      <point x="606" y="1421"/>
    </contour>
    <contour>
      <point x="1600" y="434" type="curve"/>
      <point x="1600" y="434" type="line"/>
      <point x="1600" y="208.667"/>
      <point x="1547.333" y="98"/>
      <point x="1430" y="98" type="curve" smooth="yes"/>
      <point x="1308.667" y="98"/>
      <point x="1260" y="206"/>
      <point x="1260" y="434" type="curve" smooth="yes"/>
      <point x="1260" y="676.667"/>
      <point x="1310.667" y="774"/>
      <point x="1432" y="774" type="curve" smooth="yes"/>
      <point x="1553.333" y="774"/>
      <point x="1600" y="672.667"/>
    </contour>
    <contour>
      <point x="560" y="975" type="curve"/>
      <point x="560" y="975" type="line"/>
      <point x="560" y="748.333"/>
      <point x="508" y="637"/>
      <point x="392" y="637" type="curve" smooth="yes"/>
      <point x="269.333" y="637"/>
      <point x="220" y="744.333"/>
      <point x="220" y="975" type="curve" smooth="yes"/>
      <point x="220" y="1213.667"/>
      <point x="268.667" y="1313"/>
      <point x="394" y="1313" type="curve" smooth="yes"/>
      <point x="514" y="1313"/>
      <point x="560" y="1209.667"/>
    </contour>
  </outline>
</glyph>
<glyph name="ampersand" format="2">
  <advance width="1366"/>
  <unicode hex="0026"/>
  <note>
ampersand
</note>
  <outline>
    <contour>
      <point x="1193" y="-12" type="curve"/>
      <point x="1193" y="-12" type="line"/>
      <point x="1249.667" y="-12"/>
      <point x="1296.667" y="-4.667"/>
      <point x="1334" y="10" type="curve"/>
      <point x="1334" y="145" type="line"/>
      <point x="1303.333" y="134.333"/>
      <point x="1264.333" y="129"/>
      <point x="1217" y="129" type="curve" smooth="yes"/>
      <point x="1142.333" y="129"/>
      <point x="1073" y="161.667"/>
      <point x="1009" y="227" type="curve"/>
      <point x="1108.333" y="373.667"/>
      <point x="1179" y="530"/>
      <point x="1221" y="696" type="curve"/>
      <point x="1076" y="739" type="line"/>
      <point x="1037.333" y="576.333"/>
      <point x="980.333" y="439.667"/>
      <point x="905" y="329" type="curve"/>
      <point x="783.667" y="467"/>
      <point x="686" y="604.333"/>
      <point x="612" y="741" type="curve"/>
      <point x="913.333" y="861"/>
      <point x="1021" y="975.667"/>
      <point x="1021" y="1133" type="curve" smooth="yes"/>
      <point x="1021" y="1309"/>
      <point x="886.333" y="1417"/>
      <point x="685" y="1417" type="curve" smooth="yes"/>
      <point x="461" y="1417"/>
      <point x="334" y="1302"/>
      <point x="334" y="1102" type="curve" smooth="yes"/>
      <point x="334" y="1008.667"/>
      <point x="371" y="882.667"/>
      <point x="415" y="800" type="curve"/>
      <point x="186.333" y="699.333"/>
      <point x="72" y="556.333"/>
      <point x="72" y="371" type="curve" smooth="yes"/>
      <point x="72" y="125.667"/>
      <point x="236.333" y="-20"/>
      <point x="523" y="-20" type="curve" smooth="yes"/>
      <point x="663" y="-20"/>
      <point x="795" y="28.333"/>
      <point x="895" y="115" type="curve"/>
      <point x="975.667" y="30.333"/>
      <point x="1075" y="-12"/>
    </contour>
    <contour>
      <point x="869" y="1133" type="curve"/>
      <point x="869" y="1133" type="line"/>
      <point x="869" y="1061"/>
      <point x="826.5" y="1002"/>
      <point x="744.5" y="950" type="curve" smooth="yes"/>
      <point x="703.5" y="924"/>
      <point x="639.333" y="893.333"/>
      <point x="552" y="858" type="curve"/>
      <point x="508.667" y="944.667"/>
      <point x="487" y="1026"/>
      <point x="487" y="1102" type="curve" smooth="yes"/>
      <point x="487" y="1223.333"/>
      <point x="555" y="1296"/>
      <point x="683" y="1296" type="curve" smooth="yes"/>
      <point x="797.667" y="1296"/>
      <point x="869" y="1229"/>
    </contour>
    <contour>
      <point x="795" y="217" type="curve"/>
      <point x="795" y="217" type="line"/>
      <point x="724.333" y="149"/>
      <point x="623.667" y="111"/>
      <point x="529" y="111" type="curve" smooth="yes"/>
      <point x="350.333" y="111"/>
      <point x="240" y="211.667"/>
      <point x="240" y="373" type="curve" smooth="yes"/>
      <point x="240" y="507"/>
      <point x="318.667" y="607.333"/>
      <point x="476" y="674" type="curve"/>
      <point x="556.667" y="525.333"/>
      <point x="663" y="373"/>
    </contour>
  </outline>
</glyph>
<glyph name="parenleft" format="2">
  <advance width="682"/>
  <unicode hex="0028"/>
  <note>
parenleft
</note>
  <outline>
    <contour>
      <point x="127" y="532" type="curve"/>
      <point x="127" y="532" type="line"/>
      <point x="127" y="528" type="line" smooth="yes"/>
      <point x="127" y="145.333"/>
      <point x="244" y="-152"/>
      <point x="496" y="-424" type="curve"/>
      <point x="670" y="-424" type="line"/>
      <point x="418" y="-142.667"/>
      <point x="308" y="160.667"/>
      <point x="308" y="530" type="curve" smooth="yes"/>
      <point x="308" y="900.667"/>
      <point x="420.667" y="1206.667"/>
      <point x="670" y="1484" type="curve"/>
      <point x="496" y="1484" type="line"/>
      <point x="245.333" y="1213.333"/>
      <point x="127" y="917.333"/>
    </contour>
  </outline>
</glyph>
<glyph name="parenright" format="2">
  <advance width="682"/>
  <unicode hex="0029"/>
  <note>
parenright
</note>
  <outline>
    <contour>
      <point x="555" y="528" type="qcurve" smooth="yes"/>
      <point x="555" y="532" type="line" smooth="yes"/>
      <point x="555" y="819"/>
      <point x="375" y="1280"/>
      <point x="186" y="1484" type="qcurve"/>
      <point x="12" y="1484" type="line"/>
      <point x="199" y="1275"/>
      <point x="374" y="809"/>
      <point x="374" y="530" type="qcurve" smooth="yes"/>
      <point x="374" y="251"/>
      <point x="200" y="-214"/>
      <point x="12" y="-424" type="qcurve"/>
      <point x="186" y="-424" type="line"/>
      <point x="374" y="-221"/>
      <point x="555" y="239"/>
    </contour>
  </outline>
</glyph>
<glyph name="comma" format="2">
  <advance width="569"/>
  <unicode hex="002C"/>
  <note>
comma
</note>
  <outline>
    <contour>
      <point x="385" y="219" type="line"/>
      <point x="385" y="219" type="line"/>
      <point x="190" y="219" type="line"/>
      <point x="190" y="0" type="line"/>
      <point x="278" y="0" type="line"/>
      <point x="278" y="-84"/>
      <point x="246.667" y="-171.333"/>
      <point x="184" y="-262" type="curve"/>
      <point x="307" y="-262" type="line"/>
      <point x="360.333" y="-175.333"/>
      <point x="385.0" y="-90.0"/>
      <point x="385" y="51" type="curve" smooth="yes"/>
    </contour>
  </outline>
</glyph>
<glyph name="period" format="2">
  <advance width="569"/>
  <unicode hex="002E"/>
  <note>
period
</note>
  <outline>
    <contour>
      <point x="187" y="0" type="line"/>
      <point x="382" y="0" type="line"/>
      <point x="382" y="219" type="line"/>
      <point x="187" y="219" type="line"/>
    </contour>
  </outline>
</glyph>
<glyph name="zero" format="2">
  <advance width="1139"/>
  <unicode hex="0030"/>
  <note>
zero
</note>
  <outline>
    <contour>
      <point x="1059" y="705" type="curve"/>
      <point x="1059" y="705" type="line"/>
      <point x="1059" y="1183.667"/>
      <point x="905" y="1430"/>
      <point x="573" y="1430" type="curve" smooth="yes"/>
      <point x="231.667" y="1430"/>
      <point x="80" y="1189"/>
      <point x="80" y="705" type="curve" smooth="yes"/>
      <point x="80" y="231.667"/>
      <point x="243" y="-20"/>
      <point x="567" y="-20" type="curve" smooth="yes"/>
      <point x="891" y="-20"/>
      <point x="1059" y="234.333"/>
    </contour>
    <contour>
      <point x="876" y="705" type="curve"/>
      <point x="876" y="705" type="line"/>
      <point x="876" y="313"/>
      <point x="781" y="127"/>
      <point x="569" y="127" type="curve" smooth="yes"/>
      <point x="355.667" y="127"/>
      <point x="262" y="305"/>
      <point x="262" y="705" type="curve" smooth="yes"/>
      <point x="262" y="1117"/>
      <point x="351.667" y="1284"/>
      <point x="573" y="1284" type="curve" smooth="yes"/>
      <point x="789" y="1284"/>
      <point x="876" y="1111.667"/>
    </contour>
  </outline>
</glyph>
<glyph name="two" format="2">
  <advance width="1139"/>
  <unicode hex="0032"/>
  <note>
two
</note>
  <outline>
    <contour>
      <point x="103" y="0" type="line"/>
      <point x="103" y="0" type="line"/>
      <point x="1036" y="0" type="line"/>
      <point x="1036" y="153" type="line"/>
      <point x="301" y="153" type="line"/>
      <point x="341" y="246.333"/>
      <point x="428.667" y="342.667"/>
      <point x="582" y="468" type="curve" smooth="yes"/>
      <point x="721.333" y="581.333"/>
      <point x="815.667" y="665"/>
      <point x="865" y="719" type="curve" smooth="yes"/>
      <point x="963.667" y="827"/>
      <point x="1014" y="934.667"/>
      <point x="1014" y="1044" type="curve" smooth="yes"/>
      <point x="1014" y="1290.667"/>
      <point x="856" y="1430"/>
      <point x="572" y="1430" type="curve" smooth="yes"/>
      <point x="313.333" y="1430"/>
      <point x="137.667" y="1286.333"/>
      <point x="111" y="1061" type="curve"/>
      <point x="295" y="1044" type="line"/>
      <point x="312.333" y="1194.667"/>
      <point x="418.667" y="1282"/>
      <point x="572" y="1282" type="curve" smooth="yes"/>
      <point x="733.333" y="1282"/>
      <point x="829" y="1192.667"/>
      <point x="829" y="1038" type="curve" smooth="yes"/>
      <point x="829" y="923.333"/>
      <point x="771.333" y="836.667"/>
      <point x="686" y="754" type="curve" smooth="yes"/>
      <point x="643.333" y="712.667"/>
      <point x="595.5" y="671.333"/>
      <point x="542.5" y="630" type="curve" smooth="yes"/>
      <point x="436.5" y="547.333"/>
      <point x="325.5" y="452.833"/>
      <point x="227.5" y="333.5" type="curve" smooth="yes"/>
      <point x="178.5" y="273.833"/>
      <point x="137" y="205"/>
      <point x="103" y="127" type="curve"/>
    </contour>
  </outline>
</glyph>
<glyph name="three" format="2">
  <advance width="1139"/>
  <unicode hex="0033"/>
  <note>
three
</note>
  <outline>
    <contour>
      <point x="1049" y="389" type="qcurve" smooth="yes"/>
      <point x="1049" y="524"/>
      <point x="873" y="702"/>
      <point x="715" y="719" type="qcurve"/>
      <point x="715" y="723" type="line"/>
      <point x="859" y="753"/>
      <point x="1010" y="922"/>
      <point x="1010" y="1057" type="qcurve" smooth="yes"/>
      <point x="1010" y="1233"/>
      <point x="775" y="1430"/>
      <point x="563" y="1430" type="qcurve" smooth="yes"/>
      <point x="369" y="1430"/>
      <point x="122" y="1236"/>
      <point x="102" y="1063" type="qcurve"/>
      <point x="283" y="1049" type="line"/>
      <point x="295" y="1160"/>
      <point x="442" y="1282"/>
      <point x="561" y="1282" type="qcurve" smooth="yes"/>
      <point x="692" y="1282"/>
      <point x="825" y="1151"/>
      <point x="825" y="1038" type="qcurve" smooth="yes"/>
      <point x="825" y="924"/>
      <point x="662" y="795"/>
      <point x="514" y="795" type="qcurve" smooth="yes"/>
      <point x="416" y="795" type="line"/>
      <point x="416" y="639" type="line"/>
      <point x="518" y="639" type="line" smooth="yes"/>
      <point x="685" y="639"/>
      <point x="862" y="510"/>
      <point x="862" y="395" type="qcurve" smooth="yes"/>
      <point x="862" y="263"/>
      <point x="707" y="129"/>
      <point x="571" y="129" type="qcurve" smooth="yes"/>
      <point x="300" y="129"/>
      <point x="264" y="379" type="qcurve"/>
      <point x="78" y="362" type="line"/>
      <point x="102" y="173"/>
      <point x="357" y="-20"/>
      <point x="571" y="-20" type="qcurve" smooth="yes"/>
      <point x="801" y="-20"/>
      <point x="1049" y="194"/>
    </contour>
  </outline>
</glyph>
<glyph name="four" format="2">
  <advance width="1139"/>
  <unicode hex="0034"/>
  <note>
four
</note>
  <outline>
    <contour>
      <point x="881" y="319" type="line"/>
      <point x="1079" y="319" type="line"/>
      <point x="1079" y="461" type="line"/>
      <point x="881" y="461" type="line"/>
      <point x="881" y="1409" type="line"/>
      <point x="692" y="1409" type="line"/>
      <point x="47" y="459" type="line"/>
      <point x="47" y="319" type="line"/>
      <point x="711" y="319" type="line"/>
      <point x="711" y="0" type="line"/>
      <point x="881" y="0" type="line"/>
    </contour>
    <contour>
      <point x="711" y="461" type="line"/>
      <point x="213" y="461" type="line"/>
      <point x="293" y="568"/>
      <point x="321" y="609" type="qcurve" smooth="yes"/>
      <point x="644" y="1087" type="line" smooth="yes"/>
      <point x="657" y="1106"/>
      <point x="688" y="1162"/>
      <point x="711" y="1206" type="qcurve"/>
    </contour>
  </outline>
</glyph>
<glyph name="five" format="2">
  <advance width="1139"/>
  <unicode hex="0035"/>
  <note>
five
</note>
  <outline>
    <contour>
      <point x="1053" y="459" type="curve"/>
      <point x="1053" y="459" type="line"/>
      <point x="1053" y="720.333"/>
      <point x="875.333" y="899"/>
      <point x="598" y="899" type="curve" smooth="yes"/>
      <point x="482" y="899"/>
      <point x="385" y="869"/>
      <point x="307" y="809" type="curve"/>
      <point x="334" y="1256" type="line"/>
      <point x="971" y="1256" type="line"/>
      <point x="971" y="1409" type="line"/>
      <point x="170" y="1409" type="line"/>
      <point x="123" y="651" type="line"/>
      <point x="299" y="651" type="line"/>
      <point x="383" y="724.333"/>
      <point x="463.667" y="752"/>
      <point x="561" y="752" type="curve" smooth="yes"/>
      <point x="747.667" y="752"/>
      <point x="866" y="632.333"/>
      <point x="866" y="455" type="curve" smooth="yes"/>
      <point x="866" y="251"/>
      <point x="750.333" y="127"/>
      <point x="557" y="127" type="curve" smooth="yes"/>
      <point x="399.667" y="127"/>
      <point x="302" y="196.667"/>
      <point x="264" y="336" type="curve"/>
      <point x="82" y="315" type="line"/>
      <point x="124.667" y="97.667"/>
      <point x="290.333" y="-20"/>
      <point x="553" y="-20" type="curve" smooth="yes"/>
      <point x="866.333" y="-20"/>
      <point x="1053" y="161.667"/>
    </contour>
  </outline>
</glyph>
<glyph name="six" format="2">
  <advance width="1139"/>
  <unicode hex="0036"/>
  <note>
six
</note>
  <outline>
    <contour>
      <point x="1049" y="461" type="curve"/>
      <point x="1049" y="461" type="line"/>
      <point x="1049" y="735.667"/>
      <point x="885" y="911"/>
      <point x="625" y="911" type="curve" smooth="yes"/>
      <point x="471.667" y="911"/>
      <point x="348.333" y="846.333"/>
      <point x="283" y="725" type="curve"/>
      <point x="283" y="1087.667"/>
      <point x="400.667" y="1284"/>
      <point x="606" y="1284" type="curve" smooth="yes"/>
      <point x="725.333" y="1284"/>
      <point x="802.667" y="1226.667"/>
      <point x="838" y="1112" type="curve"/>
      <point x="1010" y="1143" type="line"/>
      <point x="954.667" y="1334.333"/>
      <point x="820.667" y="1430"/>
      <point x="608" y="1430" type="curve" smooth="yes"/>
      <point x="285.333" y="1430"/>
      <point x="104" y="1160"/>
      <point x="104" y="672" type="curve" smooth="yes"/>
      <point x="104" y="221.333"/>
      <point x="276.667" y="-20"/>
      <point x="594" y="-20" type="curve" smooth="yes"/>
      <point x="878" y="-20"/>
      <point x="1049" y="163.667"/>
    </contour>
    <contour>
      <point x="866" y="453" type="curve"/>
      <point x="866" y="453" type="line"/>
      <point x="866" y="249"/>
      <point x="761.333" y="125"/>
      <point x="588" y="125" type="curve" smooth="yes"/>
      <point x="420" y="125"/>
      <point x="301" y="278.667"/>
      <point x="301" y="496" type="curve" smooth="yes"/>
      <point x="301" y="668"/>
      <point x="414" y="772"/>
      <point x="582" y="772" type="curve" smooth="yes"/>
      <point x="760.667" y="772"/>
      <point x="866" y="657"/>
    </contour>
  </outline>
</glyph>
<glyph name="seven" format="2">
  <advance width="1139"/>
  <unicode hex="0037"/>
  <note>
seven
</note>
  <outline>
    <contour>
      <point x="1036" y="1263" type="curve"/>
      <point x="1036" y="1263" type="line"/>
      <point x="1036" y="1409" type="line"/>
      <point x="105" y="1409" type="line"/>
      <point x="105" y="1256" type="line"/>
      <point x="862" y="1256" type="line"/>
      <point x="504.667" y="737.333"/>
      <point x="365" y="360"/>
      <point x="365" y="0" type="curve"/>
      <point x="553" y="0" type="line"/>
      <point x="553" y="260"/>
      <point x="612.333" y="496.667"/>
      <point x="731" y="746" type="curve" smooth="yes"/>
      <point x="790.333" y="870.667"/>
      <point x="892" y="1043"/>
    </contour>
  </outline>
</glyph>
<glyph name="eight" format="2">
  <advance width="1139"/>
  <unicode hex="0038"/>
  <note>
eight
</note>
  <outline>
    <contour>
      <point x="1050" y="393" type="curve"/>
      <point x="1050" y="393" type="line"/>
      <point x="1050" y="578.333"/>
      <point x="945" y="709.667"/>
      <point x="765" y="739" type="curve"/>
      <point x="765" y="743" type="line"/>
      <point x="919.667" y="773.667"/>
      <point x="1015" y="905.667"/>
      <point x="1015" y="1067" type="curve" smooth="yes"/>
      <point x="1015" y="1289.667"/>
      <point x="843.333" y="1430"/>
      <point x="566" y="1430" type="curve" smooth="yes"/>
      <point x="295.333" y="1430"/>
      <point x="122" y="1283.667"/>
      <point x="122" y="1069" type="curve" smooth="yes"/>
      <point x="122" y="907.667"/>
      <point x="216.667" y="777"/>
      <point x="370" y="741" type="curve"/>
      <point x="370" y="737" type="line"/>
      <point x="206" y="710.333"/>
      <point x="89" y="575"/>
      <point x="89" y="391" type="curve" smooth="yes"/>
      <point x="89" y="128.333"/>
      <point x="268.667" y="-20"/>
      <point x="570" y="-20" type="curve" smooth="yes"/>
      <point x="879.333" y="-20"/>
      <point x="1050" y="133"/>
    </contour>
    <contour>
      <point x="828" y="1057" type="curve"/>
      <point x="828" y="1057" type="line"/>
      <point x="828" y="882.333"/>
      <point x="737.333" y="809"/>
      <point x="568" y="809" type="curve" smooth="yes"/>
      <point x="401.333" y="809"/>
      <point x="306" y="895.667"/>
      <point x="306" y="1057" type="curve" smooth="yes"/>
      <point x="306" y="1215.667"/>
      <point x="396.667" y="1296"/>
      <point x="566" y="1296" type="curve" smooth="yes"/>
      <point x="740.667" y="1296"/>
      <point x="828" y="1216.333"/>
    </contour>
    <contour>
      <point x="863" y="410" type="curve"/>
      <point x="863" y="410" type="line"/>
      <point x="863" y="204.667"/>
      <point x="768" y="115"/>
      <point x="572" y="115" type="curve" smooth="yes"/>
      <point x="374" y="115"/>
      <point x="275" y="212"/>
      <point x="275" y="406" type="curve" smooth="yes"/>
      <point x="275" y="572.667"/>
      <point x="383.333" y="674"/>
      <point x="566" y="674" type="curve" smooth="yes"/>
      <point x="754" y="674"/>
      <point x="863" y="584.667"/>
    </contour>
  </outline>
</glyph>
<glyph name="nine" format="2">
  <advance width="1139"/>
  <unicode hex="0039"/>
  <note>
nine
</note>
  <outline>
    <contour>
      <point x="1042" y="733" type="curve"/>
      <point x="1042" y="733" type="line"/>
      <point x="1042" y="1198.333"/>
      <point x="878.333" y="1430"/>
      <point x="565" y="1430" type="curve" smooth="yes"/>
      <point x="270.333" y="1430"/>
      <point x="96" y="1250.667"/>
      <point x="96" y="956" type="curve" smooth="yes"/>
      <point x="96" y="669.333"/>
      <point x="260.667" y="481"/>
      <point x="514" y="481" type="curve" smooth="yes"/>
      <point x="668.667" y="481"/>
      <point x="810.667" y="560"/>
      <point x="864" y="680" type="curve"/>
      <point x="858.667" y="324"/>
      <point x="741.667" y="125"/>
      <point x="535" y="125" type="curve" smooth="yes"/>
      <point x="412.333" y="125"/>
      <point x="333" y="183.667"/>
      <point x="297" y="301" type="curve"/>
      <point x="125" y="274" type="line"/>
      <point x="182.333" y="67.333"/>
      <point x="312" y="-20"/>
      <point x="532" y="-20" type="curve" smooth="yes"/>
      <point x="858.667" y="-20"/>
      <point x="1042" y="249"/>
    </contour>
    <contour>
      <point x="846" y="907" type="curve"/>
      <point x="846" y="907" type="line"/>
      <point x="846.0" y="740.2561525232489"/>
      <point x="711.6213893779575" y="623.0"/>
      <point x="557" y="623" type="curve" smooth="yes"/>
      <point x="386.333" y="623"/>
      <point x="279" y="750.667"/>
      <point x="279" y="956" type="curve" smooth="yes"/>
      <point x="279" y="1157.333"/>
      <point x="385.667" y="1284"/>
      <point x="559" y="1284" type="curve" smooth="yes"/>
      <point x="733.667" y="1284"/>
      <point x="846" y="1133.667"/>
    </contour>
  </outline>
</glyph>
<glyph name="semicolon" format="2">
  <advance width="569"/>
  <unicode hex="003B"/>
  <unicode hex="037E"/>
  <note>
semicolon
</note>
  <outline>
    <contour>
      <point x="385" y="207" type="line"/>
      <point x="385" y="207" type="line"/>
      <point x="190" y="207" type="line"/>
      <point x="190" y="0" type="line"/>
      <point x="278" y="0" type="line"/>
      <point x="278" y="-84"/>
      <point x="246.667" y="-171.333"/>
      <point x="184" y="-262" type="curve"/>
      <point x="307" y="-262" type="line"/>
      <point x="360.333" y="-175.333"/>
      <point x="385" y="-90.333"/>
      <point x="385" y="51" type="curve" smooth="yes"/>
    </contour>
    <contour>
      <point x="190" y="875" type="line"/>
      <point x="190" y="875" type="line"/>
      <point x="385" y="875" type="line"/>
      <point x="385" y="1082" type="line"/>
      <point x="190" y="1082" type="line"/>
    </contour>
  </outline>
</glyph>
<glyph name="equal" format="2">
  <advance width="1196"/>
  <unicode hex="003D"/>
  <note>
equal
</note>
  <outline>
    <contour>
      <point x="100" y="856" type="line"/>
      <point x="1095" y="856" type="line"/>
      <point x="1095" y="1004" type="line"/>
      <point x="100" y="1004" type="line"/>
    </contour>
    <contour>
      <point x="100" y="344" type="line"/>
      <point x="1095" y="344" type="line"/>
      <point x="1095" y="492" type="line"/>
      <point x="100" y="492" type="line"/>
    </contour>
  </outline>
</glyph>
<glyph name="question" format="2">
  <advance width="1139"/>
  <unicode hex="003F"/>
  <note>
question
</note>
  <outline>
    <contour>
      <point x="1063" y="1032" type="curve"/>
      <point x="1063" y="1032" type="line"/>
      <point x="1063" y="1281.333"/>
      <point x="881.333" y="1430"/>
      <point x="584" y="1430" type="curve" smooth="yes"/>
      <point x="298.667" y="1430"/>
      <point x="118.667" y="1284"/>
      <point x="84" y="1020" type="curve"/>
      <point x="268" y="1008" type="line"/>
      <point x="286.667" y="1170.667"/>
      <point x="399.333" y="1270"/>
      <point x="586" y="1270" type="curve" smooth="yes"/>
      <point x="772.667" y="1270"/>
      <point x="881" y="1176"/>
      <point x="881" y="1024" type="curve" smooth="yes"/>
      <point x="881" y="870.01"/>
      <point x="781.022" y="802.741"/>
      <point x="667" y="721.5" type="curve" smooth="yes"/>
      <point x="613.667" y="683.5"/>
      <point x="559.333" y="643.333"/>
      <point x="518" y="590" type="curve" smooth="yes"/>
      <point x="476.667" y="536.667"/>
      <point x="448.667" y="469"/>
      <point x="446" y="377" type="curve"/>
      <point x="621" y="377" type="line"/>
      <point x="622.333" y="467.667"/>
      <point x="668" y="542.667"/>
      <point x="764" y="612" type="curve" smooth="yes"/>
      <point x="844" y="671" type="line" smooth="yes"/>
      <point x="968" y="761.667"/>
      <point x="1011.667" y="819.333"/>
      <point x="1041" y="898" type="curve" smooth="yes"/>
      <point x="1055.667" y="937.333"/>
      <point x="1063" y="982"/>
    </contour>
    <contour>
      <point x="438" y="0" type="line"/>
      <point x="438" y="0" type="line"/>
      <point x="633" y="0" type="line"/>
      <point x="633" y="201" type="line"/>
      <point x="438" y="201" type="line"/>
    </contour>
  </outline>
</glyph>
<glyph name="at" format="2">
  <advance width="2079"/>
  <unicode hex="0040"/>
  <note>
at
</note>
  <outline>
    <contour>
      <point x="1902" y="755" type="curve"/>
      <point x="1902" y="755" type="line"/>
      <point x="1902" y="1045.667"/>
      <point x="1775.333" y="1272.833"/>
      <point x="1542" y="1393.5" type="curve" smooth="yes"/>
      <point x="1425.333" y="1453.833"/>
      <point x="1286.667" y="1484"/>
      <point x="1126" y="1484" type="curve" smooth="yes"/>
      <point x="760.667" y="1484"/>
      <point x="451.5" y="1305.333"/>
      <point x="285.5" y="1000" type="curve" smooth="yes"/>
      <point x="202.5" y="847.333"/>
      <point x="161" y="677.667"/>
      <point x="161" y="491" type="curve" smooth="yes"/>
      <point x="161" y="184.333"/>
      <point x="291.833" y="-60.167"/>
      <point x="532.5" y="-187.5" type="curve" smooth="yes"/>
      <point x="652.833" y="-251.167"/>
      <point x="793.333" y="-283"/>
      <point x="954" y="-283" type="curve" smooth="yes"/>
      <point x="1186" y="-283"/>
      <point x="1418.667" y="-221"/>
      <point x="1612" y="-105" type="curve"/>
      <point x="1557" y="7" type="line"/>
      <point x="1343.667" y="-109"/>
      <point x="1147.333" y="-155"/>
      <point x="954" y="-155" type="curve" smooth="yes"/>
      <point x="690" y="-155"/>
      <point x="485.167" y="-46.167"/>
      <point x="380.5" y="150.5" type="curve" smooth="yes"/>
      <point x="328.167" y="248.833"/>
      <point x="302" y="362.333"/>
      <point x="302" y="491" type="curve" smooth="yes"/>
      <point x="302" y="824.333"/>
      <point x="452" y="1108.333"/>
      <point x="700" y="1251" type="curve" smooth="yes"/>
      <point x="824" y="1322.333"/>
      <point x="966.667" y="1358"/>
      <point x="1128" y="1358" type="curve" smooth="yes"/>
      <point x="1386.667" y="1358"/>
      <point x="1586.333" y="1255.167"/>
      <point x="1689" y="1070.5" type="curve" smooth="yes"/>
      <point x="1740.333" y="978.167"/>
      <point x="1766" y="872.333"/>
      <point x="1766" y="753" type="curve" smooth="yes"/>
      <point x="1766" y="557"/>
      <point x="1710.5" y="387"/>
      <point x="1620.5" y="295" type="curve" smooth="yes"/>
      <point x="1575.5" y="249"/>
      <point x="1526.333" y="226"/>
      <point x="1473" y="226" type="curve" smooth="yes"/>
      <point x="1419" y="226"/>
      <point x="1392" y="257.333"/>
      <point x="1392" y="320" type="curve" smooth="yes"/>
      <point x="1392" y="379.333"/>
      <point x="1404.333" y="463.667"/>
      <point x="1429" y="573" type="curve" smooth="yes"/>
      <point x="1545" y="1079" type="line"/>
      <point x="1389" y="1079" type="line"/>
      <point x="1350" y="919" type="line"/>
      <point x="1344" y="919" type="line"/>
      <point x="1289.333" y="1040.333"/>
      <point x="1189" y="1101"/>
      <point x="1043" y="1101" type="curve" smooth="yes"/>
      <point x="855" y="1101"/>
      <point x="691.5" y="982"/>
      <point x="605.5" y="794" type="curve" smooth="yes"/>
      <point x="562.5" y="700"/>
      <point x="541" y="598.333"/>
      <point x="541" y="489" type="curve" smooth="yes"/>
      <point x="541" y="247.667"/>
      <point x="661.667" y="104"/>
      <point x="871" y="104" type="curve" smooth="yes"/>
      <point x="1021.667" y="104"/>
      <point x="1157" y="186"/>
      <point x="1245" y="350" type="curve"/>
      <point x="1251" y="350" type="line"/>
      <point x="1248" y="280" type="line" smooth="yes"/>
      <point x="1248" y="162.667"/>
      <point x="1323" y="104"/>
      <point x="1455" y="104" type="curve" smooth="yes"/>
      <point x="1624.333" y="104"/>
      <point x="1767.833" y="217.833"/>
      <point x="1844.5" y="418.5" type="curve" smooth="yes"/>
      <point x="1882.833" y="518.833"/>
      <point x="1902" y="631"/>
    </contour>
    <contour>
      <point x="1296" y="747" type="curve"/>
      <point x="1296" y="747" type="line"/>
      <point x="1296.0" y="667.1346554859102"/>
      <point x="1252.5448220959802" y="497.2465042224848"/>
      <point x="1176" y="394" type="curve" smooth="yes"/>
      <point x="1103" y="297"/>
      <point x="1004" y="235"/>
      <point x="900" y="235" type="curve" smooth="yes"/>
      <point x="768" y="235"/>
      <point x="706" y="331"/>
      <point x="706" y="491" type="curve" smooth="yes"/>
      <point x="706" y="666"/>
      <point x="770" y="826"/>
      <point x="874" y="910" type="curve" smooth="yes"/>
      <point x="927" y="953"/>
      <point x="987" y="974"/>
      <point x="1054" y="974" type="curve" smooth="yes"/>
      <point x="1201" y="974"/>
      <point x="1296" y="883"/>
    </contour>
  </outline>
</glyph>
<glyph name="A" format="2">
  <advance width="1366"/>
  <unicode hex="0041"/>
  <note>
A
</note>
  <anchor x="680" y="1540" name="gpos_18_mark_to_base__MARKCLASS_0_lookup_18"/>
  <anchor x="1000" y="1540" name="gpos_18_mark_to_base__MARKCLASS_1_lookup_18"/>
  <anchor x="680" y="-130" name="gpos_18_mark_to_base__MARKCLASS_2_lookup_18"/>
  <anchor x="800" y="1420" name="gpos_20_mark_to_base__MARKCLASS_0_lookup_20"/>
  <anchor x="740" y="1300" name="gpos_21_mark_to_base__MARKCLASS_0_lookup_21"/>
  <anchor x="1336" y="1540" name="gpos_22_mark_to_base__MARKCLASS_0_lookup_22"/>
  <anchor x="1336" y="-380" name="gpos_22_mark_to_base__MARKCLASS_1_lookup_22"/>
  <anchor x="1366" y="1840" name="gpos_23_mark_to_base__MARKCLASS_0_lookup_23"/>
  <anchor x="0" y="1840" name="gpos_23_mark_to_base__MARKCLASS_1_lookup_23"/>
  <anchor x="1200" y="0" name="gpos_24_mark_to_base__MARKCLASS_0_lookup_24"/>
  <outline>
    <contour>
      <point x="364" y="412" type="line"/>
      <point x="1006" y="412" type="line"/>
      <point x="1167" y="0" type="line"/>
      <point x="1362" y="0" type="line"/>
      <point x="796" y="1409" type="line"/>
      <point x="579" y="1409" type="line"/>
      <point x="4" y="0" type="line"/>
      <point x="202" y="0" type="line"/>
    </contour>
    <contour>
      <point x="685" y="1265" type="curve"/>
      <point x="715" y="1164"/>
      <point x="749" y="1072"/>
      <point x="768" y="1026" type="curve" smooth="yes"/>
      <point x="949" y="561" type="line"/>
      <point x="422" y="561" type="line"/>
      <point x="601" y="1020" type="line" smooth="yes"/>
      <point x="628" y="1089"/>
      <point x="662" y="1190"/>
    </contour>
  </outline>
</glyph>
<glyph name="B" format="2">
  <advance width="1366"/>
  <unicode hex="0042"/>
  <note>
B
</note>
  <outline>
    <contour>
      <point x="1258" y="397" type="curve"/>
      <point x="1258" y="397" type="line"/>
      <point x="1258" y="585"/>
      <point x="1132" y="716.333"/>
      <point x="908" y="743" type="curve"/>
      <point x="1078.667" y="781.667"/>
      <point x="1176" y="900.333"/>
      <point x="1176" y="1067" type="curve" smooth="yes"/>
      <point x="1176" y="1295"/>
      <point x="1010.667" y="1409"/>
      <point x="680" y="1409" type="curve" smooth="yes"/>
      <point x="168" y="1409" type="line"/>
      <point x="168" y="0" type="line"/>
      <point x="740" y="0" type="line" smooth="yes"/>
      <point x="1065.333" y="0"/>
      <point x="1258" y="146.333"/>
    </contour>
    <contour>
      <point x="984" y="1044" type="curve"/>
      <point x="984" y="1044" type="line"/>
      <point x="984" y="885.333"/>
      <point x="884" y="810"/>
      <point x="680" y="810" type="curve" smooth="yes"/>
      <point x="359" y="810" type="line"/>
      <point x="359" y="1256" type="line"/>
      <point x="680" y="1256" type="line" smooth="yes"/>
      <point x="877.333" y="1256"/>
      <point x="984" y="1196"/>
    </contour>
    <contour>
      <point x="1065" y="412" type="curve"/>
      <point x="1065" y="412" type="line"/>
      <point x="1065" y="240"/>
      <point x="963.333" y="153"/>
      <point x="730" y="153" type="curve" smooth="yes"/>
      <point x="359" y="153" type="line"/>
      <point x="359" y="661" type="line"/>
      <point x="715" y="661" type="line" smooth="yes"/>
      <point x="948.333" y="661"/>
      <point x="1065" y="578"/>
    </contour>
  </outline>
</glyph>
<glyph name="C" format="2">
  <advance width="1479"/>
  <unicode hex="0043"/>
  <note>
C
</note>
  <outline>
    <contour>
      <point x="792" y="1274" type="curve"/>
      <point x="792" y="1274" type="line"/>
      <point x="990.667" y="1274"/>
      <point x="1141.667" y="1185"/>
      <point x="1207" y="1021" type="curve"/>
      <point x="1388" y="1081" type="line"/>
      <point x="1293.333" y="1311.667"/>
      <point x="1090" y="1430"/>
      <point x="790" y="1430" type="curve" smooth="yes"/>
      <point x="360.667" y="1430"/>
      <point x="104" y="1160.333"/>
      <point x="104" y="711" type="curve" smooth="yes"/>
      <point x="104" y="411"/>
      <point x="215.167" y="186.5"/>
      <point x="422.5" y="68.5" type="curve" smooth="yes"/>
      <point x="526.167" y="9.5"/>
      <point x="649" y="-20"/>
      <point x="791" y="-20" type="curve" smooth="yes"/>
      <point x="1068.333" y="-20"/>
      <point x="1285" y="109.333"/>
      <point x="1401" y="352" type="curve"/>
      <point x="1245" y="430" type="line"/>
      <point x="1145.667" y="234.667"/>
      <point x="997.333" y="137"/>
      <point x="800" y="137" type="curve" smooth="yes"/>
      <point x="492" y="137"/>
      <point x="298" y="365.667"/>
      <point x="298" y="711" type="curve" smooth="yes"/>
      <point x="298" y="1060.333"/>
      <point x="480" y="1274"/>
    </contour>
  </outline>
</glyph>
<glyph name="D" format="2">
  <advance width="1479"/>
  <unicode hex="0044"/>
  <note>
D
</note>
  <anchor x="640" y="1540" name="top"/>
  <anchor x="1260" y="1540" name="caronalt"/>
  <anchor x="640" y="-130" name="bottom"/>
  <anchor x="1261" y="1150" name="rhotic"/>
  <anchor x="968" y="1300" name="horn"/>
  <anchor x="1479" y="1540" name="topdouble"/>
  <anchor x="1479" y="-380" name="bottomdouble"/>
  <anchor x="1479" y="1840" name="tophalfright"/>
  <anchor x="0" y="1840" name="tophalfleft"/>
  <anchor x="670" y="0" name="ogonek"/>
  <outline>
    <contour>
      <point x="1381" y="719" type="curve" smooth="yes"/>
      <point x="1381" y="1160"/>
      <point x="1111" y="1409"/>
      <point x="634" y="1409" type="curve" smooth="yes"/>
      <point x="168" y="1409" type="line"/>
      <point x="168" y="0" type="line"/>
      <point x="695" y="0" type="line" smooth="yes"/>
      <point x="1103" y="0"/>
      <point x="1381" y="274"/>
    </contour>
    <contour>
      <point x="1189" y="719" type="curve" smooth="yes"/>
      <point x="1189" y="370"/>
      <point x="986" y="153"/>
      <point x="673" y="153" type="curve" smooth="yes"/>
      <point x="359" y="153" type="line"/>
      <point x="359" y="1256" type="line"/>
      <point x="630" y="1256" type="line" smooth="yes"/>
      <point x="993" y="1256"/>
      <point x="1189" y="1068"/>
    </contour>
  </outline>
</glyph>
<glyph name="E" format="2">
  <advance width="1366"/>
  <unicode hex="0045"/>
  <note>
E
</note>
  <anchor x="700" y="1540" name="top"/>
  <anchor x="1200" y="1540" name="caronalt"/>
  <anchor x="740" y="-130" name="bottom"/>
  <anchor x="1215" y="1420" name="rhotic"/>
  <anchor x="1155" y="1300" name="horn"/>
  <anchor x="1366" y="1540" name="topdouble"/>
  <anchor x="1366" y="-380" name="bottomdouble"/>
  <anchor x="1366" y="1840" name="tophalfright"/>
  <anchor x="0" y="1840" name="tophalfleft"/>
  <anchor x="1120" y="0" name="ogonek"/>
  <outline>
    <contour>
      <point x="1278" y="156" type="line"/>
      <point x="359" y="156" type="line"/>
      <point x="359" y="647" type="line"/>
      <point x="1177" y="647" type="line"/>
      <point x="1177" y="801" type="line"/>
      <point x="359" y="801" type="line"/>
      <point x="359" y="1253" type="line"/>
      <point x="1237" y="1253" type="line"/>
      <point x="1237" y="1409" type="line"/>
      <point x="168" y="1409" type="line"/>
      <point x="168" y="0" type="line"/>
      <point x="1278" y="0" type="line"/>
    </contour>
  </outline>
</glyph>
<glyph name="F" format="2">
  <advance width="1251"/>
  <unicode hex="0046"/>
  <note>
F
</note>
  <anchor x="680" y="1540" name="gpos_18_mark_to_base__MARKCLASS_0_lookup_18"/>
  <anchor x="1120" y="1540" name="gpos_18_mark_to_base__MARKCLASS_1_lookup_18"/>
  <anchor x="680" y="-130" name="gpos_18_mark_to_base__MARKCLASS_2_lookup_18"/>
  <anchor x="1143" y="1420" name="gpos_20_mark_to_base__MARKCLASS_0_lookup_20"/>
  <anchor x="1100" y="1300" name="gpos_21_mark_to_base__MARKCLASS_0_lookup_21"/>
  <anchor x="1251" y="1540" name="gpos_22_mark_to_base__MARKCLASS_0_lookup_22"/>
  <anchor x="1251" y="-380" name="gpos_22_mark_to_base__MARKCLASS_1_lookup_22"/>
  <anchor x="1251" y="1840" name="gpos_23_mark_to_base__MARKCLASS_0_lookup_23"/>
  <anchor x="0" y="1840" name="gpos_23_mark_to_base__MARKCLASS_1_lookup_23"/>
  <anchor x="190" y="0" name="gpos_24_mark_to_base__MARKCLASS_0_lookup_24"/>
  <outline>
    <contour>
      <point x="359" y="571" type="line"/>
      <point x="1145" y="571" type="line"/>
      <point x="1145" y="729" type="line"/>
      <point x="359" y="729" type="line"/>
      <point x="359" y="1253" type="line"/>
      <point x="1169" y="1253" type="line"/>
      <point x="1169" y="1409" type="line"/>
      <point x="168" y="1409" type="line"/>
      <point x="168" y="0" type="line"/>
      <point x="359" y="0" type="line"/>
    </contour>
  </outline>
</glyph>
<glyph name="G" format="2">
  <advance width="1593"/>
  <unicode hex="0047"/>
  <note>
G
</note>
  <anchor x="800" y="1540" name="gpos_18_mark_to_base__MARKCLASS_0_lookup_18"/>
  <anchor x="1280" y="1540" name="gpos_18_mark_to_base__MARKCLASS_1_lookup_18"/>
  <anchor x="800" y="-130" name="gpos_18_mark_to_base__MARKCLASS_2_lookup_18"/>
  <anchor x="1371" y="1200" name="gpos_20_mark_to_base__MARKCLASS_0_lookup_20"/>
  <anchor x="1100" y="1300" name="gpos_21_mark_to_base__MARKCLASS_0_lookup_21"/>
  <anchor x="1593" y="1540" name="gpos_22_mark_to_base__MARKCLASS_0_lookup_22"/>
  <anchor x="1593" y="-380" name="gpos_22_mark_to_base__MARKCLASS_1_lookup_22"/>
  <anchor x="1593" y="1840" name="gpos_23_mark_to_base__MARKCLASS_0_lookup_23"/>
  <anchor x="0" y="1840" name="gpos_23_mark_to_base__MARKCLASS_1_lookup_23"/>
  <anchor x="960" y="0" name="gpos_24_mark_to_base__MARKCLASS_0_lookup_24"/>
  <outline>
    <contour>
      <point x="813" y="135" type="curve" smooth="yes"/>
      <point x="490" y="135"/>
      <point x="297" y="355"/>
      <point x="297" y="711" type="curve" smooth="yes"/>
      <point x="297" y="1068"/>
      <point x="474" y="1274"/>
      <point x="799" y="1274" type="curve" smooth="yes"/>
      <point x="1008" y="1274"/>
      <point x="1147" y="1204"/>
      <point x="1227" y="1044" type="curve"/>
      <point x="1409" y="1098" type="line"/>
      <point x="1304" y="1330"/>
      <point x="1116" y="1430"/>
      <point x="804" y="1430" type="curve" smooth="yes"/>
      <point x="360" y="1430"/>
      <point x="103" y="1168"/>
      <point x="103" y="711" type="curve" smooth="yes"/>
      <point x="103" y="262"/>
      <point x="373" y="-20"/>
      <point x="813" y="-20" type="curve" smooth="yes"/>
      <point x="1066" y="-20"/>
      <point x="1291" y="67"/>
      <point x="1440" y="219" type="curve"/>
      <point x="1440" y="705" type="line"/>
      <point x="843" y="705" type="line"/>
      <point x="843" y="545" type="line"/>
      <point x="1264" y="545" type="line"/>
      <point x="1264" y="291" type="line"/>
      <point x="1165" y="195"/>
      <point x="997" y="135"/>
    </contour>
  </outline>
</glyph>
<glyph name="J" format="2">
  <advance width="1024"/>
  <unicode hex="004A"/>
  <note>
J
</note>
  <anchor x="660" y="1540" name="top"/>
  <anchor x="880" y="1540" name="caronalt"/>
  <anchor x="460" y="-130" name="bottom"/>
  <anchor x="860" y="1420" name="rhotic"/>
  <anchor x="781" y="1300" name="horn"/>
  <anchor x="1024" y="1540" name="topdouble"/>
  <anchor x="1024" y="-380" name="bottomdouble"/>
  <anchor x="1024" y="1840" name="tophalfright"/>
  <anchor x="0" y="1840" name="tophalfleft"/>
  <anchor x="460" y="0" name="ogonek"/>
  <outline>
    <contour>
      <point x="457" y="-20" type="curve" smooth="yes"/>
      <point x="714" y="-20"/>
      <point x="872" y="147"/>
      <point x="872" y="420" type="curve" smooth="yes"/>
      <point x="872" y="1409" type="line"/>
      <point x="411" y="1409" type="line"/>
      <point x="411" y="1253" type="line"/>
      <point x="682" y="1253" type="line"/>
      <point x="682" y="416" type="line" smooth="yes"/>
      <point x="682" y="232"/>
      <point x="597" y="135"/>
      <point x="458" y="135" type="curve" smooth="yes"/>
      <point x="331" y="135"/>
      <point x="243" y="226"/>
      <point x="219" y="381" type="curve"/>
      <point x="32" y="350" type="line"/>
      <point x="77" y="103"/>
      <point x="218" y="-20"/>
    </contour>
  </outline>
</glyph>
<glyph name="K" format="2">
  <advance width="1366"/>
  <unicode hex="004B"/>
  <note>
K
</note>
  <anchor x="680" y="1540" name="gpos_18_mark_to_base__MARKCLASS_0_lookup_18"/>
  <anchor x="1200" y="1540" name="gpos_18_mark_to_base__MARKCLASS_1_lookup_18"/>
  <anchor x="680" y="-130" name="gpos_18_mark_to_base__MARKCLASS_2_lookup_18"/>
  <anchor x="1179" y="1420" name="gpos_20_mark_to_base__MARKCLASS_0_lookup_20"/>
  <anchor x="1067" y="1300" name="gpos_21_mark_to_base__MARKCLASS_0_lookup_21"/>
  <anchor x="1366" y="1540" name="gpos_22_mark_to_base__MARKCLASS_0_lookup_22"/>
  <anchor x="1366" y="-380" name="gpos_22_mark_to_base__MARKCLASS_1_lookup_22"/>
  <anchor x="1366" y="1840" name="gpos_23_mark_to_base__MARKCLASS_0_lookup_23"/>
  <anchor x="0" y="1840" name="gpos_23_mark_to_base__MARKCLASS_1_lookup_23"/>
  <anchor x="1130" y="0" name="gpos_24_mark_to_base__MARKCLASS_0_lookup_24"/>
  <outline>
    <contour>
      <point x="359" y="540" type="line"/>
      <point x="543" y="680" type="line"/>
      <point x="1106" y="0" type="line"/>
      <point x="1343" y="0" type="line"/>
      <point x="663" y="797" type="line"/>
      <point x="1263" y="1409" type="line"/>
      <point x="1038" y="1409" type="line"/>
      <point x="359" y="703" type="line"/>
      <point x="359" y="1409" type="line"/>
      <point x="168" y="1409" type="line"/>
      <point x="168" y="0" type="line"/>
      <point x="359" y="0" type="line"/>
    </contour>
  </outline>
</glyph>
<glyph name="L" format="2">
  <advance width="1139"/>
  <unicode hex="004C"/>
  <note>
L
</note>
  <anchor x="580" y="1540" name="top"/>
  <anchor x="900" y="1540" name="caronalt"/>
  <anchor x="580" y="-130" name="bottom"/>
  <anchor x="360" y="1420" name="rhotic"/>
  <anchor x="253" y="1300" name="horn"/>
  <anchor x="1139" y="1540" name="topdouble"/>
  <anchor x="1139" y="-380" name="bottomdouble"/>
  <anchor x="1139" y="1840" name="tophalfright"/>
  <anchor x="0" y="1840" name="tophalfleft"/>
  <anchor x="940" y="0" name="ogonek"/>
  <outline>
    <contour>
      <point x="1071" y="156" type="line"/>
      <point x="359" y="156" type="line"/>
      <point x="359" y="1409" type="line"/>
      <point x="168" y="1409" type="line"/>
      <point x="168" y="0" type="line"/>
      <point x="1071" y="0" type="line"/>
    </contour>
  </outline>
</glyph>
<glyph name="M" format="2">
  <advance width="1706"/>
  <unicode hex="004D"/>
  <note>
M
</note>
  <anchor x="860" y="1540" name="top"/>
  <anchor x="1540" y="1540" name="caronalt"/>
  <anchor x="860" y="-130" name="bottom"/>
  <anchor x="1540" y="1420" name="rhotic"/>
  <anchor x="1452" y="1300" name="horn"/>
  <anchor x="1706" y="1540" name="topdouble"/>
  <anchor x="1706" y="-380" name="bottomdouble"/>
  <anchor x="1706" y="1840" name="tophalfright"/>
  <anchor x="0" y="1840" name="tophalfleft"/>
  <anchor x="1380" y="0" name="ogonek"/>
  <outline>
    <contour>
      <point x="338" y="940" type="line" smooth="yes"/>
      <point x="338" y="1040"/>
      <point x="333" y="1140"/>
      <point x="331" y="1240" type="curve"/>
      <point x="420" y="960" type="line"/>
      <point x="789" y="0" type="line"/>
      <point x="923" y="0" type="line"/>
      <point x="1287" y="960" type="line" smooth="yes"/>
      <point x="1313" y="1027"/>
      <point x="1342" y="1121"/>
      <point x="1375" y="1240" type="curve"/>
      <point x="1369" y="1144"/>
      <point x="1366" y="1044"/>
      <point x="1366" y="940" type="curve" smooth="yes"/>
      <point x="1366" y="0" type="line"/>
      <point x="1538" y="0" type="line"/>
      <point x="1538" y="1409" type="line"/>
      <point x="1293" y="1409" type="line"/>
      <point x="925" y="432" type="line" smooth="yes"/>
      <point x="913" y="404"/>
      <point x="868" y="261"/>
      <point x="857" y="208" type="curve"/>
      <point x="849" y="248"/>
      <point x="821" y="353"/>
      <point x="794" y="432" type="curve"/>
      <point x="419" y="1409" type="line"/>
      <point x="168" y="1409" type="line"/>
      <point x="168" y="0" type="line"/>
      <point x="338" y="0" type="line"/>
    </contour>
  </outline>
</glyph>
<glyph name="N" format="2">
  <advance width="1479"/>
  <unicode hex="004E"/>
  <note>
N
</note>
  <anchor x="730" y="1540" name="top"/>
  <anchor x="1300" y="1540" name="caronalt"/>
  <anchor x="730" y="-130" name="bottom"/>
  <anchor x="1300" y="1420" name="rhotic"/>
  <anchor x="1210" y="1300" name="horn"/>
  <anchor x="1479" y="1540" name="topdouble"/>
  <anchor x="1479" y="-380" name="bottomdouble"/>
  <anchor x="1479" y="1840" name="tophalfright"/>
  <anchor x="0" y="1840" name="tophalfleft"/>
  <anchor x="1120" y="0" name="ogonek"/>
  <outline>
    <contour>
      <point x="338" y="936" type="line" smooth="yes"/>
      <point x="338" y="1024"/>
      <point x="331" y="1112"/>
      <point x="328" y="1200" type="curve"/>
      <point x="1082" y="0" type="line"/>
      <point x="1312" y="0" type="line"/>
      <point x="1312" y="1409" type="line"/>
      <point x="1140" y="1409" type="line"/>
      <point x="1140" y="485" type="line" smooth="yes"/>
      <point x="1140" y="426"/>
      <point x="1144" y="332"/>
      <point x="1152" y="201" type="curve"/>
      <point x="390" y="1409" type="line"/>
      <point x="168" y="1409" type="line"/>
      <point x="168" y="0" type="line"/>
      <point x="338" y="0" type="line"/>
    </contour>
  </outline>
</glyph>
<glyph name="O" format="2">
  <advance width="1593"/>
  <unicode hex="004F"/>
  <note>
O
</note>
  <anchor x="800" y="1540" name="gpos_18_mark_to_base__MARKCLASS_0_lookup_18"/>
  <anchor x="1340" y="1540" name="gpos_18_mark_to_base__MARKCLASS_1_lookup_18"/>
  <anchor x="800" y="-130" name="gpos_18_mark_to_base__MARKCLASS_2_lookup_18"/>
  <anchor x="1400" y="1150" name="gpos_20_mark_to_base__MARKCLASS_0_lookup_20"/>
  <anchor x="1100" y="1300" name="gpos_21_mark_to_base__MARKCLASS_0_lookup_21"/>
  <anchor x="1593" y="1540" name="gpos_22_mark_to_base__MARKCLASS_0_lookup_22"/>
  <anchor x="1593" y="-380" name="gpos_22_mark_to_base__MARKCLASS_1_lookup_22"/>
  <anchor x="1593" y="1840" name="gpos_23_mark_to_base__MARKCLASS_0_lookup_23"/>
  <anchor x="0" y="1840" name="gpos_23_mark_to_base__MARKCLASS_1_lookup_23"/>
  <anchor x="920" y="0" name="gpos_24_mark_to_base__MARKCLASS_0_lookup_24"/>
  <outline>
    <contour>
      <point x="1495" y="711" type="curve" smooth="yes"/>
      <point x="1495" y="1166"/>
      <point x="1228" y="1430"/>
      <point x="797" y="1430" type="curve" smooth="yes"/>
      <point x="357" y="1430"/>
      <point x="97" y="1162"/>
      <point x="97" y="711" type="curve" smooth="yes"/>
      <point x="97" y="257"/>
      <point x="362" y="-20"/>
      <point x="795" y="-20" type="curve" smooth="yes"/>
      <point x="1225" y="-20"/>
      <point x="1495" y="259"/>
    </contour>
    <contour>
      <point x="1300" y="711" type="curve" smooth="yes"/>
      <point x="1300" y="344"/>
      <point x="1120" y="135"/>
      <point x="795" y="135" type="curve" smooth="yes"/>
      <point x="479" y="135"/>
      <point x="291" y="358"/>
      <point x="291" y="711" type="curve" smooth="yes"/>
      <point x="291" y="1067"/>
      <point x="474" y="1274"/>
      <point x="797" y="1274" type="curve" smooth="yes"/>
      <point x="1117" y="1274"/>
      <point x="1300" y="1062"/>
    </contour>
  </outline>
</glyph>
<glyph name="P" format="2">
  <advance width="1366"/>
  <unicode hex="0050"/>
  <note>
P
</note>
  <outline>
    <contour>
      <point x="1258" y="985" type="qcurve" smooth="yes"/>
      <point x="1258" y="1187"/>
      <point x="998" y="1409"/>
      <point x="761" y="1409" type="qcurve" smooth="yes"/>
      <point x="168" y="1409" type="line"/>
      <point x="168" y="0" type="line"/>
      <point x="359" y="0" type="line"/>
      <point x="359" y="549" type="line"/>
      <point x="773" y="549" type="line" smooth="yes"/>
      <point x="997" y="549"/>
      <point x="1258" y="785"/>
    </contour>
    <contour>
      <point x="1066" y="983" type="qcurve" smooth="yes"/>
      <point x="1066" y="700"/>
      <point x="746" y="700" type="qcurve" smooth="yes"/>
      <point x="359" y="700" type="line"/>
      <point x="359" y="1256" type="line"/>
      <point x="738" y="1256" type="line" smooth="yes"/>
      <point x="1066" y="1256"/>
    </contour>
  </outline>
</glyph>
<glyph name="Q" format="2">
  <advance width="1593"/>
  <unicode hex="0051"/>
  <note>
Q
</note>
  <outline>
    <contour>
      <point x="1495" y="711" type="curve" smooth="yes"/>
      <point x="1495.0" y="1154.0"/>
      <point x="1240" y="1430"/>
      <point x="797" y="1430" type="curve" smooth="yes"/>
      <point x="357" y="1430"/>
      <point x="97" y="1161.667"/>
      <point x="97" y="711" type="curve" smooth="yes"/>
      <point x="97.0" y="285.3883274840699"/>
      <point x="329" y="4"/>
      <point x="733" y="-16" type="curve"/>
      <point x="815.667" y="-282.667"/>
      <point x="939.667" y="-387"/>
      <point x="1141" y="-387" type="curve" smooth="yes"/>
      <point x="1197.667" y="-387"/>
      <point x="1257" y="-379.667"/>
      <point x="1319" y="-365" type="curve"/>
      <point x="1319" y="-231" type="line"/>
      <point x="1279" y="-239.667"/>
      <point x="1240.667" y="-244"/>
      <point x="1204" y="-244" type="curve" smooth="yes"/>
      <point x="1068" y="-244"/>
      <point x="982.667" y="-174"/>
      <point x="928" y="-6" type="curve"/>
      <point x="1284" y="40.667"/>
      <point x="1495" y="314"/>
    </contour>
    <contour>
      <point x="1300" y="711" type="curve" smooth="yes"/>
      <point x="1300.0" y="344.0"/>
      <point x="1120.333" y="135"/>
      <point x="795" y="135" type="curve" smooth="yes"/>
      <point x="479" y="135"/>
      <point x="291" y="357.667"/>
      <point x="291" y="711" type="curve" smooth="yes"/>
      <point x="291" y="1067"/>
      <point x="474.333" y="1274"/>
      <point x="797" y="1274" type="curve" smooth="yes"/>
      <point x="1117" y="1274"/>
      <point x="1300" y="1062"/>
    </contour>
  </outline>
</glyph>
<glyph name="S" format="2">
  <advance width="1366"/>
  <unicode hex="0053"/>
  <note>
S
</note>
  <outline>
    <contour>
      <point x="1272" y="389" type="qcurve" smooth="yes"/>
      <point x="1272" y="466"/>
      <point x="1229" y="580"/>
      <point x="1153" y="664"/>
      <point x="1050" y="722"/>
      <point x="932" y="765"/>
      <point x="803" y="796"/>
      <point x="738" y="811" type="qcurve" smooth="yes"/>
      <point x="544" y="854"/>
      <point x="414" y="913"/>
      <point x="345" y="998"/>
      <point x="345" y="1063" type="qcurve" smooth="yes"/>
      <point x="345" y="1174"/>
      <point x="523" y="1286"/>
      <point x="692" y="1286" type="qcurve" smooth="yes"/>
      <point x="846" y="1286"/>
      <point x="1020" y="1185"/>
      <point x="1051" y="1073" type="qcurve"/>
      <point x="1239" y="1106" type="line"/>
      <point x="1188" y="1283"/>
      <point x="934" y="1430"/>
      <point x="694" y="1430" type="qcurve" smooth="yes"/>
      <point x="436" y="1430"/>
      <point x="159" y="1234"/>
      <point x="159" y="1053" type="qcurve" smooth="yes"/>
      <point x="159" y="974"/>
      <point x="212" y="852"/>
      <point x="312" y="761"/>
      <point x="485" y="687"/>
      <point x="652" y="650" type="qcurve" smooth="yes"/>
      <point x="748" y="628"/>
      <point x="906" y="590"/>
      <point x="1020" y="534"/>
      <point x="1083" y="448"/>
      <point x="1083" y="379" type="qcurve" smooth="yes"/>
      <point x="1083" y="256"/>
      <point x="882" y="129"/>
      <point x="697" y="129" type="qcurve" smooth="yes"/>
      <point x="518" y="129"/>
      <point x="310" y="248"/>
      <point x="278" y="375" type="qcurve"/>
      <point x="93" y="338" type="line"/>
      <point x="175" y="-20"/>
      <point x="690" y="-20" type="qcurve" smooth="yes"/>
      <point x="967" y="-20"/>
      <point x="1272" y="194"/>
    </contour>
  </outline>
</glyph>
<glyph name="T" format="2">
  <advance width="1251"/>
  <unicode hex="0054"/>
  <note>
T
</note>
  <anchor x="620" y="1540" name="top"/>
  <anchor x="1200" y="1540" name="caronalt"/>
  <anchor x="620" y="-130" name="bottom"/>
  <anchor x="1180" y="1420" name="rhotic"/>
  <anchor x="1100" y="1300" name="horn"/>
  <anchor x="1251" y="1540" name="topdouble"/>
  <anchor x="1251" y="-380" name="bottomdouble"/>
  <anchor x="1251" y="1840" name="tophalfright"/>
  <anchor x="0" y="1840" name="tophalfleft"/>
  <anchor x="550" y="0" name="ogonek"/>
  <outline>
    <contour>
      <point x="720" y="1253" type="line"/>
      <point x="1204" y="1253" type="line"/>
      <point x="1204" y="1409" type="line"/>
      <point x="46" y="1409" type="line"/>
      <point x="46" y="1253" type="line"/>
      <point x="530" y="1253" type="line"/>
      <point x="530" y="0" type="line"/>
      <point x="720" y="0" type="line"/>
    </contour>
  </outline>
</glyph>
<glyph name="U" format="2">
  <advance width="1479"/>
  <unicode hex="0055"/>
  <note>
U
</note>
  <outline>
    <contour>
      <point x="731" y="-20" type="curve"/>
      <point x="731" y="-20" type="line"/>
      <point x="971" y="-20"/>
      <point x="1151.833" y="69.667"/>
      <point x="1248.5" y="235" type="curve" smooth="yes"/>
      <point x="1296.833" y="317.667"/>
      <point x="1321" y="416"/>
      <point x="1321" y="530" type="curve" smooth="yes"/>
      <point x="1321" y="1409" type="line"/>
      <point x="1131" y="1409" type="line"/>
      <point x="1131" y="541" type="line" smooth="yes"/>
      <point x="1131" y="275.667"/>
      <point x="983.333" y="135"/>
      <point x="730" y="135" type="curve" smooth="yes"/>
      <point x="483.333" y="135"/>
      <point x="349" y="270.667"/>
      <point x="349" y="528" type="curve" smooth="yes"/>
      <point x="349" y="1409" type="line"/>
      <point x="158" y="1409" type="line"/>
      <point x="158" y="512" type="line" smooth="yes"/>
      <point x="158" y="290.667"/>
      <point x="257" y="127"/>
      <point x="429" y="43" type="curve" smooth="yes"/>
      <point x="515" y="1"/>
      <point x="615.667" y="-20"/>
    </contour>
  </outline>
</glyph>
<glyph name="V" format="2">
  <advance width="1366"/>
  <unicode hex="0056"/>
  <note>
V
</note>
  <anchor x="680" y="1540" name="gpos_18_mark_to_base__MARKCLASS_0_lookup_18"/>
  <anchor x="1300" y="1540" name="gpos_18_mark_to_base__MARKCLASS_1_lookup_18"/>
  <anchor x="680" y="-130" name="gpos_18_mark_to_base__MARKCLASS_2_lookup_18"/>
  <anchor x="1300" y="1420" name="gpos_20_mark_to_base__MARKCLASS_0_lookup_20"/>
  <anchor x="1210" y="1300" name="gpos_21_mark_to_base__MARKCLASS_0_lookup_21"/>
  <anchor x="1366" y="1540" name="gpos_22_mark_to_base__MARKCLASS_0_lookup_22"/>
  <anchor x="1366" y="-380" name="gpos_22_mark_to_base__MARKCLASS_1_lookup_22"/>
  <anchor x="1479" y="1840" name="gpos_23_mark_to_base__MARKCLASS_0_lookup_23"/>
  <anchor x="0" y="1840" name="gpos_23_mark_to_base__MARKCLASS_1_lookup_23"/>
  <anchor x="620" y="0" name="gpos_24_mark_to_base__MARKCLASS_0_lookup_24"/>
  <outline>
    <contour>
      <point x="1357" y="1409" type="line"/>
      <point x="1156" y="1409" type="line"/>
      <point x="768" y="417" type="line" smooth="yes"/>
      <point x="741" y="349"/>
      <point x="711" y="251"/>
      <point x="684" y="168" type="curve"/>
      <point x="656" y="251"/>
      <point x="632" y="335"/>
      <point x="600" y="417" type="curve" smooth="yes"/>
      <point x="210" y="1409" type="line"/>
      <point x="9" y="1409" type="line"/>
      <point x="584" y="0" type="line"/>
      <point x="782" y="0" type="line"/>
    </contour>
  </outline>
</glyph>
<glyph name="W" format="2">
  <advance width="1933"/>
  <unicode hex="0057"/>
  <note>
W
</note>
  <outline>
    <contour>
      <point x="1511" y="0" type="line"/>
      <point x="1511" y="0" type="line"/>
      <point x="1926" y="1409" type="line"/>
      <point x="1727" y="1409" type="line"/>
      <point x="1551" y="778.333"/>
      <point x="1457.333" y="438.833"/>
      <point x="1446" y="390.5" type="curve" smooth="yes"/>
      <point x="1434.667" y="342.167"/>
      <point x="1420" y="279.667"/>
      <point x="1402" y="203" type="curve" smooth="yes"/>
      <point x="1393" y="168" type="line"/>
      <point x="1371.667" y="267.333"/>
      <point x="1342.333" y="388.667"/>
      <point x="1305" y="532" type="curve" smooth="yes"/>
      <point x="1060" y="1409" type="line"/>
      <point x="877" y="1409" type="line"/>
      <point x="713" y="828.333"/>
      <point x="620.5" y="494.667"/>
      <point x="599.5" y="408" type="curve" smooth="yes"/>
      <point x="578.5" y="321.333"/>
      <point x="560" y="241.333"/>
      <point x="544" y="168" type="curve"/>
      <point x="518.667" y="286.667"/>
      <point x="491" y="402"/>
      <point x="461" y="514" type="curve" smooth="yes"/>
      <point x="208" y="1409" type="line"/>
      <point x="9" y="1409" type="line"/>
      <point x="424" y="0" type="line"/>
      <point x="652" y="0" type="line"/>
      <point x="822" y="616"/>
      <point x="913" y="950"/>
      <point x="925" y="1002" type="curve" smooth="yes"/>
      <point x="937" y="1054"/>
      <point x="951.667" y="1118.667"/>
      <point x="969" y="1196" type="curve"/>
      <point x="999.667" y="1051.333"/>
      <point x="1023" y="951"/>
      <point x="1039" y="895" type="curve" smooth="yes"/>
      <point x="1283" y="0" type="line"/>
    </contour>
  </outline>
</glyph>
<glyph name="X" format="2">
  <advance width="1366"/>
  <unicode hex="0058"/>
  <note>
X
</note>
  <anchor x="680" y="1540" name="top"/>
  <anchor x="1280" y="1540" name="caronalt"/>
  <anchor x="680" y="-130" name="bottom"/>
  <anchor x="1200" y="1420" name="rhotic"/>
  <anchor x="1089" y="1300" name="horn"/>
  <anchor x="1366" y="1540" name="topdouble"/>
  <anchor x="1366" y="-380" name="bottomdouble"/>
  <anchor x="1366" y="1840" name="tophalfright"/>
  <anchor x="0" y="1840" name="tophalfleft"/>
  <anchor x="1130" y="0" name="ogonek"/>
  <outline>
    <contour>
      <point x="689" y="616" type="line"/>
      <point x="1112" y="0" type="line"/>
      <point x="1323" y="0" type="line"/>
      <point x="800" y="739" type="line"/>
      <point x="1282" y="1409" type="line"/>
      <point x="1071" y="1409" type="line"/>
      <point x="690" y="856" type="line"/>
      <point x="298" y="1409" type="line"/>
      <point x="87" y="1409" type="line"/>
      <point x="582" y="732" type="line"/>
      <point x="46" y="0" type="line"/>
      <point x="257" y="0" type="line"/>
    </contour>
  </outline>
</glyph>
<glyph name="Y" format="2">
  <advance width="1366"/>
  <unicode hex="0059"/>
  <note>
Y
</note>
  <anchor x="680" y="1540" name="top"/>
  <anchor x="1300" y="1540" name="caronalt"/>
  <anchor x="680" y="-130" name="bottom"/>
  <anchor x="1251" y="1420" name="rhotic"/>
  <anchor x="1133" y="1300" name="horn"/>
  <anchor x="1366" y="1540" name="topdouble"/>
  <anchor x="1366" y="-380" name="bottomdouble"/>
  <anchor x="1366" y="1840" name="tophalfright"/>
  <anchor x="0" y="1840" name="tophalfleft"/>
  <anchor x="600" y="0" name="ogonek"/>
  <outline>
    <contour>
      <point x="777" y="584" type="line"/>
      <point x="1321" y="1409" type="line"/>
      <point x="1111" y="1409" type="line"/>
      <point x="684" y="738" type="line"/>
      <point x="255" y="1409" type="line"/>
      <point x="45" y="1409" type="line"/>
      <point x="587" y="584" type="line"/>
      <point x="587" y="0" type="line"/>
      <point x="777" y="0" type="line"/>
    </contour>
  </outline>
</glyph>
<glyph name="Z" format="2">
  <advance width="1251"/>
  <unicode hex="005A"/>
  <note>
Z
</note>
  <anchor x="600" y="1540" name="gpos_18_mark_to_base__MARKCLASS_0_lookup_18"/>
  <anchor x="1140" y="1540" name="gpos_18_mark_to_base__MARKCLASS_1_lookup_18"/>
  <anchor x="600" y="-130" name="gpos_18_mark_to_base__MARKCLASS_2_lookup_18"/>
  <anchor x="1130" y="1420" name="gpos_20_mark_to_base__MARKCLASS_0_lookup_20"/>
  <anchor x="1056" y="1300" name="gpos_21_mark_to_base__MARKCLASS_0_lookup_21"/>
  <anchor x="1251" y="1540" name="gpos_22_mark_to_base__MARKCLASS_0_lookup_22"/>
  <anchor x="1251" y="-380" name="gpos_22_mark_to_base__MARKCLASS_1_lookup_22"/>
  <anchor x="1251" y="1840" name="gpos_23_mark_to_base__MARKCLASS_0_lookup_23"/>
  <anchor x="0" y="1840" name="gpos_23_mark_to_base__MARKCLASS_1_lookup_23"/>
  <anchor x="1030" y="0" name="gpos_24_mark_to_base__MARKCLASS_0_lookup_24"/>
  <outline>
    <contour>
      <point x="1187" y="156" type="line"/>
      <point x="282" y="156" type="line"/>
      <point x="1140" y="1270" type="line"/>
      <point x="1140" y="1409" type="line"/>
      <point x="138" y="1409" type="line"/>
      <point x="138" y="1253" type="line"/>
      <point x="923" y="1253" type="line"/>
      <point x="65" y="143" type="line"/>
      <point x="65" y="0" type="line"/>
      <point x="1187" y="0" type="line"/>
    </contour>
  </outline>
</glyph>
<glyph name="grave" format="2">
  <advance width="682"/>
  <unicode hex="0060"/>
  <note>
grave
</note>
  <outline>
    <contour>
      <point x="436" y="1201" type="line"/>
      <point x="530" y="1201" type="line"/>
      <point x="530" y="1221" type="line"/>
      <point x="313" y="1508" type="line"/>
      <point x="106" y="1508" type="line"/>
      <point x="106" y="1479" type="line"/>
    </contour>
  </outline>
</glyph>
<glyph name="a" format="2">
  <advance width="1139"/>
  <unicode hex="0061"/>
  <note>
a
</note>
  <outline>
    <contour>
      <point x="414" y="-20" type="curve" smooth="yes"/>
      <point x="589.0" y="-20.0"/>
      <point x="705" y="41.667"/>
      <point x="797" y="207" type="curve"/>
      <point x="803" y="207" type="line"/>
      <point x="811" y="57.667"/>
      <point x="866.667" y="-10"/>
      <point x="1000" y="-10" type="curve" smooth="yes"/>
      <point x="1047.333" y="-10"/>
      <point x="1093.667" y="-4.667"/>
      <point x="1139" y="6" type="curve"/>
      <point x="1139" y="118" type="line"/>
      <point x="1117" y="113.333"/>
      <point x="1097.333" y="111"/>
      <point x="1080" y="111" type="curve" smooth="yes"/>
      <point x="1001.333" y="111"/>
      <point x="979" y="165.333"/>
      <point x="979" y="272" type="curve" smooth="yes"/>
      <point x="979" y="738" type="line" smooth="yes"/>
      <point x="979" y="974"/>
      <point x="841" y="1102"/>
      <point x="569" y="1102" type="curve" smooth="yes"/>
      <point x="310.333" y="1102"/>
      <point x="165.667" y="1004.667"/>
      <point x="135" y="810" type="curve"/>
      <point x="323" y="793" type="line"/>
      <point x="337.667" y="913"/>
      <point x="403.667" y="965"/>
      <point x="565" y="965" type="curve" smooth="yes"/>
      <point x="725" y="965"/>
      <point x="797" y="895"/>
      <point x="797" y="719" type="curve" smooth="yes"/>
      <point x="797" y="660" type="line"/>
      <point x="554" y="656" type="line" smooth="yes"/>
      <point x="226" y="648"/>
      <point x="87" y="526"/>
      <point x="87" y="302" type="curve" smooth="yes"/>
      <point x="87" y="102"/>
      <point x="197" y="-20"/>
    </contour>
    <contour>
      <point x="797" y="534" type="line"/>
      <point x="797" y="445" type="line" smooth="yes"/>
      <point x="797" y="334.333"/>
      <point x="734" y="220"/>
      <point x="631" y="160" type="curve" smooth="yes"/>
      <point x="580" y="130"/>
      <point x="521" y="115"/>
      <point x="455" y="115" type="curve" smooth="yes"/>
      <point x="338.0" y="115"/>
      <point x="272" y="181.667"/>
      <point x="272" y="299" type="curve" smooth="yes"/>
      <point x="272" y="407"/>
      <point x="320.167" y="472"/>
      <point x="407.5" y="504" type="curve" smooth="yes"/>
      <point x="451.167" y="520"/>
      <point x="515.333" y="528.667"/>
      <point x="600" y="530" type="curve" smooth="yes"/>
    </contour>
  </outline>
</glyph>
<glyph name="b" format="2">
  <advance width="1139"/>
  <unicode hex="0062"/>
  <note>
b
</note>
  <outline>
    <contour>
      <point x="1053" y="546" type="curve"/>
      <point x="1053" y="546" type="line"/>
      <point x="1053" y="919.333"/>
      <point x="928.333" y="1102"/>
      <point x="655" y="1102" type="curve" smooth="yes"/>
      <point x="492.333" y="1102"/>
      <point x="384.667" y="1046.667"/>
      <point x="318" y="908" type="curve"/>
      <point x="314" y="908" type="line"/>
      <point x="316.667" y="966.667"/>
      <point x="318" y="1017.667"/>
      <point x="318" y="1061" type="curve" smooth="yes"/>
      <point x="318" y="1484" type="line"/>
      <point x="138" y="1484" type="line"/>
      <point x="138" y="223" type="line" smooth="yes"/>
      <point x="138" y="110.333"/>
      <point x="136" y="36"/>
      <point x="132" y="0" type="curve"/>
      <point x="306" y="0" type="line"/>
      <point x="308.667" y="13.333"/>
      <point x="316" y="126.667"/>
      <point x="316" y="168" type="curve"/>
      <point x="318" y="168" type="line"/>
      <point x="386" y="36"/>
      <point x="491" y="-20"/>
      <point x="655" y="-20" type="curve" smooth="yes"/>
      <point x="920.333" y="-20"/>
      <point x="1053" y="168.667"/>
    </contour>
    <contour>
      <point x="864" y="540" type="curve"/>
      <point x="864" y="540" type="line"/>
      <point x="864" y="238.667"/>
      <point x="788.333" y="113"/>
      <point x="607" y="113" type="curve" smooth="yes"/>
      <point x="403" y="113"/>
      <point x="318" y="245"/>
      <point x="318" y="529" type="curve" smooth="yes"/>
      <point x="318" y="830.333"/>
      <point x="406.333" y="963"/>
      <point x="609" y="963" type="curve" smooth="yes"/>
      <point x="789" y="963"/>
      <point x="864" y="842.667"/>
    </contour>
  </outline>
</glyph>
<glyph name="c" format="2">
  <advance width="1024"/>
  <unicode hex="0063"/>
  <note>
c
</note>
  <anchor x="540" y="1200" name="gpos_18_mark_to_base__MARKCLASS_0_lookup_18"/>
  <anchor x="860" y="1200" name="gpos_18_mark_to_base__MARKCLASS_1_lookup_18"/>
  <anchor x="540" y="-130" name="gpos_18_mark_to_base__MARKCLASS_2_lookup_18"/>
  <anchor x="900" y="900" name="gpos_20_mark_to_base__MARKCLASS_0_lookup_20"/>
  <anchor x="860" y="800" name="gpos_21_mark_to_base__MARKCLASS_0_lookup_21"/>
  <anchor x="1024" y="1540" name="gpos_22_mark_to_base__MARKCLASS_0_lookup_22"/>
  <anchor x="1024" y="-380" name="gpos_22_mark_to_base__MARKCLASS_1_lookup_22"/>
  <anchor x="1024" y="1840" name="gpos_23_mark_to_base__MARKCLASS_0_lookup_23"/>
  <anchor x="0" y="1840" name="gpos_23_mark_to_base__MARKCLASS_1_lookup_23"/>
  <anchor x="580" y="0" name="gpos_24_mark_to_base__MARKCLASS_0_lookup_24"/>
  <outline>
    <contour>
      <point x="553" y="-20" type="curve" smooth="yes"/>
      <point x="782" y="-20"/>
      <point x="942" y="114"/>
      <point x="970" y="322" type="curve"/>
      <point x="788" y="334" type="line"/>
      <point x="768" y="190"/>
      <point x="676" y="122"/>
      <point x="548" y="122" type="curve" smooth="yes"/>
      <point x="365" y="122"/>
      <point x="275" y="258"/>
      <point x="275" y="546" type="curve" smooth="yes"/>
      <point x="275" y="846"/>
      <point x="355" y="961"/>
      <point x="546" y="961" type="curve" smooth="yes"/>
      <point x="686" y="961"/>
      <point x="760" y="885"/>
      <point x="779" y="765" type="curve"/>
      <point x="964" y="779" type="line"/>
      <point x="927" y="980"/>
      <point x="772" y="1102"/>
      <point x="551" y="1102" type="curve" smooth="yes"/>
      <point x="252" y="1102"/>
      <point x="87" y="906"/>
      <point x="87" y="542" type="curve" smooth="yes"/>
      <point x="87" y="175"/>
      <point x="250" y="-20"/>
    </contour>
  </outline>
</glyph>
<glyph name="d" format="2">
  <advance width="1139"/>
  <unicode hex="0064"/>
  <note>
d
</note>
  <outline>
    <contour>
      <point x="821" y="174" type="curve"/>
      <point x="821" y="174" type="line"/>
      <point x="825" y="174" type="line"/>
      <point x="825" y="118"/>
      <point x="831" y="21.333"/>
      <point x="835" y="0" type="curve"/>
      <point x="1007" y="0" type="line"/>
      <point x="1003" y="36"/>
      <point x="1001" y="110.333"/>
      <point x="1001" y="223" type="curve" smooth="yes"/>
      <point x="1001" y="1484" type="line"/>
      <point x="821" y="1484" type="line"/>
      <point x="821" y="1035" type="line"/>
      <point x="823" y="914" type="line"/>
      <point x="821" y="914" type="line"/>
      <point x="754.333" y="1044.667"/>
      <point x="648" y="1102"/>
      <point x="484" y="1102" type="curve" smooth="yes"/>
      <point x="218.667" y="1102"/>
      <point x="86" y="913.333"/>
      <point x="86" y="536" type="curve" smooth="yes"/>
      <point x="86" y="162.667"/>
      <point x="210.667" y="-20"/>
      <point x="484" y="-20" type="curve" smooth="yes"/>
      <point x="646.667" y="-20"/>
      <point x="754.333" y="35.333"/>
    </contour>
    <contour>
      <point x="275" y="542" type="curve" smooth="yes"/>
      <point x="275.0" y="843.0"/>
      <point x="350.667" y="969"/>
      <point x="532" y="969" type="curve" smooth="yes"/>
      <point x="733.333" y="969"/>
      <point x="821" y="840.667"/>
      <point x="821" y="554" type="curve" smooth="yes"/>
      <point x="821" y="256.667"/>
      <point x="734" y="119"/>
      <point x="530" y="119" type="curve" smooth="yes"/>
      <point x="350" y="119"/>
      <point x="275" y="239"/>
    </contour>
  </outline>
</glyph>
<glyph name="e" format="2">
  <advance width="1139"/>
  <unicode hex="0065"/>
  <note>
e
</note>
  <anchor x="580" y="1200" name="gpos_18_mark_to_base__MARKCLASS_0_lookup_18"/>
  <anchor x="900" y="1200" name="gpos_18_mark_to_base__MARKCLASS_1_lookup_18"/>
  <anchor x="580" y="-130" name="gpos_18_mark_to_base__MARKCLASS_2_lookup_18"/>
  <anchor x="990" y="900" name="gpos_20_mark_to_base__MARKCLASS_0_lookup_20"/>
  <anchor x="930" y="800" name="gpos_21_mark_to_base__MARKCLASS_0_lookup_21"/>
  <anchor x="1139" y="1540" name="gpos_22_mark_to_base__MARKCLASS_0_lookup_22"/>
  <anchor x="1139" y="-380" name="gpos_22_mark_to_base__MARKCLASS_1_lookup_22"/>
  <anchor x="1139" y="1840" name="gpos_23_mark_to_base__MARKCLASS_0_lookup_23"/>
  <anchor x="0" y="1840" name="gpos_23_mark_to_base__MARKCLASS_1_lookup_23"/>
  <anchor x="680" y="0" name="gpos_24_mark_to_base__MARKCLASS_0_lookup_24"/>
  <outline>
    <contour>
      <point x="276" y="503" type="curve"/>
      <point x="1048" y="503" type="line"/>
      <point x="1048" y="527" type="line" smooth="yes"/>
      <point x="1048" y="910"/>
      <point x="889" y="1102"/>
      <point x="571" y="1102" type="curve" smooth="yes"/>
      <point x="260" y="1102"/>
      <point x="87" y="905"/>
      <point x="87" y="548" type="curve" smooth="yes"/>
      <point x="87" y="172"/>
      <point x="258" y="-20"/>
      <point x="578" y="-20" type="curve" smooth="yes"/>
      <point x="807" y="-20"/>
      <point x="954" y="65"/>
      <point x="1019" y="236" type="curve"/>
      <point x="861" y="281" type="line"/>
      <point x="828" y="185"/>
      <point x="734" y="115"/>
      <point x="578" y="115" type="curve" smooth="yes"/>
      <point x="381" y="115"/>
      <point x="276" y="255"/>
    </contour>
    <contour>
      <point x="862" y="641" type="curve"/>
      <point x="278" y="641" type="line"/>
      <point x="286" y="845"/>
      <point x="393" y="969"/>
      <point x="568" y="969" type="curve" smooth="yes"/>
      <point x="748" y="969"/>
      <point x="842" y="869"/>
    </contour>
  </outline>
</glyph>
<glyph name="f" format="2">
  <advance width="569"/>
  <unicode hex="0066"/>
  <note>
f
</note>
  <anchor x="340" y="1580" name="gpos_18_mark_to_base__MARKCLASS_0_lookup_18"/>
  <anchor x="560" y="1540" name="gpos_18_mark_to_base__MARKCLASS_1_lookup_18"/>
  <anchor x="280" y="-130" name="gpos_18_mark_to_base__MARKCLASS_2_lookup_18"/>
  <anchor x="560" y="1500" name="gpos_20_mark_to_base__MARKCLASS_0_lookup_20"/>
  <anchor x="450" y="1400" name="gpos_21_mark_to_base__MARKCLASS_0_lookup_21"/>
  <anchor x="569" y="1540" name="gpos_22_mark_to_base__MARKCLASS_0_lookup_22"/>
  <anchor x="569" y="-380" name="gpos_22_mark_to_base__MARKCLASS_1_lookup_22"/>
  <anchor x="569" y="1840" name="gpos_23_mark_to_base__MARKCLASS_0_lookup_23"/>
  <anchor x="0" y="1840" name="gpos_23_mark_to_base__MARKCLASS_1_lookup_23"/>
  <anchor x="200" y="0" name="gpos_24_mark_to_base__MARKCLASS_0_lookup_24"/>
  <outline>
    <contour>
      <point x="361" y="951" type="line"/>
      <point x="572" y="951" type="line"/>
      <point x="572" y="1082" type="line"/>
      <point x="361" y="1082" type="line"/>
      <point x="361" y="1179" type="line" smooth="yes"/>
      <point x="361" y="1302"/>
      <point x="400" y="1341"/>
      <point x="492" y="1341" type="curve" smooth="yes"/>
      <point x="515" y="1341"/>
      <point x="542" y="1338"/>
      <point x="572" y="1333" type="curve"/>
      <point x="572" y="1470" type="line"/>
      <point x="537" y="1478"/>
      <point x="495" y="1482"/>
      <point x="445" y="1482" type="curve" smooth="yes"/>
      <point x="266" y="1482"/>
      <point x="181" y="1401"/>
      <point x="181" y="1204" type="curve" smooth="yes"/>
      <point x="181" y="1082" type="line"/>
      <point x="29" y="1082" type="line"/>
      <point x="29" y="951" type="line"/>
      <point x="181" y="951" type="line"/>
      <point x="181" y="0" type="line"/>
      <point x="361" y="0" type="line"/>
    </contour>
  </outline>
</glyph>
<glyph name="g" format="2">
  <advance width="1139"/>
  <unicode hex="0067"/>
  <note>
g
</note>
  <outline>
    <contour>
      <point x="548" y="-425" type="curve" smooth="yes"/>
      <point x="850.0" y="-425.0"/>
      <point x="1001" y="-273"/>
      <point x="1001" y="31" type="curve" smooth="yes"/>
      <point x="1001" y="858" type="line" smooth="yes"/>
      <point x="1001" y="971.333"/>
      <point x="1003" y="1046"/>
      <point x="1007" y="1082" type="curve"/>
      <point x="836" y="1082" type="line"/>
      <point x="830.667" y="1072.667"/>
      <point x="824" y="937"/>
      <point x="824" y="897" type="curve"/>
      <point x="822" y="897" type="line"/>
      <point x="760.667" y="1026.333"/>
      <point x="645.333" y="1099"/>
      <point x="492" y="1099" type="curve" smooth="yes"/>
      <point x="218.667" y="1099"/>
      <point x="86" y="921.667"/>
      <point x="86" y="539" type="curve" smooth="yes"/>
      <point x="86" y="161.667"/>
      <point x="206.667" y="-8"/>
      <point x="472" y="-8" type="curve" smooth="yes"/>
      <point x="630.667" y="-8"/>
      <point x="752" y="62.333"/>
      <point x="820" y="201" type="curve"/>
      <point x="822" y="201" type="line"/>
      <point x="822" y="27" type="line" smooth="yes"/>
      <point x="822" y="-183"/>
      <point x="732.333" y="-288"/>
      <point x="553" y="-288" type="curve" smooth="yes"/>
      <point x="419.667" y="-288"/>
      <point x="336" y="-232"/>
      <point x="312" y="-132" type="curve"/>
      <point x="131" y="-158" type="line"/>
      <point x="171" y="-328.667"/>
      <point x="312" y="-425"/>
    </contour>
    <contour>
      <point x="822" y="541" type="curve" smooth="yes"/>
      <point x="822.0" y="283.46878358969644"/>
      <point x="703.6221664183495" y="125.0"/>
      <point x="533" y="125" type="curve" smooth="yes"/>
      <point x="342.333" y="125"/>
      <point x="272" y="245"/>
      <point x="272" y="541" type="curve" smooth="yes"/>
      <point x="272" y="839.667"/>
      <point x="352" y="965"/>
      <point x="536" y="965" type="curve" smooth="yes"/>
      <point x="702.3819240214485" y="965.0"/>
      <point x="822.0" y="803.7951051005814"/>
    </contour>
  </outline>
</glyph>
<glyph name="h" format="2">
  <advance width="1139"/>
  <unicode hex="0068"/>
  <note>
h
</note>
  <anchor x="600" y="1540" name="gpos_18_mark_to_base__MARKCLASS_0_lookup_18"/>
  <anchor x="940" y="1540" name="gpos_18_mark_to_base__MARKCLASS_1_lookup_18"/>
  <anchor x="540" y="-130" name="gpos_18_mark_to_base__MARKCLASS_2_lookup_18"/>
  <anchor x="990" y="900" name="gpos_20_mark_to_base__MARKCLASS_0_lookup_20"/>
  <anchor x="915" y="800" name="gpos_21_mark_to_base__MARKCLASS_0_lookup_21"/>
  <anchor x="1139" y="1540" name="gpos_22_mark_to_base__MARKCLASS_0_lookup_22"/>
  <anchor x="1139" y="-380" name="gpos_22_mark_to_base__MARKCLASS_1_lookup_22"/>
  <anchor x="1139" y="1840" name="gpos_23_mark_to_base__MARKCLASS_0_lookup_23"/>
  <anchor x="0" y="1840" name="gpos_23_mark_to_base__MARKCLASS_1_lookup_23"/>
  <anchor x="850" y="0" name="gpos_24_mark_to_base__MARKCLASS_0_lookup_24"/>
  <outline>
    <contour>
      <point x="317" y="897" type="curve"/>
      <point x="314" y="897" type="line"/>
      <point x="315" y="910"/>
      <point x="322" y="1017"/>
      <point x="322" y="1098" type="curve" smooth="yes"/>
      <point x="322" y="1484" type="line"/>
      <point x="142" y="1484" type="line"/>
      <point x="142" y="0" type="line"/>
      <point x="322" y="0" type="line"/>
      <point x="322" y="638" type="line" smooth="yes"/>
      <point x="322" y="837"/>
      <point x="433" y="963"/>
      <point x="602" y="963" type="curve" smooth="yes"/>
      <point x="762" y="963"/>
      <point x="825" y="882"/>
      <point x="825" y="686" type="curve" smooth="yes"/>
      <point x="825" y="0" type="line"/>
      <point x="1006" y="0" type="line"/>
      <point x="1006" y="721" type="line" smooth="yes"/>
      <point x="1006" y="985"/>
      <point x="898" y="1102"/>
      <point x="663" y="1102" type="curve" smooth="yes"/>
      <point x="496" y="1102"/>
      <point x="394" y="1038"/>
    </contour>
  </outline>
</glyph>
<glyph name="i" format="2">
  <advance width="455"/>
  <unicode hex="0069"/>
  <note>
i
</note>
  <anchor x="230" y="1580" name="top"/>
  <anchor x="320" y="1540" name="caronalt"/>
  <anchor x="230" y="-130" name="bottom"/>
  <anchor x="320" y="1100" name="rhotic"/>
  <anchor x="310" y="1000" name="horn"/>
  <anchor x="455" y="1540" name="topdouble"/>
  <anchor x="455" y="-380" name="bottomdouble"/>
  <anchor x="455" y="1840" name="tophalfright"/>
  <anchor x="0" y="1840" name="tophalfleft"/>
  <anchor x="160" y="0" name="ogonek"/>
  <outline>
    <contour>
      <point x="317" y="1484" type="line"/>
      <point x="137" y="1484" type="line"/>
      <point x="137" y="1312" type="line"/>
      <point x="317" y="1312" type="line"/>
    </contour>
    <contour>
      <point x="317" y="1082" type="line"/>
      <point x="137" y="1082" type="line"/>
      <point x="137" y="0" type="line"/>
      <point x="317" y="0" type="line"/>
    </contour>
  </outline>
</glyph>
<glyph name="j" format="2">
  <advance width="455"/>
  <unicode hex="006A"/>
  <note>
j
</note>
  <outline>
    <contour>
      <point x="137" y="1312" type="line"/>
      <point x="137" y="1312" type="line"/>
      <point x="317" y="1312" type="line"/>
      <point x="317" y="1484" type="line"/>
      <point x="137" y="1484" type="line"/>
    </contour>
    <contour>
      <point x="317" y="-134" type="curve"/>
      <point x="317" y="-134" type="line"/>
      <point x="317" y="1082" type="line"/>
      <point x="137" y="1082" type="line"/>
      <point x="137" y="-107" type="line" smooth="yes"/>
      <point x="137" y="-245.667"/>
      <point x="104" y="-283"/>
      <point x="12" y="-283" type="curve"/>
      <point x="-50" y="-277" type="line"/>
      <point x="-50" y="-416" type="line"/>
      <point x="-16.667" y="-422"/>
      <point x="25.667" y="-425"/>
      <point x="77" y="-425" type="curve" smooth="yes"/>
      <point x="237" y="-425"/>
      <point x="317" y="-338"/>
    </contour>
  </outline>
</glyph>
<glyph name="k" format="2">
  <advance width="1024"/>
  <unicode hex="006B"/>
  <note>
k
</note>
  <anchor x="560" y="1540" name="gpos_18_mark_to_base__MARKCLASS_0_lookup_18"/>
  <anchor x="960" y="1540" name="gpos_18_mark_to_base__MARKCLASS_1_lookup_18"/>
  <anchor x="540" y="-130" name="gpos_18_mark_to_base__MARKCLASS_2_lookup_18"/>
  <anchor x="860" y="1100" name="gpos_20_mark_to_base__MARKCLASS_0_lookup_20"/>
  <anchor x="860" y="1000" name="gpos_21_mark_to_base__MARKCLASS_0_lookup_21"/>
  <anchor x="1024" y="1540" name="gpos_22_mark_to_base__MARKCLASS_0_lookup_22"/>
  <anchor x="1024" y="-380" name="gpos_22_mark_to_base__MARKCLASS_1_lookup_22"/>
  <anchor x="1024" y="1840" name="gpos_23_mark_to_base__MARKCLASS_0_lookup_23"/>
  <anchor x="0" y="1840" name="gpos_23_mark_to_base__MARKCLASS_1_lookup_23"/>
  <anchor x="830" y="0" name="gpos_24_mark_to_base__MARKCLASS_0_lookup_24"/>
  <outline>
    <contour>
      <point x="318" y="385" type="line"/>
      <point x="450" y="494" type="line"/>
      <point x="816" y="0" type="line"/>
      <point x="1027" y="0" type="line"/>
      <point x="565" y="617" type="line"/>
      <point x="1004" y="1082" type="line"/>
      <point x="793" y="1082" type="line"/>
      <point x="318" y="557" type="line"/>
      <point x="318" y="1484" type="line"/>
      <point x="138" y="1484" type="line"/>
      <point x="138" y="0" type="line"/>
      <point x="318" y="0" type="line"/>
    </contour>
  </outline>
</glyph>
<glyph name="l" format="2">
  <advance width="455"/>
  <unicode hex="006C"/>
  <note>
l
</note>
  <anchor x="240" y="1580" name="top"/>
  <anchor x="320" y="1540" name="caronalt"/>
  <anchor x="240" y="-130" name="bottom"/>
  <anchor x="320" y="1500" name="rhotic"/>
  <anchor x="211" y="1400" name="horn"/>
  <anchor x="455" y="1540" name="topdouble"/>
  <anchor x="455" y="-380" name="bottomdouble"/>
  <anchor x="455" y="1840" name="tophalfright"/>
  <anchor x="0" y="1840" name="tophalfleft"/>
  <anchor x="160" y="0" name="ogonek"/>
  <outline>
    <contour>
      <point x="318" y="1484" type="line"/>
      <point x="138" y="1484" type="line"/>
      <point x="138" y="0" type="line"/>
      <point x="318" y="0" type="line"/>
    </contour>
  </outline>
</glyph>
<glyph name="m" format="2">
  <advance width="1706"/>
  <unicode hex="006D"/>
  <note>
m
</note>
  <outline>
    <contour>
      <point x="768" y="0" type="line"/>
      <point x="946" y="0" type="line"/>
      <point x="946" y="627" type="line" smooth="yes"/>
      <point x="946" y="788"/>
      <point x="1077" y="963"/>
      <point x="1195" y="963" type="qcurve" smooth="yes"/>
      <point x="1307" y="963"/>
      <point x="1393" y="843"/>
      <point x="1393" y="686" type="qcurve" smooth="yes"/>
      <point x="1393" y="0" type="line"/>
      <point x="1571" y="0" type="line"/>
      <point x="1571" y="721" type="line" smooth="yes"/>
      <point x="1571" y="924"/>
      <point x="1422" y="1102"/>
      <point x="1258" y="1102" type="qcurve" smooth="yes"/>
      <point x="1145" y="1102"/>
      <point x="986" y="1006"/>
      <point x="930" y="897" type="qcurve"/>
      <point x="927" y="897" type="line"/>
      <point x="899" y="1004"/>
      <point x="756" y="1102"/>
      <point x="633" y="1102" type="qcurve" smooth="yes"/>
      <point x="525" y="1102"/>
      <point x="375" y="1012"/>
      <point x="317" y="897" type="qcurve"/>
      <point x="314" y="897" type="line"/>
      <point x="312" y="976"/>
      <point x="309" y="1033"/>
      <point x="307" y="1077"/>
      <point x="306" y="1082" type="qcurve"/>
      <point x="136" y="1082" type="line"/>
      <point x="142" y="1040"/>
      <point x="142" y="851" type="qcurve" smooth="yes"/>
      <point x="142" y="0" type="line"/>
      <point x="321" y="0" type="line"/>
      <point x="321" y="627" type="line" smooth="yes"/>
      <point x="321" y="787"/>
      <point x="455" y="963"/>
      <point x="570" y="963" type="qcurve" smooth="yes"/>
      <point x="682" y="963"/>
      <point x="768" y="843"/>
      <point x="768" y="686" type="qcurve" smooth="yes"/>
    </contour>
  </outline>
</glyph>
<glyph name="n" format="2">
  <advance width="1139"/>
  <unicode hex="006E"/>
  <note>
n
</note>
  <anchor x="580" y="1200" name="gpos_18_mark_to_base__MARKCLASS_0_lookup_18"/>
  <anchor x="980" y="1200" name="gpos_18_mark_to_base__MARKCLASS_1_lookup_18"/>
  <anchor x="580" y="-130" name="gpos_18_mark_to_base__MARKCLASS_2_lookup_18"/>
  <anchor x="990" y="900" name="gpos_20_mark_to_base__MARKCLASS_0_lookup_20"/>
  <anchor x="920" y="800" name="gpos_21_mark_to_base__MARKCLASS_0_lookup_21"/>
  <anchor x="1139" y="1540" name="gpos_22_mark_to_base__MARKCLASS_0_lookup_22"/>
  <anchor x="1139" y="-380" name="gpos_22_mark_to_base__MARKCLASS_1_lookup_22"/>
  <anchor x="1139" y="1840" name="gpos_23_mark_to_base__MARKCLASS_0_lookup_23"/>
  <anchor x="0" y="1840" name="gpos_23_mark_to_base__MARKCLASS_1_lookup_23"/>
  <anchor x="840" y="0" name="gpos_24_mark_to_base__MARKCLASS_0_lookup_24"/>
  <outline>
    <contour>
      <point x="322" y="627" type="line" smooth="yes"/>
      <point x="322" y="838"/>
      <point x="429" y="963"/>
      <point x="602" y="963" type="curve" smooth="yes"/>
      <point x="766" y="963"/>
      <point x="825" y="892"/>
      <point x="825" y="686" type="curve" smooth="yes"/>
      <point x="825" y="0" type="line"/>
      <point x="1006" y="0" type="line"/>
      <point x="1006" y="721" type="line" smooth="yes"/>
      <point x="1006" y="986"/>
      <point x="900" y="1102"/>
      <point x="663" y="1102" type="curve" smooth="yes"/>
      <point x="502" y="1102"/>
      <point x="400" y="1046"/>
      <point x="317" y="897" type="curve"/>
      <point x="314" y="897" type="line"/>
      <point x="312" y="973"/>
      <point x="310" y="1043"/>
      <point x="306" y="1082" type="curve"/>
      <point x="136" y="1082" type="line"/>
      <point x="140" y="1054"/>
      <point x="142" y="977"/>
      <point x="142" y="851" type="curve" smooth="yes"/>
      <point x="142" y="0" type="line"/>
      <point x="322" y="0" type="line"/>
    </contour>
  </outline>
</glyph>
<glyph name="o" format="2">
  <advance width="1139"/>
  <unicode hex="006F"/>
  <note>
o
</note>
  <anchor x="560" y="1200" name="gpos_18_mark_to_base__MARKCLASS_0_lookup_18"/>
  <anchor x="900" y="1200" name="gpos_18_mark_to_base__MARKCLASS_1_lookup_18"/>
  <anchor x="560" y="-130" name="gpos_18_mark_to_base__MARKCLASS_2_lookup_18"/>
  <anchor x="990" y="900" name="gpos_20_mark_to_base__MARKCLASS_0_lookup_20"/>
  <anchor x="910" y="800" name="gpos_21_mark_to_base__MARKCLASS_0_lookup_21"/>
  <anchor x="1139" y="1540" name="gpos_22_mark_to_base__MARKCLASS_0_lookup_22"/>
  <anchor x="1139" y="-380" name="gpos_22_mark_to_base__MARKCLASS_1_lookup_22"/>
  <anchor x="1139" y="1840" name="gpos_23_mark_to_base__MARKCLASS_0_lookup_23"/>
  <anchor x="0" y="1840" name="gpos_23_mark_to_base__MARKCLASS_1_lookup_23"/>
  <anchor x="680" y="0" name="gpos_24_mark_to_base__MARKCLASS_0_lookup_24"/>
  <outline>
    <contour>
      <point x="1053" y="542" type="curve" smooth="yes"/>
      <point x="1053" y="925"/>
      <point x="902" y="1102"/>
      <point x="571" y="1102" type="curve" smooth="yes"/>
      <point x="248" y="1102"/>
      <point x="86" y="915"/>
      <point x="86" y="542" type="curve" smooth="yes"/>
      <point x="86" y="178"/>
      <point x="249" y="-20"/>
      <point x="565" y="-20" type="curve" smooth="yes"/>
      <point x="882" y="-20"/>
      <point x="1053" y="163"/>
    </contour>
    <contour>
      <point x="864" y="542" type="curve" smooth="yes"/>
      <point x="864" y="247"/>
      <point x="779" y="113"/>
      <point x="563" y="113" type="curve" smooth="yes"/>
      <point x="364" y="113"/>
      <point x="275" y="257"/>
      <point x="275" y="542" type="curve" smooth="yes"/>
      <point x="275" y="835"/>
      <point x="363" y="969"/>
      <point x="574" y="969" type="curve" smooth="yes"/>
      <point x="783" y="969"/>
      <point x="864" y="841"/>
    </contour>
  </outline>
</glyph>
<glyph name="p" format="2">
  <advance width="1139"/>
  <unicode hex="0070"/>
  <note>
p
</note>
  <outline>
    <contour>
      <point x="1053" y="546" type="curve" smooth="yes"/>
      <point x="1053.0" y="929.0"/>
      <point x="921.667" y="1101"/>
      <point x="655" y="1101" type="curve" smooth="yes"/>
      <point x="483" y="1101"/>
      <point x="384" y="1041.333"/>
      <point x="320" y="908" type="curve"/>
      <point x="316" y="908" type="line"/>
      <point x="316.0" y="945.5890920680496"/>
      <point x="308.0456703711249" y="1073.820385487571"/>
      <point x="306" y="1082" type="curve"/>
      <point x="132" y="1082" type="line"/>
      <point x="136" y="1046"/>
      <point x="138" y="972.333"/>
      <point x="138" y="861" type="curve" smooth="yes"/>
      <point x="138" y="-425" type="line"/>
      <point x="318" y="-425" type="line"/>
      <point x="318" y="-2" type="line" smooth="yes"/>
      <point x="318" y="106"/>
      <point x="316.667" y="162.667"/>
      <point x="314" y="168" type="curve"/>
      <point x="319" y="168" type="line"/>
      <point x="376.333" y="42.667"/>
      <point x="488.333" y="-20"/>
      <point x="655" y="-20" type="curve" smooth="yes"/>
      <point x="920.333" y="-20"/>
      <point x="1053" y="169"/>
    </contour>
    <contour>
      <point x="864" y="542" type="curve" smooth="yes"/>
      <point x="864.0" y="233.0"/>
      <point x="785.667" y="113"/>
      <point x="607" y="113" type="curve" smooth="yes"/>
      <point x="403" y="113"/>
      <point x="318" y="244"/>
      <point x="318" y="528" type="curve" smooth="yes"/>
      <point x="318" y="732"/>
      <point x="360.833" y="857"/>
      <point x="441.5" y="917" type="curve" smooth="yes"/>
      <point x="481.833" y="947"/>
      <point x="537.667" y="962"/>
      <point x="609" y="962" type="curve" smooth="yes"/>
      <point x="786.333" y="962"/>
      <point x="864" y="843"/>
    </contour>
  </outline>
</glyph>
<glyph name="r" format="2">
  <advance width="682"/>
  <unicode hex="0072"/>
  <note>
r
</note>
  <anchor x="380" y="1200" name="top"/>
  <anchor x="600" y="1200" name="caronalt"/>
  <anchor x="240" y="-130" name="bottom"/>
  <anchor x="640" y="1100" name="rhotic"/>
  <anchor x="530" y="1000" name="horn"/>
  <anchor x="682" y="1540" name="topdouble"/>
  <anchor x="682" y="-380" name="bottomdouble"/>
  <anchor x="622" y="1840" name="tophalfright"/>
  <anchor x="0" y="1840" name="tophalfleft"/>
  <anchor x="160" y="0" name="ogonek"/>
  <outline>
    <contour>
      <point x="322" y="564" type="line" smooth="yes"/>
      <point x="322" y="804"/>
      <point x="403" y="937"/>
      <point x="552" y="937" type="curve" smooth="yes"/>
      <point x="592" y="937"/>
      <point x="624" y="934"/>
      <point x="648" y="927" type="curve"/>
      <point x="648" y="1092" type="line"/>
      <point x="623" y="1099"/>
      <point x="599" y="1102"/>
      <point x="575" y="1102" type="curve" smooth="yes"/>
      <point x="487" y="1102"/>
      <point x="430" y="1079"/>
      <point x="384" y="1013" type="curve" smooth="yes"/>
      <point x="359" y="976"/>
      <point x="338" y="927"/>
      <point x="318" y="861" type="curve"/>
      <point x="314" y="861" type="line"/>
      <point x="314" y="886"/>
      <point x="311" y="959"/>
      <point x="306" y="1082" type="curve"/>
      <point x="136" y="1082" type="line"/>
      <point x="140" y="990"/>
      <point x="142" y="906"/>
      <point x="142" y="830" type="curve" smooth="yes"/>
      <point x="142" y="0" type="line"/>
      <point x="322" y="0" type="line"/>
    </contour>
  </outline>
</glyph>
<glyph name="s" format="2">
  <advance width="1024"/>
  <unicode hex="0073"/>
  <note>
s
</note>
  <anchor x="500" y="1200" name="gpos_18_mark_to_base__MARKCLASS_0_lookup_18"/>
  <anchor x="840" y="1200" name="gpos_18_mark_to_base__MARKCLASS_1_lookup_18"/>
  <anchor x="500" y="-130" name="gpos_18_mark_to_base__MARKCLASS_2_lookup_18"/>
  <anchor x="861" y="950" name="gpos_20_mark_to_base__MARKCLASS_0_lookup_20"/>
  <anchor x="820" y="800" name="gpos_21_mark_to_base__MARKCLASS_0_lookup_21"/>
  <anchor x="1024" y="1540" name="gpos_22_mark_to_base__MARKCLASS_0_lookup_22"/>
  <anchor x="1024" y="-380" name="gpos_22_mark_to_base__MARKCLASS_1_lookup_22"/>
  <anchor x="1024" y="1840" name="gpos_23_mark_to_base__MARKCLASS_0_lookup_23"/>
  <anchor x="0" y="1840" name="gpos_23_mark_to_base__MARKCLASS_1_lookup_23"/>
  <anchor x="550" y="0" name="gpos_24_mark_to_base__MARKCLASS_0_lookup_24"/>
  <outline>
    <contour>
      <point x="950" y="299" type="curve" smooth="yes"/>
      <point x="950" y="403"/>
      <point x="910" y="474"/>
      <point x="834" y="529" type="curve" smooth="yes"/>
      <point x="768" y="576"/>
      <point x="601" y="625"/>
      <point x="434" y="665" type="curve" smooth="yes"/>
      <point x="310" y="695"/>
      <point x="275" y="740"/>
      <point x="275" y="814" type="curve" smooth="yes"/>
      <point x="275" y="914"/>
      <point x="350" y="963"/>
      <point x="513" y="963" type="curve" smooth="yes"/>
      <point x="660" y="963"/>
      <point x="749" y="910"/>
      <point x="769" y="814" type="curve"/>
      <point x="931" y="834" type="line"/>
      <point x="894" y="1019"/>
      <point x="752" y="1099"/>
      <point x="513" y="1099" type="curve" smooth="yes"/>
      <point x="244" y="1099"/>
      <point x="100" y="993"/>
      <point x="100" y="796" type="curve" smooth="yes"/>
      <point x="100" y="689"/>
      <point x="152" y="619"/>
      <point x="240" y="568" type="curve" smooth="yes"/>
      <point x="283" y="542"/>
      <point x="357" y="516"/>
      <point x="589" y="455" type="curve" smooth="yes"/>
      <point x="720" y="420"/>
      <point x="775" y="370"/>
      <point x="775" y="285" type="curve" smooth="yes"/>
      <point x="775" y="173"/>
      <point x="694" y="117"/>
      <point x="511" y="117" type="curve" smooth="yes"/>
      <point x="340" y="117"/>
      <point x="247" y="169"/>
      <point x="216" y="285" type="curve"/>
      <point x="57" y="254" type="line"/>
      <point x="101" y="66"/>
      <point x="242" y="-20"/>
      <point x="511" y="-20" type="curve" smooth="yes"/>
      <point x="788" y="-20"/>
      <point x="950" y="95"/>
    </contour>
  </outline>
</glyph>
<glyph name="t" format="2">
  <advance width="569"/>
  <unicode hex="0074"/>
  <note>
t
</note>
  <outline>
    <contour>
      <point x="554" y="8" type="qcurve"/>
      <point x="554" y="141" type="line"/>
      <point x="486" y="127"/>
      <point x="450" y="127" type="qcurve" smooth="yes"/>
      <point x="387" y="127"/>
      <point x="336" y="190"/>
      <point x="336" y="268" type="qcurve" smooth="yes"/>
      <point x="336" y="951" type="line"/>
      <point x="536" y="951" type="line"/>
      <point x="536" y="1082" type="line"/>
      <point x="336" y="1082" type="line"/>
      <point x="336" y="1324" type="line"/>
      <point x="216" y="1324" type="line"/>
      <point x="163" y="1082" type="line"/>
      <point x="31" y="1082" type="line"/>
      <point x="31" y="951" type="line"/>
      <point x="156" y="951" type="line"/>
      <point x="156" y="229" type="line" smooth="yes"/>
      <point x="156" y="-16"/>
      <point x="372" y="-16" type="qcurve" smooth="yes"/>
      <point x="465" y="-16"/>
    </contour>
  </outline>
</glyph>
<glyph name="u" format="2">
  <advance width="1139"/>
  <unicode hex="0075"/>
  <note>
u
</note>
  <anchor x="540" y="1200" name="gpos_18_mark_to_base__MARKCLASS_0_lookup_18"/>
  <anchor x="980" y="1200" name="gpos_18_mark_to_base__MARKCLASS_1_lookup_18"/>
  <anchor x="540" y="-130" name="gpos_18_mark_to_base__MARKCLASS_2_lookup_18"/>
  <anchor x="980" y="1100" name="gpos_20_mark_to_base__MARKCLASS_0_lookup_20"/>
  <anchor x="910" y="1000" name="gpos_21_mark_to_base__MARKCLASS_0_lookup_21"/>
  <anchor x="1139" y="1540" name="gpos_22_mark_to_base__MARKCLASS_0_lookup_22"/>
  <anchor x="1139" y="-380" name="gpos_22_mark_to_base__MARKCLASS_1_lookup_22"/>
  <anchor x="1139" y="1840" name="gpos_23_mark_to_base__MARKCLASS_0_lookup_23"/>
  <anchor x="0" y="1840" name="gpos_23_mark_to_base__MARKCLASS_1_lookup_23"/>
  <anchor x="850" y="0" name="gpos_24_mark_to_base__MARKCLASS_0_lookup_24"/>
  <outline>
    <contour>
      <point x="822" y="185" type="curve"/>
      <point x="825" y="185" type="line"/>
      <point x="828" y="57"/>
      <point x="832" y="7"/>
      <point x="833" y="0" type="curve"/>
      <point x="1003" y="0" type="line"/>
      <point x="999" y="28"/>
      <point x="997" y="105"/>
      <point x="997" y="231" type="curve" smooth="yes"/>
      <point x="997" y="1082" type="line"/>
      <point x="817" y="1082" type="line"/>
      <point x="817" y="455" type="line" smooth="yes"/>
      <point x="817" y="244"/>
      <point x="710" y="119"/>
      <point x="537" y="119" type="curve" smooth="yes"/>
      <point x="374" y="119"/>
      <point x="314" y="180"/>
      <point x="314" y="396" type="curve" smooth="yes"/>
      <point x="314" y="1082" type="line"/>
      <point x="133" y="1082" type="line"/>
      <point x="133" y="361" type="line" smooth="yes"/>
      <point x="133" y="89"/>
      <point x="239" y="-20"/>
      <point x="476" y="-20" type="curve" smooth="yes"/>
      <point x="637" y="-20"/>
      <point x="739" y="36"/>
    </contour>
  </outline>
</glyph>
<glyph name="v" format="2">
  <advance width="1024"/>
  <unicode hex="0076"/>
  <note>
v
</note>
  <anchor x="500" y="1200" name="gpos_18_mark_to_base__MARKCLASS_0_lookup_18"/>
  <anchor x="980" y="1200" name="gpos_18_mark_to_base__MARKCLASS_1_lookup_18"/>
  <anchor x="500" y="-130" name="gpos_18_mark_to_base__MARKCLASS_2_lookup_18"/>
  <anchor x="950" y="1100" name="gpos_20_mark_to_base__MARKCLASS_0_lookup_20"/>
  <anchor x="860" y="1000" name="gpos_21_mark_to_base__MARKCLASS_0_lookup_21"/>
  <anchor x="1024" y="1540" name="gpos_22_mark_to_base__MARKCLASS_0_lookup_22"/>
  <anchor x="1024" y="-380" name="gpos_22_mark_to_base__MARKCLASS_1_lookup_22"/>
  <anchor x="1024" y="1840" name="gpos_23_mark_to_base__MARKCLASS_0_lookup_23"/>
  <anchor x="0" y="1840" name="gpos_23_mark_to_base__MARKCLASS_1_lookup_23"/>
  <anchor x="440" y="0" name="gpos_24_mark_to_base__MARKCLASS_0_lookup_24"/>
  <outline>
    <contour>
      <point x="1017" y="1082" type="line"/>
      <point x="826" y="1082" type="line"/>
      <point x="580" y="376" type="line" smooth="yes"/>
      <point x="558" y="313"/>
      <point x="531" y="219"/>
      <point x="506" y="141" type="curve"/>
      <point x="469" y="272"/>
      <point x="446" y="351"/>
      <point x="437" y="378" type="curve" smooth="yes"/>
      <point x="199" y="1082" type="line"/>
      <point x="7" y="1082" type="line"/>
      <point x="400" y="0" type="line"/>
      <point x="613" y="0" type="line"/>
    </contour>
  </outline>
</glyph>
<glyph name="w" format="2">
  <advance width="1479"/>
  <unicode hex="0077"/>
  <note>
w
</note>
  <outline>
    <contour>
      <point x="1174" y="0" type="line"/>
      <point x="1484" y="1082" type="line"/>
      <point x="1308" y="1082" type="line"/>
      <point x="1103" y="288" type="line"/>
      <point x="1072" y="149" type="line"/>
      <point x="1026" y="339" type="line"/>
      <point x="837" y="1082" type="line"/>
      <point x="644" y="1082" type="line"/>
      <point x="418" y="223" type="line"/>
      <point x="401" y="149" type="line"/>
      <point x="365" y="323"/>
      <point x="358" y="347" type="qcurve" smooth="yes"/>
      <point x="175" y="1082" type="line"/>
      <point x="-3" y="1082" type="line"/>
      <point x="300" y="0" type="line"/>
      <point x="508" y="0" type="line"/>
      <point x="693" y="720"/>
      <point x="731" y="889"/>
      <point x="740" y="934" type="qcurve"/>
      <point x="776" y="765" type="line"/>
      <point x="965" y="0" type="line"/>
    </contour>
  </outline>
</glyph>
<glyph name="x" format="2">
  <advance width="1024"/>
  <unicode hex="0078"/>
  <note>
x
</note>
  <anchor x="500" y="1200" name="gpos_18_mark_to_base__MARKCLASS_0_lookup_18"/>
  <anchor x="940" y="1200" name="gpos_18_mark_to_base__MARKCLASS_1_lookup_18"/>
  <anchor x="500" y="-130" name="gpos_18_mark_to_base__MARKCLASS_2_lookup_18"/>
  <anchor x="880" y="1100" name="gpos_20_mark_to_base__MARKCLASS_0_lookup_20"/>
  <anchor x="820" y="1000" name="gpos_21_mark_to_base__MARKCLASS_0_lookup_21"/>
  <anchor x="1024" y="1540" name="gpos_22_mark_to_base__MARKCLASS_0_lookup_22"/>
  <anchor x="1024" y="-380" name="gpos_22_mark_to_base__MARKCLASS_1_lookup_22"/>
  <anchor x="1024" y="1840" name="gpos_23_mark_to_base__MARKCLASS_0_lookup_23"/>
  <anchor x="0" y="1840" name="gpos_23_mark_to_base__MARKCLASS_1_lookup_23"/>
  <anchor x="820" y="0" name="gpos_24_mark_to_base__MARKCLASS_0_lookup_24"/>
  <outline>
    <contour>
      <point x="510" y="444" type="line"/>
      <point x="801" y="0" type="line"/>
      <point x="1002" y="0" type="line"/>
      <point x="612" y="558" type="line"/>
      <point x="979" y="1082" type="line"/>
      <point x="778" y="1082" type="line"/>
      <point x="510" y="661" type="line"/>
      <point x="240" y="1082" type="line"/>
      <point x="41" y="1082" type="line"/>
      <point x="408" y="556" type="line"/>
      <point x="23" y="0" type="line"/>
      <point x="217" y="0" type="line"/>
    </contour>
  </outline>
</glyph>
<glyph name="y" format="2">
  <advance width="1024"/>
  <unicode hex="0079"/>
  <note>
y
</note>
  <outline>
    <contour>
      <point x="191" y="-425" type="curve"/>
      <point x="191" y="-425" type="line"/>
      <point x="309.667" y="-425"/>
      <point x="401.667" y="-370.167"/>
      <point x="479" y="-257.5" type="curve" smooth="yes"/>
      <point x="517.667" y="-201.167"/>
      <point x="559.333" y="-115.333"/>
      <point x="604" y="0" type="curve" smooth="yes"/>
      <point x="1020" y="1082" type="line"/>
      <point x="830" y="1082" type="line"/>
      <point x="593" y="393" type="line"/>
      <point x="523" y="196" type="line"/>
      <point x="519" y="213.333"/>
      <point x="446.333" y="424.5"/>
      <point x="437" y="450.5" type="curve" smooth="yes"/>
      <point x="432.333" y="463.5"/>
      <point x="428.333" y="474.667"/>
      <point x="425" y="484" type="curve" smooth="yes"/>
      <point x="197" y="1082" type="line"/>
      <point x="5" y="1082" type="line"/>
      <point x="434" y="5" type="line"/>
      <point x="417" y="-38" type="line" smooth="yes"/>
      <point x="351.667" y="-202.667"/>
      <point x="263" y="-285"/>
      <point x="151" y="-285" type="curve" smooth="yes"/>
      <point x="120.333" y="-285"/>
      <point x="92.333" y="-283"/>
      <point x="67" y="-279" type="curve"/>
      <point x="67" y="-414" type="line"/>
      <point x="100.333" y="-421.333"/>
      <point x="141.667" y="-425"/>
    </contour>
  </outline>
</glyph>
<glyph name="z" format="2">
  <advance width="1024"/>
  <unicode hex="007A"/>
  <note>
z
</note>
  <anchor x="500" y="1200" name="gpos_18_mark_to_base__MARKCLASS_0_lookup_18"/>
  <anchor x="860" y="1200" name="gpos_18_mark_to_base__MARKCLASS_1_lookup_18"/>
  <anchor x="500" y="-130" name="gpos_18_mark_to_base__MARKCLASS_2_lookup_18"/>
  <anchor x="880" y="1100" name="gpos_20_mark_to_base__MARKCLASS_0_lookup_20"/>
  <anchor x="800" y="1000" name="gpos_21_mark_to_base__MARKCLASS_0_lookup_21"/>
  <anchor x="1024" y="1540" name="gpos_22_mark_to_base__MARKCLASS_0_lookup_22"/>
  <anchor x="1024" y="-380" name="gpos_22_mark_to_base__MARKCLASS_1_lookup_22"/>
  <anchor x="1024" y="1840" name="gpos_23_mark_to_base__MARKCLASS_0_lookup_23"/>
  <anchor x="0" y="1840" name="gpos_23_mark_to_base__MARKCLASS_1_lookup_23"/>
  <anchor x="740" y="0" name="gpos_24_mark_to_base__MARKCLASS_0_lookup_24"/>
  <outline>
    <contour>
      <point x="922" y="139" type="line"/>
      <point x="295" y="139" type="line"/>
      <point x="901" y="945" type="line"/>
      <point x="901" y="1082" type="line"/>
      <point x="117" y="1082" type="line"/>
      <point x="117" y="943" type="line"/>
      <point x="688" y="943" type="line"/>
      <point x="83" y="137" type="line"/>
      <point x="83" y="0" type="line"/>
      <point x="922" y="0" type="line"/>
    </contour>
  </outline>
</glyph>
<glyph name="braceleft" format="2">
  <advance width="684"/>
  <unicode hex="007B"/>
  <note>
braceleft
</note>
  <outline>
    <contour>
      <point x="513" y="-425" type="qcurve" smooth="yes"/>
      <point x="648" y="-425" type="line"/>
      <point x="648" y="-296" type="line"/>
      <point x="585" y="-296" type="line" smooth="yes"/>
      <point x="494" y="-296"/>
      <point x="417" y="-187"/>
      <point x="417" y="-81" type="qcurve" smooth="yes"/>
      <point x="417" y="276" type="line" smooth="yes"/>
      <point x="417" y="373"/>
      <point x="312" y="509"/>
      <point x="223" y="530" type="qcurve"/>
      <point x="223" y="532" type="line"/>
      <point x="311" y="553"/>
      <point x="417" y="690"/>
      <point x="417" y="784" type="qcurve" smooth="yes"/>
      <point x="417" y="1140" type="line" smooth="yes"/>
      <point x="417" y="1248"/>
      <point x="494" y="1355"/>
      <point x="585" y="1355" type="qcurve" smooth="yes"/>
      <point x="648" y="1355" type="line"/>
      <point x="648" y="1484" type="line"/>
      <point x="513" y="1484" type="line" smooth="yes"/>
      <point x="382" y="1484"/>
      <point x="249" y="1332"/>
      <point x="249" y="1191" type="qcurve" smooth="yes"/>
      <point x="249" y="829" type="line" smooth="yes"/>
      <point x="249" y="712"/>
      <point x="143" y="597"/>
      <point x="34" y="593" type="qcurve"/>
      <point x="34" y="466" type="line"/>
      <point x="144" y="461"/>
      <point x="249" y="346"/>
      <point x="249" y="229" type="qcurve" smooth="yes"/>
      <point x="249" y="-132" type="line" smooth="yes"/>
      <point x="249" y="-271"/>
      <point x="386" y="-425"/>
    </contour>
  </outline>
</glyph>
<glyph name="asciitilde" format="2">
  <advance width="1196"/>
  <unicode hex="007E"/>
  <note>
asciitilde
</note>
  <outline>
    <contour>
      <point x="844" y="553" type="curve" smooth="yes"/>
      <point x="957.0" y="553.0"/>
      <point x="1026.667" y="577"/>
      <point x="1104" y="633" type="curve"/>
      <point x="1104" y="782" type="line"/>
      <point x="1028" y="720.667"/>
      <point x="946.667" y="690"/>
      <point x="860" y="690" type="curve" smooth="yes"/>
      <point x="800" y="690"/>
      <point x="705.333" y="719"/>
      <point x="664" y="735" type="curve" smooth="yes"/>
      <point x="577.333" y="765.667"/>
      <point x="512.833" y="785.333"/>
      <point x="470.5" y="794" type="curve" smooth="yes"/>
      <point x="428.167" y="802.667"/>
      <point x="389.667" y="807"/>
      <point x="355" y="807" type="curve" smooth="yes"/>
      <point x="253.667" y="807"/>
      <point x="166" y="779"/>
      <point x="92" y="723" type="curve"/>
      <point x="92" y="580" type="line"/>
      <point x="178.667" y="642.667"/>
      <point x="250.667" y="668"/>
      <point x="340" y="668" type="curve" smooth="yes"/>
      <point x="398.667" y="668"/>
      <point x="471" y="653"/>
      <point x="557" y="623" type="curve" smooth="yes"/>
      <point x="654.333" y="588.333"/>
      <point x="752" y="553"/>
    </contour>
  </outline>
</glyph>
<glyph name="cent" format="2">
  <advance width="1139"/>
  <unicode hex="00A2"/>
  <note>
cent
</note>
  <outline>
    <contour>
      <point x="596" y="277" type="curve" smooth="yes"/>
      <point x="413.0" y="277.0"/>
      <point x="323" y="413"/>
      <point x="323" y="701" type="curve" smooth="yes"/>
      <point x="323" y="1001"/>
      <point x="403.333" y="1116"/>
      <point x="594" y="1116" type="curve" smooth="yes"/>
      <point x="734" y="1116"/>
      <point x="808.333" y="1040"/>
      <point x="827" y="920" type="curve"/>
      <point x="1012" y="934" type="line"/>
      <point x="976" y="1119.333"/>
      <point x="852.667" y="1234"/>
      <point x="662" y="1254" type="curve"/>
      <point x="662" y="1409" type="line"/>
      <point x="538" y="1409" type="line"/>
      <point x="538" y="1254" type="line"/>
      <point x="272.667" y="1231.333"/>
      <point x="135" y="1034.333"/>
      <point x="135" y="697" type="curve" smooth="yes"/>
      <point x="135" y="354.333"/>
      <point x="272.667" y="161"/>
      <point x="538" y="137" type="curve"/>
      <point x="538" y="-31" type="line"/>
      <point x="662" y="-31" type="line"/>
      <point x="662" y="137" type="line"/>
      <point x="858" y="155.667"/>
      <point x="992.667" y="285"/>
      <point x="1018" y="477" type="curve"/>
      <point x="836" y="489" type="line"/>
      <point x="816" y="345"/>
      <point x="724" y="277"/>
    </contour>
  </outline>
</glyph>
<glyph name="sterling" format="2">
  <advance width="1139"/>
  <unicode hex="00A3"/>
  <note>
sterling
</note>
  <outline>
    <contour>
      <point x="1104" y="311" type="qcurve"/>
      <point x="941" y="329" type="line"/>
      <point x="912" y="153"/>
      <point x="738" y="153" type="qcurve" smooth="yes"/>
      <point x="255" y="153" type="line"/>
      <point x="332" y="194"/>
      <point x="424" y="380"/>
      <point x="424" y="499" type="qcurve" smooth="yes"/>
      <point x="424" y="625" type="line"/>
      <point x="832" y="625" type="line"/>
      <point x="832" y="754" type="line"/>
      <point x="424" y="754" type="line"/>
      <point x="424" y="1042" type="line" smooth="yes"/>
      <point x="424" y="1167"/>
      <point x="536" y="1282"/>
      <point x="650" y="1282" type="qcurve" smooth="yes"/>
      <point x="721" y="1282"/>
      <point x="832" y="1207"/>
      <point x="853" y="1143" type="qcurve"/>
      <point x="1027" y="1200" type="line"/>
      <point x="993" y="1309"/>
      <point x="793" y="1430"/>
      <point x="646" y="1430" type="qcurve" smooth="yes"/>
      <point x="450" y="1430"/>
      <point x="244" y="1229"/>
      <point x="244" y="1034" type="qcurve" smooth="yes"/>
      <point x="244" y="754" type="line"/>
      <point x="58" y="754" type="line"/>
      <point x="58" y="625" type="line"/>
      <point x="244" y="625" type="line"/>
      <point x="244" y="481" type="line" smooth="yes"/>
      <point x="244" y="360"/>
      <point x="158" y="200"/>
      <point x="69" y="154" type="qcurve"/>
      <point x="69" y="0" type="line"/>
      <point x="767" y="0" type="line" smooth="yes"/>
      <point x="911" y="0"/>
      <point x="1087" y="161"/>
    </contour>
  </outline>
</glyph>
<glyph name="currency" format="2">
  <advance width="1139"/>
  <unicode hex="00A4"/>
  <note>
currency
</note>
  <outline>
    <contour>
      <point x="137" y="684" type="qcurve" smooth="yes"/>
      <point x="137" y="546"/>
      <point x="215" y="432" type="qcurve"/>
      <point x="113" y="330" type="line"/>
      <point x="215" y="225" type="line"/>
      <point x="320" y="330" type="line"/>
      <point x="429" y="250"/>
      <point x="572" y="250" type="qcurve" smooth="yes"/>
      <point x="709" y="250"/>
      <point x="823" y="328" type="qcurve"/>
      <point x="924" y="227" type="line"/>
      <point x="1026" y="332" type="line"/>
      <point x="926" y="432" type="line"/>
      <point x="1008" y="546"/>
      <point x="1008" y="684" type="qcurve" smooth="yes"/>
      <point x="1008" y="819"/>
      <point x="928" y="936" type="qcurve"/>
      <point x="1024" y="1032" type="line"/>
      <point x="920" y="1137" type="line"/>
      <point x="823" y="1040" type="line"/>
      <point x="709" y="1120"/>
      <point x="572" y="1120" type="qcurve" smooth="yes"/>
      <point x="432" y="1120"/>
      <point x="318" y="1038" type="qcurve"/>
      <point x="219" y="1139" type="line"/>
      <point x="115" y="1036" type="line"/>
      <point x="215" y="936" type="line"/>
      <point x="137" y="822"/>
    </contour>
    <contour>
      <point x="291" y="686" type="qcurve" smooth="yes"/>
      <point x="291" y="804"/>
      <point x="459" y="967"/>
      <point x="572" y="967" type="qcurve" smooth="yes"/>
      <point x="685" y="967"/>
      <point x="852" y="803"/>
      <point x="852" y="686" type="qcurve" smooth="yes"/>
      <point x="852" y="568"/>
      <point x="686" y="406"/>
      <point x="572" y="406" type="qcurve" smooth="yes"/>
      <point x="457" y="406"/>
      <point x="291" y="569"/>
    </contour>
  </outline>
</glyph>
<glyph name="section" format="2">
  <advance width="1139"/>
  <unicode hex="00A7"/>
  <note>
section
</note>
  <outline>
    <contour>
      <point x="588" y="1484" type="curve"/>
      <point x="588" y="1484" type="line"/>
      <point x="317.333" y="1484"/>
      <point x="174" y="1375.333"/>
      <point x="174" y="1190" type="curve" smooth="yes"/>
      <point x="174" y="1075.333"/>
      <point x="253" y="980.667"/>
      <point x="381" y="938" type="curve"/>
      <point x="241" y="898"/>
      <point x="153" y="789.667"/>
      <point x="153" y="671" type="curve" smooth="yes"/>
      <point x="153" y="521.667"/>
      <point x="259.333" y="418"/>
      <point x="518" y="358" type="curve" smooth="yes"/>
      <point x="618.667" y="333.333"/>
      <point x="689.5" y="311.333"/>
      <point x="730.5" y="292" type="curve" smooth="yes"/>
      <point x="812.5" y="253.333"/>
      <point x="858" y="205"/>
      <point x="858" y="129" type="curve" smooth="yes"/>
      <point x="858" y="19.667"/>
      <point x="758.333" y="-41"/>
      <point x="577" y="-41" type="curve" smooth="yes"/>
      <point x="383.667" y="-41"/>
      <point x="302.667" y="11"/>
      <point x="276" y="131" type="curve"/>
      <point x="115" y="100" type="line"/>
      <point x="160.333" y="-85.333"/>
      <point x="298.333" y="-172"/>
      <point x="577" y="-172" type="curve" smooth="yes"/>
      <point x="857" y="-172"/>
      <point x="1018" y="-52.333"/>
      <point x="1018" y="145" type="curve" smooth="yes"/>
      <point x="1018" y="266.333"/>
      <point x="954.333" y="349"/>
      <point x="805" y="413" type="curve"/>
      <point x="938.333" y="445"/>
      <point x="1024" y="554"/>
      <point x="1024" y="686" type="curve" smooth="yes"/>
      <point x="1024" y="794"/>
      <point x="964" y="871.167"/>
      <point x="860" y="926.5" type="curve" smooth="yes"/>
      <point x="808" y="954.167"/>
      <point x="733" y="979.667"/>
      <point x="635" y="1003" type="curve" smooth="yes"/>
      <point x="548.333" y="1023.667"/>
      <point x="486.5" y="1042.667"/>
      <point x="449.5" y="1060" type="curve" smooth="yes"/>
      <point x="375.5" y="1094.667"/>
      <point x="334" y="1140"/>
      <point x="334" y="1204" type="curve" smooth="yes"/>
      <point x="334" y="1298.667"/>
      <point x="421.333" y="1354"/>
      <point x="588" y="1354" type="curve" smooth="yes"/>
      <point x="738" y="1354"/>
      <point x="822" y="1304"/>
      <point x="840" y="1204" type="curve"/>
      <point x="1001" y="1224" type="line"/>
      <point x="965" y="1393.333"/>
      <point x="818.667" y="1484"/>
    </contour>
    <contour>
      <point x="866" y="663" type="curve"/>
      <point x="866" y="663" type="line"/>
      <point x="866" y="549.667"/>
      <point x="770.667" y="477.667"/>
      <point x="612" y="475" type="curve"/>
      <point x="526" y="497"/>
      <point x="464.5" y="517"/>
      <point x="427.5" y="535" type="curve" smooth="yes"/>
      <point x="353.5" y="571"/>
      <point x="313" y="618.667"/>
      <point x="313" y="684" type="curve" smooth="yes"/>
      <point x="313" y="796"/>
      <point x="405.667" y="872"/>
      <point x="551" y="880" type="curve"/>
      <point x="668.333" y="852.667"/>
      <point x="750.167" y="821.667"/>
      <point x="796.5" y="787" type="curve" smooth="yes"/>
      <point x="842.833" y="752.333"/>
      <point x="866" y="711"/>
    </contour>
  </outline>
</glyph>
<glyph name="dieresis" format="2">
  <advance width="682"/>
  <unicode hex="00A8"/>
  <note>
dieresis
</note>
  <outline>
    <contour>
      <point x="439" y="1219" type="line"/>
      <point x="602" y="1219" type="line"/>
      <point x="602" y="1403" type="line"/>
      <point x="439" y="1403" type="line"/>
    </contour>
    <contour>
      <point x="45" y="1219" type="line"/>
      <point x="210" y="1219" type="line"/>
      <point x="210" y="1403" type="line"/>
      <point x="45" y="1403" type="line"/>
    </contour>
  </outline>
</glyph>
<glyph name="copyright" format="2">
  <advance width="1509"/>
  <unicode hex="00A9"/>
  <note>
copyright
</note>
  <outline>
    <contour>
      <point x="1477" y="707" type="qcurve" smooth="yes"/>
      <point x="1477" y="901"/>
      <point x="1285" y="1235"/>
      <point x="948" y="1430"/>
      <point x="754" y="1430" type="qcurve" smooth="yes"/>
      <point x="561" y="1430"/>
      <point x="225" y="1236"/>
      <point x="31" y="900"/>
      <point x="31" y="707" type="qcurve" smooth="yes"/>
      <point x="31" y="518"/>
      <point x="218" y="185"/>
      <point x="557" y="-16"/>
      <point x="754" y="-16" type="qcurve" smooth="yes"/>
      <point x="947" y="-16"/>
      <point x="1284" y="177"/>
      <point x="1477" y="514"/>
    </contour>
    <contour>
      <point x="1385" y="707" type="qcurve" smooth="yes"/>
      <point x="1385" y="538"/>
      <point x="1217" y="246"/>
      <point x="923" y="78"/>
      <point x="754" y="78" type="qcurve" smooth="yes"/>
      <point x="585" y="78"/>
      <point x="295" y="246"/>
      <point x="126" y="538"/>
      <point x="126" y="707" type="qcurve" smooth="yes"/>
      <point x="126" y="874"/>
      <point x="294" y="1166"/>
      <point x="586" y="1335"/>
      <point x="754" y="1335" type="qcurve" smooth="yes"/>
      <point x="924" y="1335"/>
      <point x="1217" y="1165"/>
      <point x="1385" y="876"/>
    </contour>
    <contour>
      <point x="498" y="709" type="qcurve" smooth="yes"/>
      <point x="498" y="867"/>
      <point x="633" y="1028"/>
      <point x="760" y="1028" type="qcurve" smooth="yes"/>
      <point x="836" y="1028"/>
      <point x="952" y="960"/>
      <point x="984" y="891" type="qcurve"/>
      <point x="1098" y="924" type="line"/>
      <point x="1002" y="1133"/>
      <point x="758" y="1133" type="qcurve" smooth="yes"/>
      <point x="569" y="1133"/>
      <point x="369" y="912"/>
      <point x="369" y="709" type="qcurve" smooth="yes"/>
      <point x="369" y="505"/>
      <point x="577" y="279"/>
      <point x="765" y="279" type="qcurve" smooth="yes"/>
      <point x="882" y="279"/>
      <point x="1051" y="383"/>
      <point x="1113" y="504" type="qcurve"/>
      <point x="998" y="539" type="line"/>
      <point x="923" y="383"/>
      <point x="765" y="383" type="qcurve" smooth="yes"/>
      <point x="640" y="383"/>
      <point x="498" y="554"/>
    </contour>
  </outline>
</glyph>
<glyph name="ordfeminine" format="2">
  <advance width="758"/>
  <unicode hex="00AA"/>
  <note>
ordfeminine
</note>
  <outline>
    <contour>
      <point x="260" y="651" type="qcurve" smooth="yes"/>
      <point x="447" y="651"/>
      <point x="520" y="798" type="qcurve"/>
      <point x="524" y="798" type="line"/>
      <point x="528" y="733"/>
      <point x="609" y="657"/>
      <point x="682" y="657" type="qcurve" smooth="yes"/>
      <point x="716" y="657"/>
      <point x="765" y="670" type="qcurve"/>
      <point x="765" y="774" type="line"/>
      <point x="741" y="766"/>
      <point x="722" y="766" type="qcurve" smooth="yes"/>
      <point x="687" y="766"/>
      <point x="659" y="816"/>
      <point x="659" y="874" type="qcurve" smooth="yes"/>
      <point x="659" y="1182" type="line" smooth="yes"/>
      <point x="659" y="1307"/>
      <point x="508" y="1432"/>
      <point x="363" y="1432" type="qcurve" smooth="yes"/>
      <point x="234" y="1432"/>
      <point x="75" y="1312"/>
      <point x="59" y="1206" type="qcurve"/>
      <point x="208" y="1196" type="line"/>
      <point x="217" y="1272"/>
      <point x="298" y="1331"/>
      <point x="365" y="1331" type="qcurve" smooth="yes"/>
      <point x="446" y="1331"/>
      <point x="516" y="1257"/>
      <point x="516" y="1176" type="qcurve" smooth="yes"/>
      <point x="516" y="1116" type="line"/>
      <point x="338" y="1112" type="line" smooth="yes"/>
      <point x="183" y="1110"/>
      <point x="26" y="986"/>
      <point x="26" y="870" type="qcurve" smooth="yes"/>
      <point x="26" y="767"/>
      <point x="152" y="651"/>
    </contour>
    <contour>
      <point x="299" y="762" type="qcurve" smooth="yes"/>
      <point x="176" y="762"/>
      <point x="176" y="883" type="qcurve" smooth="yes"/>
      <point x="176" y="948"/>
      <point x="260" y="1014"/>
      <point x="378" y="1020" type="qcurve" smooth="yes"/>
      <point x="516" y="1024" type="line"/>
      <point x="516" y="959" type="line" smooth="yes"/>
      <point x="516" y="880"/>
      <point x="389" y="762"/>
    </contour>
  </outline>
</glyph>
<glyph name="registered" format="2">
  <advance width="1509"/>
  <unicode hex="00AE"/>
  <note>
registered
</note>
  <outline>
    <contour>
      <point x="1477" y="707" type="qcurve" smooth="yes"/>
      <point x="1477" y="901"/>
      <point x="1285" y="1235"/>
      <point x="948" y="1430"/>
      <point x="754" y="1430" type="qcurve" smooth="yes"/>
      <point x="561" y="1430"/>
      <point x="225" y="1236"/>
      <point x="31" y="900"/>
      <point x="31" y="707" type="qcurve" smooth="yes"/>
      <point x="31" y="518"/>
      <point x="218" y="185"/>
      <point x="557" y="-16"/>
      <point x="754" y="-16" type="qcurve" smooth="yes"/>
      <point x="947" y="-16"/>
      <point x="1284" y="177"/>
      <point x="1477" y="514"/>
    </contour>
    <contour>
      <point x="1385" y="707" type="qcurve" smooth="yes"/>
      <point x="1385" y="538"/>
      <point x="1217" y="246"/>
      <point x="923" y="78"/>
      <point x="754" y="78" type="qcurve" smooth="yes"/>
      <point x="585" y="78"/>
      <point x="295" y="246"/>
      <point x="126" y="538"/>
      <point x="126" y="707" type="qcurve" smooth="yes"/>
      <point x="126" y="874"/>
      <point x="294" y="1166"/>
      <point x="586" y="1335"/>
      <point x="754" y="1335" type="qcurve" smooth="yes"/>
      <point x="924" y="1335"/>
      <point x="1217" y="1165"/>
      <point x="1385" y="876"/>
    </contour>
    <contour>
      <point x="955" y="289" type="line"/>
      <point x="1100" y="289" type="line"/>
      <point x="879" y="639" type="line"/>
      <point x="964" y="658"/>
      <point x="1068" y="781"/>
      <point x="1068" y="883" type="qcurve" smooth="yes"/>
      <point x="1068" y="994"/>
      <point x="917" y="1120"/>
      <point x="775" y="1120" type="qcurve" smooth="yes"/>
      <point x="468" y="1120" type="line"/>
      <point x="468" y="289" type="line"/>
      <point x="595" y="289" type="line"/>
      <point x="595" y="625" type="line"/>
      <point x="756" y="625" type="line"/>
    </contour>
    <contour>
      <point x="941" y="881" type="qcurve" smooth="yes"/>
      <point x="941" y="806"/>
      <point x="857" y="721"/>
      <point x="777" y="721" type="qcurve" smooth="yes"/>
      <point x="595" y="721" type="line"/>
      <point x="595" y="1022" type="line"/>
      <point x="765" y="1022" type="line" smooth="yes"/>
      <point x="846" y="1022"/>
      <point x="941" y="950"/>
    </contour>
  </outline>
</glyph>
<glyph name="degree" format="2">
  <advance width="819"/>
  <unicode hex="00B0"/>
  <note>
degree
</note>
  <outline>
    <contour>
      <point x="696" y="1145" type="curve"/>
      <point x="696" y="1145" type="line"/>
      <point x="696" y="1303.667"/>
      <point x="569" y="1430"/>
      <point x="409" y="1430" type="curve" smooth="yes"/>
      <point x="249" y="1430"/>
      <point x="122" y="1301"/>
      <point x="122" y="1145" type="curve" smooth="yes"/>
      <point x="122" y="989"/>
      <point x="251.667" y="860"/>
      <point x="409" y="860" type="curve" smooth="yes"/>
      <point x="566.333" y="860"/>
      <point x="696" y="986.333"/>
    </contour>
    <contour>
      <point x="587" y="1145" type="curve"/>
      <point x="587" y="1145" type="line"/>
      <point x="587" y="1045"/>
      <point x="507.667" y="965"/>
      <point x="409" y="965" type="curve" smooth="yes"/>
      <point x="311.667" y="965"/>
      <point x="231" y="1046.333"/>
      <point x="231" y="1145" type="curve" smooth="yes"/>
      <point x="231" y="1243.667"/>
      <point x="309" y="1325"/>
      <point x="409" y="1325" type="curve" smooth="yes"/>
      <point x="509" y="1325"/>
      <point x="587" y="1246.333"/>
    </contour>
  </outline>
</glyph>
<glyph name="twosuperior" format="2">
  <advance width="682"/>
  <unicode hex="00B2"/>
  <note>
twosuperior
</note>
  <outline>
    <contour>
      <point x="43" y="563" type="line"/>
      <point x="643" y="563" type="line"/>
      <point x="643" y="676" type="line"/>
      <point x="200" y="676" type="line"/>
      <point x="220" y="721"/>
      <point x="320" y="813"/>
      <point x="442" y="903" type="qcurve" smooth="yes"/>
      <point x="630" y="1041"/>
      <point x="630" y="1188" type="qcurve" smooth="yes"/>
      <point x="630" y="1298"/>
      <point x="481" y="1421"/>
      <point x="354" y="1421" type="qcurve" smooth="yes"/>
      <point x="225" y="1421"/>
      <point x="64" y="1289"/>
      <point x="51" y="1182" type="qcurve"/>
      <point x="184" y="1174" type="line"/>
      <point x="192" y="1242"/>
      <point x="280" y="1315"/>
      <point x="348" y="1315" type="qcurve" smooth="yes"/>
      <point x="422" y="1315"/>
      <point x="493" y="1240"/>
      <point x="493" y="1178" type="qcurve" smooth="yes"/>
      <point x="493" y="1120"/>
      <point x="405" y="1008"/>
      <point x="308" y="940" type="qcurve" smooth="yes"/>
      <point x="201" y="866"/>
      <point x="72" y="735"/>
      <point x="41" y="666" type="qcurve"/>
    </contour>
  </outline>
</glyph>
<glyph name="threesuperior" format="2">
  <advance width="682"/>
  <unicode hex="00B3"/>
  <note>
threesuperior
</note>
  <outline>
    <contour>
      <point x="642" y="795" type="curve"/>
      <point x="642" y="795" type="line"/>
      <point x="642" y="912.333"/>
      <point x="566.333" y="985"/>
      <point x="445" y="997" type="curve"/>
      <point x="445" y="999" type="line"/>
      <point x="565" y="1025.667"/>
      <point x="621" y="1104"/>
      <point x="621" y="1204" type="curve" smooth="yes"/>
      <point x="621" y="1334.667"/>
      <point x="516.333" y="1421"/>
      <point x="343" y="1421" type="curve" smooth="yes"/>
      <point x="173.667" y="1421"/>
      <point x="63.333" y="1337.333"/>
      <point x="46" y="1192" type="curve"/>
      <point x="181" y="1180" type="line"/>
      <point x="189" y="1266.667"/>
      <point x="248.333" y="1315"/>
      <point x="339" y="1315" type="curve" smooth="yes"/>
      <point x="433.667" y="1315"/>
      <point x="484" y="1266"/>
      <point x="484" y="1186" type="curve" smooth="yes"/>
      <point x="484" y="1099.333"/>
      <point x="418.667" y="1049"/>
      <point x="312" y="1049" type="curve" smooth="yes"/>
      <point x="255" y="1049" type="line"/>
      <point x="255" y="940" type="line"/>
      <point x="316" y="940" type="line" smooth="yes"/>
      <point x="442" y="940"/>
      <point x="505" y="894.333"/>
      <point x="505" y="803" type="curve" smooth="yes"/>
      <point x="505" y="704.333"/>
      <point x="451.667" y="655"/>
      <point x="345" y="655" type="curve" smooth="yes"/>
      <point x="235.667" y="655"/>
      <point x="175" y="700.333"/>
      <point x="163" y="791" type="curve"/>
      <point x="27" y="778" type="line"/>
      <point x="48.333" y="626.667"/>
      <point x="154.333" y="551"/>
      <point x="345" y="551" type="curve" smooth="yes"/>
      <point x="534.333" y="551"/>
      <point x="642" y="640.333"/>
    </contour>
  </outline>
</glyph>
<glyph name="mu1" format="2">
  <advance width="1180"/>
  <unicode hex="00B5"/>
  <note>
mu1
</note>
  <outline>
    <contour>
      <point x="140" y="-425" type="line"/>
      <point x="140" y="-425" type="line"/>
      <point x="320" y="-425" type="line"/>
      <point x="320" y="59" type="line"/>
      <point x="361.333" y="8.333"/>
      <point x="437.667" y="-20"/>
      <point x="527" y="-20" type="curve" smooth="yes"/>
      <point x="655.667" y="-20"/>
      <point x="755.333" y="44.667"/>
      <point x="826" y="174" type="curve"/>
      <point x="829" y="174" type="line"/>
      <point x="835.667" y="40.667"/>
      <point x="898.667" y="-20"/>
      <point x="1020" y="-20" type="curve" smooth="yes"/>
      <point x="1052" y="-20"/>
      <point x="1089.667" y="-13.333"/>
      <point x="1133" y="0" type="curve"/>
      <point x="1133" y="129" type="line"/>
      <point x="1113.667" y="123.667"/>
      <point x="1095.667" y="121"/>
      <point x="1079" y="121" type="curve" smooth="yes"/>
      <point x="1023" y="121"/>
      <point x="1001" y="164.667"/>
      <point x="1001" y="266" type="curve" smooth="yes"/>
      <point x="1001" y="1082" type="line"/>
      <point x="821" y="1082" type="line"/>
      <point x="821" y="455" type="line" smooth="yes"/>
      <point x="821" y="239"/>
      <point x="717.667" y="119"/>
      <point x="547" y="119" type="curve" smooth="yes"/>
      <point x="388.333" y="119"/>
      <point x="321" y="212"/>
      <point x="321" y="396" type="curve" smooth="yes"/>
      <point x="321" y="1082" type="line"/>
      <point x="140" y="1082" type="line"/>
    </contour>
  </outline>
</glyph>
<glyph name="paragraph" format="2">
  <advance width="1100"/>
  <unicode hex="00B6"/>
  <note>
paragraph
</note>
  <outline>
    <contour>
      <point x="884" y="1307" type="line"/>
      <point x="1013" y="1307" type="line"/>
      <point x="1013" y="1409" type="line"/>
      <point x="450" y="1409" type="line" smooth="yes"/>
      <point x="277" y="1409"/>
      <point x="80" y="1218"/>
      <point x="80" y="1049" type="qcurve" smooth="yes"/>
      <point x="80" y="879"/>
      <point x="274" y="694"/>
      <point x="442" y="694" type="qcurve"/>
      <point x="442" y="-264" type="line"/>
      <point x="555" y="-264" type="line"/>
      <point x="555" y="1307" type="line"/>
      <point x="772" y="1307" type="line"/>
      <point x="772" y="-264" type="line"/>
      <point x="884" y="-264" type="line"/>
    </contour>
  </outline>
</glyph>
<glyph name="cedilla" format="2">
  <advance width="682"/>
  <unicode hex="00B8"/>
  <note>
cedilla
</note>
  <outline>
    <contour>
      <point x="483" y="-253" type="curve" smooth="yes"/>
      <point x="483.0" y="-161.0"/>
      <point x="420.333" y="-104"/>
      <point x="295" y="-100" type="curve"/>
      <point x="334" y="0" type="line"/>
      <point x="227" y="0" type="line"/>
      <point x="162" y="-182" type="line"/>
      <point x="171.333" y="-180.667"/>
      <point x="190.333" y="-180"/>
      <point x="219" y="-180" type="curve" smooth="yes"/>
      <point x="307.667" y="-180"/>
      <point x="352" y="-205.667"/>
      <point x="352" y="-257" type="curve" smooth="yes"/>
      <point x="352" y="-311"/>
      <point x="303" y="-338"/>
      <point x="205" y="-338" type="curve" smooth="yes"/>
      <point x="180.333" y="-338"/>
      <point x="151.667" y="-336"/>
      <point x="119" y="-332" type="curve"/>
      <point x="119" y="-430" type="line"/>
      <point x="141" y="-432.667"/>
      <point x="171" y="-434"/>
      <point x="209" y="-434" type="curve" smooth="yes"/>
      <point x="391.667" y="-434"/>
      <point x="483" y="-374"/>
    </contour>
  </outline>
</glyph>
<glyph name="ordmasculine" format="2">
  <advance width="748"/>
  <unicode hex="00BA"/>
  <note>
ordmasculine
</note>
  <outline>
    <contour>
      <point x="723" y="1042" type="qcurve" smooth="yes"/>
      <point x="723" y="1432"/>
      <point x="376" y="1432" type="qcurve" smooth="yes"/>
      <point x="205" y="1432"/>
      <point x="27" y="1231"/>
      <point x="27" y="1042" type="qcurve" smooth="yes"/>
      <point x="27" y="852"/>
      <point x="204" y="651"/>
      <point x="372" y="651" type="qcurve" smooth="yes"/>
      <point x="547" y="651"/>
      <point x="723" y="854"/>
    </contour>
    <contour>
      <point x="574" y="1042" type="qcurve" smooth="yes"/>
      <point x="574" y="894"/>
      <point x="482" y="756"/>
      <point x="371" y="756" type="qcurve" smooth="yes"/>
      <point x="270" y="756"/>
      <point x="179" y="897"/>
      <point x="179" y="1042" type="qcurve" smooth="yes"/>
      <point x="179" y="1192"/>
      <point x="271" y="1327"/>
      <point x="379" y="1327" type="qcurve" smooth="yes"/>
      <point x="483" y="1327"/>
      <point x="574" y="1196"/>
    </contour>
  </outline>
</glyph>
<glyph name="questiondown" format="2">
  <advance width="1251"/>
  <unicode hex="00BF"/>
  <note>
questiondown
</note>
  <outline>
    <contour>
      <point x="131" y="50" type="curve" smooth="yes"/>
      <point x="131" y="-199.0"/>
      <point x="312.667" y="-348"/>
      <point x="610" y="-348" type="curve" smooth="yes"/>
      <point x="895.333" y="-348"/>
      <point x="1075.333" y="-202"/>
      <point x="1110" y="62" type="curve"/>
      <point x="926" y="74" type="line"/>
      <point x="907.333" y="-88.667"/>
      <point x="794.667" y="-188"/>
      <point x="608" y="-188" type="curve" smooth="yes"/>
      <point x="421.333" y="-188"/>
      <point x="313" y="-94"/>
      <point x="313" y="58" type="curve" smooth="yes"/>
      <point x="313" y="211.99"/>
      <point x="412.978" y="279.259"/>
      <point x="527" y="360.5" type="curve" smooth="yes"/>
      <point x="633.6659999999999" y="436.5"/>
      <point x="742.6659999999999" y="521.0"/>
      <point x="748" y="705" type="curve"/>
      <point x="573" y="705" type="line"/>
      <point x="571.667" y="614.333"/>
      <point x="525.667" y="539.333"/>
      <point x="431" y="470" type="curve" smooth="yes"/>
      <point x="350" y="411" type="line" smooth="yes"/>
      <point x="191" y="295"/>
      <point x="131.0" y="200.69915954517313"/>
    </contour>
    <contour>
      <point x="756" y="1082" type="line"/>
      <point x="756" y="1082" type="line"/>
      <point x="561" y="1082" type="line"/>
      <point x="561" y="881" type="line"/>
      <point x="756" y="881" type="line"/>
    </contour>
  </outline>
</glyph>
<glyph name="AE" format="2">
  <advance width="2048"/>
  <unicode hex="00C6"/>
  <note>
AE
</note>
  <anchor x="1300" y="1540" name="top"/>
  <anchor x="1880" y="1540" name="caronalt"/>
  <anchor x="1060" y="-130" name="bottom"/>
  <anchor x="2048" y="1840" name="topdouble"/>
  <anchor x="2048" y="-380" name="bottomdouble"/>
  <anchor x="2048" y="1840" name="tophalfright"/>
  <anchor x="0" y="1840" name="tophalfleft"/>
  <anchor x="1780" y="0" name="ogonek"/>
  <outline>
    <contour>
      <point x="421" y="412" type="line"/>
      <point x="969" y="412" type="line"/>
      <point x="969" y="0" type="line"/>
      <point x="1960" y="0" type="line"/>
      <point x="1960" y="156" type="line"/>
      <point x="1160" y="156" type="line"/>
      <point x="1160" y="647" type="line"/>
      <point x="1859" y="647" type="line"/>
      <point x="1859" y="801" type="line"/>
      <point x="1160" y="801" type="line"/>
      <point x="1160" y="1253" type="line"/>
      <point x="1919" y="1253" type="line"/>
      <point x="1919" y="1409" type="line"/>
      <point x="710" y="1409" type="line"/>
      <point x="24" y="0" type="line"/>
      <point x="223" y="0" type="line"/>
    </contour>
    <contour>
      <point x="491" y="561" type="line"/>
      <point x="818" y="1262" type="line"/>
      <point x="969" y="1262" type="line"/>
      <point x="969" y="561" type="line"/>
    </contour>
  </outline>
</glyph>
<glyph name="Eth" format="2">
  <advance width="1479"/>
  <unicode hex="00D0"/>
  <note>
Eth
</note>
  <outline>
    <contour>
      <point x="14" y="801" type="line"/>
      <point x="14" y="647" type="line"/>
      <point x="168" y="647" type="line"/>
      <point x="168" y="0" type="line"/>
      <point x="695" y="0" type="line" smooth="yes"/>
      <point x="899" y="0"/>
      <point x="1211" y="174"/>
      <point x="1381" y="501"/>
      <point x="1381" y="719" type="qcurve" smooth="yes"/>
      <point x="1381" y="1050"/>
      <point x="992" y="1409"/>
      <point x="634" y="1409" type="qcurve" smooth="yes"/>
      <point x="168" y="1409" type="line"/>
      <point x="168" y="801" type="line"/>
    </contour>
    <contour>
      <point x="1189" y="719" type="qcurve" smooth="yes"/>
      <point x="1189" y="545"/>
      <point x="1063" y="289"/>
      <point x="828" y="153"/>
      <point x="673" y="153" type="qcurve" smooth="yes"/>
      <point x="359" y="153" type="line"/>
      <point x="359" y="647" type="line"/>
      <point x="765" y="647" type="line"/>
      <point x="765" y="801" type="line"/>
      <point x="359" y="801" type="line"/>
      <point x="359" y="1256" type="line"/>
      <point x="630" y="1256" type="line" smooth="yes"/>
      <point x="902" y="1256"/>
      <point x="1189" y="981"/>
    </contour>
  </outline>
</glyph>
<glyph name="Oslash" format="2">
  <advance width="1593"/>
  <unicode hex="00D8"/>
  <note>
Oslash
</note>
  <outline>
    <contour>
      <point x="1495" y="711" type="curve"/>
      <point x="1495" y="711" type="line"/>
      <point x="1495" y="926.333"/>
      <point x="1437.667" y="1097.333"/>
      <point x="1323" y="1224" type="curve"/>
      <point x="1524" y="1466" type="line"/>
      <point x="1332" y="1466" type="line"/>
      <point x="1211" y="1320" type="line"/>
      <point x="1099.667" y="1393.333"/>
      <point x="961.667" y="1430"/>
      <point x="797" y="1430" type="curve" smooth="yes"/>
      <point x="357" y="1430"/>
      <point x="97" y="1161.667"/>
      <point x="97" y="711" type="curve" smooth="yes"/>
      <point x="97" y="490.333"/>
      <point x="155" y="316"/>
      <point x="271" y="188" type="curve"/>
      <point x="71" y="-53" type="line"/>
      <point x="261" y="-53" type="line"/>
      <point x="381" y="92" type="line"/>
      <point x="493" y="17.333"/>
      <point x="631" y="-20"/>
      <point x="795" y="-20" type="curve" smooth="yes"/>
      <point x="1081.667" y="-20"/>
      <point x="1297.833" y="102.667"/>
      <point x="1410.5" y="324" type="curve" smooth="yes"/>
      <point x="1466.833" y="434.667"/>
      <point x="1495" y="563.667"/>
    </contour>
    <contour>
      <point x="1300" y="711" type="curve"/>
      <point x="1300" y="711" type="line"/>
      <point x="1300" y="344.333"/>
      <point x="1120.333" y="135"/>
      <point x="795" y="135" type="curve" smooth="yes"/>
      <point x="675" y="135"/>
      <point x="574.333" y="165.333"/>
      <point x="493" y="226" type="curve"/>
      <point x="1202" y="1079" type="line"/>
      <point x="1267.333" y="983"/>
      <point x="1300" y="860.333"/>
    </contour>
    <contour>
      <point x="291" y="711" type="curve"/>
      <point x="291" y="711" type="line"/>
      <point x="291" y="1067"/>
      <point x="474.333" y="1274"/>
      <point x="797" y="1274" type="curve" smooth="yes"/>
      <point x="915.667" y="1274"/>
      <point x="1016.333" y="1244.667"/>
      <point x="1099" y="1186" type="curve"/>
      <point x="392" y="333" type="line"/>
      <point x="324.667" y="432.333"/>
      <point x="291" y="558.333"/>
    </contour>
  </outline>
</glyph>
<glyph name="Thorn" format="2">
  <advance width="1366"/>
  <unicode hex="00DE"/>
  <note>
Thorn
</note>
  <outline>
    <contour>
      <point x="1258" y="735" type="curve"/>
      <point x="1258" y="735" type="line"/>
      <point x="1258" y="1001.667"/>
      <point x="1079.667" y="1157"/>
      <point x="761" y="1157" type="curve" smooth="yes"/>
      <point x="359" y="1157" type="line"/>
      <point x="359" y="1409" type="line"/>
      <point x="168" y="1409" type="line"/>
      <point x="168" y="0" type="line"/>
      <point x="359" y="0" type="line"/>
      <point x="359" y="297" type="line"/>
      <point x="773" y="297" type="line" smooth="yes"/>
      <point x="973" y="297"/>
      <point x="1122.667" y="374.833"/>
      <point x="1200" y="507.5" type="curve" smooth="yes"/>
      <point x="1238.667" y="573.833"/>
      <point x="1258" y="649.667"/>
    </contour>
    <contour>
      <point x="1066" y="731" type="curve"/>
      <point x="1066" y="731" type="line"/>
      <point x="1066" y="547"/>
      <point x="950" y="438"/>
      <point x="746" y="438" type="curve" smooth="yes"/>
      <point x="359" y="438" type="line"/>
      <point x="359" y="1014" type="line"/>
      <point x="738" y="1014" type="line" smooth="yes"/>
      <point x="956.667" y="1014"/>
      <point x="1066" y="909.667"/>
    </contour>
  </outline>
</glyph>
<glyph name="germandbls" format="2">
  <advance width="1251"/>
  <unicode hex="00DF"/>
  <note>
germandbls
</note>
  <outline>
    <contour>
      <point x="1167" y="295" type="curve" smooth="yes"/>
      <point x="1167.0" y="419.0"/>
      <point x="1105.667" y="522.333"/>
      <point x="983" y="605" type="curve" smooth="yes"/>
      <point x="887.0442294613597" y="668.9710134620651"/>
      <point x="798.0" y="720"/>
      <point x="798" y="791" type="curve" smooth="yes"/>
      <point x="798" y="829"/>
      <point x="803.4092939459573" y="842.9432682591747"/>
      <point x="911" y="941" type="curve" smooth="yes"/>
      <point x="986.333" y="1009.667"/>
      <point x="1024" y="1091.667"/>
      <point x="1024" y="1187" type="curve" smooth="yes"/>
      <point x="1024" y="1368.333"/>
      <point x="862.333" y="1484"/>
      <point x="609" y="1484" type="curve" smooth="yes"/>
      <point x="299.667" y="1484"/>
      <point x="142" y="1329.667"/>
      <point x="142" y="1027" type="curve" smooth="yes"/>
      <point x="142" y="0" type="line"/>
      <point x="322" y="0" type="line"/>
      <point x="322" y="1021" type="line" smooth="yes"/>
      <point x="322" y="1237"/>
      <point x="411.667" y="1343"/>
      <point x="609" y="1343" type="curve" smooth="yes"/>
      <point x="754.333" y="1343"/>
      <point x="852" y="1275.667"/>
      <point x="852" y="1173" type="curve" smooth="yes"/>
      <point x="852" y="1106.333"/>
      <point x="818.333" y="1055"/>
      <point x="741" y="991" type="curve" smooth="yes"/>
      <point x="669" y="931"/>
      <point x="630" y="866.333"/>
      <point x="630" y="785" type="curve" smooth="yes"/>
      <point x="630" y="670.333"/>
      <point x="690.333" y="585"/>
      <point x="813" y="513" type="curve" smooth="yes"/>
      <point x="942.333" y="435.667"/>
      <point x="995" y="374.333"/>
      <point x="995" y="289" type="curve" smooth="yes"/>
      <point x="995" y="183.667"/>
      <point x="927.667" y="124"/>
      <point x="805" y="124" type="curve" smooth="yes"/>
      <point x="713" y="124"/>
      <point x="593.333" y="154.333"/>
      <point x="524" y="193" type="curve"/>
      <point x="526" y="29" type="line"/>
      <point x="600.667" y="-3.667"/>
      <point x="695" y="-20"/>
      <point x="809" y="-20" type="curve" smooth="yes"/>
      <point x="1035.667" y="-20"/>
      <point x="1167" y="95"/>
    </contour>
  </outline>
</glyph>
<glyph name="ae" format="2">
  <advance width="1821"/>
  <unicode hex="00E6"/>
  <note>
ae
</note>
  <outline>
    <contour>
      <point x="968" y="503" type="line"/>
      <point x="968" y="503" type="line"/>
      <point x="1730" y="503" type="line"/>
      <point x="1730" y="527" type="line" smooth="yes"/>
      <point x="1730" y="910.333"/>
      <point x="1571" y="1102"/>
      <point x="1253" y="1102" type="curve" smooth="yes"/>
      <point x="1101" y="1102"/>
      <point x="985.667" y="1055.667"/>
      <point x="907" y="963" type="curve"/>
      <point x="841" y="1055.667"/>
      <point x="724.667" y="1102"/>
      <point x="558" y="1102" type="curve" smooth="yes"/>
      <point x="292.667" y="1102"/>
      <point x="144.667" y="1004.667"/>
      <point x="114" y="810" type="curve"/>
      <point x="302" y="793" type="line"/>
      <point x="319.333" y="915.667"/>
      <point x="386" y="965"/>
      <point x="554" y="965" type="curve" smooth="yes"/>
      <point x="715.333" y="965"/>
      <point x="786" y="899"/>
      <point x="786" y="719" type="curve" smooth="yes"/>
      <point x="786" y="660" type="line"/>
      <point x="546" y="656" type="line" smooth="yes"/>
      <point x="223.333" y="650.667"/>
      <point x="66" y="534"/>
      <point x="66" y="302" type="curve" smooth="yes"/>
      <point x="66" y="102"/>
      <point x="179.333" y="-20"/>
      <point x="402" y="-20" type="curve" smooth="yes"/>
      <point x="596.667" y="-20"/>
      <point x="731.667" y="50.333"/>
      <point x="837" y="237" type="curve"/>
      <point x="905" y="65.667"/>
      <point x="1046" y="-20"/>
      <point x="1260" y="-20" type="curve" smooth="yes"/>
      <point x="1489.333" y="-20"/>
      <point x="1636.333" y="65.333"/>
      <point x="1701" y="236" type="curve"/>
      <point x="1543" y="281" type="line"/>
      <point x="1509.667" y="185"/>
      <point x="1416" y="115"/>
      <point x="1260" y="115" type="curve" smooth="yes"/>
      <point x="1073.333" y="115"/>
      <point x="970.667" y="244.667"/>
      <point x="968" y="486" type="curve" smooth="yes"/>
    </contour>
    <contour>
      <point x="786" y="534" type="line"/>
      <point x="786" y="534" type="line"/>
      <point x="786" y="445" type="line" smooth="yes"/>
      <point x="786" y="330.333"/>
      <point x="724.5" y="218.833"/>
      <point x="622.5" y="159.5" type="curve" smooth="yes"/>
      <point x="571.5" y="129.833"/>
      <point x="512" y="115"/>
      <point x="444" y="115" type="curve" smooth="yes"/>
      <point x="320" y="115"/>
      <point x="251" y="183"/>
      <point x="251" y="299" type="curve" smooth="yes"/>
      <point x="251" y="397.667"/>
      <point x="293.5" y="465.167"/>
      <point x="387.5" y="500.5" type="curve" smooth="yes"/>
      <point x="434.5" y="518.167"/>
      <point x="502.333" y="528"/>
      <point x="591" y="530" type="curve" smooth="yes"/>
    </contour>
    <contour>
      <point x="1544" y="641" type="curve"/>
      <point x="1544" y="641" type="line"/>
      <point x="970" y="641" type="line"/>
      <point x="978" y="850.333"/>
      <point x="1080.667" y="969"/>
      <point x="1250" y="969" type="curve" smooth="yes"/>
      <point x="1430" y="969"/>
      <point x="1524" y="869"/>
    </contour>
  </outline>
</glyph>
<glyph name="eth" format="2">
  <advance width="1139"/>
  <unicode hex="00F0"/>
  <note>
eth
</note>
  <anchor x="500" y="1580" name="gpos_18_mark_to_base__MARKCLASS_0_lookup_18"/>
  <anchor x="1040" y="1260" name="gpos_18_mark_to_base__MARKCLASS_1_lookup_18"/>
  <anchor x="600" y="-130" name="gpos_18_mark_to_base__MARKCLASS_2_lookup_18"/>
  <anchor x="1139" y="1540" name="gpos_22_mark_to_base__MARKCLASS_0_lookup_22"/>
  <anchor x="1139" y="-380" name="gpos_22_mark_to_base__MARKCLASS_1_lookup_22"/>
  <anchor x="1139" y="1840" name="gpos_23_mark_to_base__MARKCLASS_0_lookup_23"/>
  <anchor x="0" y="1840" name="gpos_23_mark_to_base__MARKCLASS_1_lookup_23"/>
  <anchor x="680" y="0" name="gpos_24_mark_to_base__MARKCLASS_0_lookup_24"/>
  <outline>
    <contour>
      <point x="566" y="-20" type="curve" smooth="yes"/>
      <point x="897" y="-20"/>
      <point x="1063" y="162"/>
      <point x="1063" y="516" type="curve" smooth="yes"/>
      <point x="1063" y="825"/>
      <point x="946" y="1102"/>
      <point x="718" y="1310" type="curve"/>
      <point x="929" y="1402" type="line"/>
      <point x="930" y="1514" type="line"/>
      <point x="624" y="1382" type="line"/>
      <point x="564" y="1426"/>
      <point x="507" y="1460"/>
      <point x="454" y="1484" type="curve"/>
      <point x="245" y="1484" type="line"/>
      <point x="334" y="1437"/>
      <point x="414" y="1384"/>
      <point x="487" y="1326" type="curve"/>
      <point x="269" y="1232" type="line"/>
      <point x="269" y="1118" type="line"/>
      <point x="570" y="1251" type="line"/>
      <point x="653" y="1175"/>
      <point x="731" y="1065"/>
      <point x="804" y="920" type="curve"/>
      <point x="741" y="959"/>
      <point x="664" y="979"/>
      <point x="573" y="979" type="curve" smooth="yes"/>
      <point x="254" y="979"/>
      <point x="86" y="806"/>
      <point x="86" y="481" type="curve" smooth="yes"/>
      <point x="86" y="157"/>
      <point x="257" y="-20"/>
    </contour>
    <contour>
      <point x="874" y="481" type="curve" smooth="yes"/>
      <point x="874" y="224"/>
      <point x="779" y="113"/>
      <point x="564" y="113" type="curve" smooth="yes"/>
      <point x="371" y="113"/>
      <point x="275" y="228"/>
      <point x="275" y="481" type="curve" smooth="yes"/>
      <point x="275" y="736"/>
      <point x="368" y="846"/>
      <point x="577" y="846" type="curve" smooth="yes"/>
      <point x="785" y="846"/>
      <point x="874" y="737"/>
    </contour>
  </outline>
</glyph>
<glyph name="oslash" format="2">
  <advance width="1251"/>
  <unicode hex="00F8"/>
  <note>
oslash
</note>
  <outline>
    <contour>
      <point x="1112" y="542" type="curve" smooth="yes"/>
      <point x="1112.0" y="702.0"/>
      <point x="1085" y="826.333"/>
      <point x="1031" y="915" type="curve"/>
      <point x="1204" y="1116" type="line"/>
      <point x="1037" y="1116" type="line"/>
      <point x="946" y="1011" type="line"/>
      <point x="869.333" y="1071.667"/>
      <point x="764" y="1102"/>
      <point x="630" y="1102" type="curve" smooth="yes"/>
      <point x="306.667" y="1102"/>
      <point x="145" y="915.333"/>
      <point x="145" y="542" type="curve" smooth="yes"/>
      <point x="145" y="390"/>
      <point x="172.667" y="268"/>
      <point x="228" y="176" type="curve"/>
      <point x="44" y="-38" type="line"/>
      <point x="211" y="-38" type="line"/>
      <point x="311" y="78" type="line"/>
      <point x="389.667" y="12.667"/>
      <point x="494" y="-20"/>
      <point x="624" y="-20" type="curve" smooth="yes"/>
      <point x="941.333" y="-20"/>
      <point x="1112" y="163"/>
    </contour>
    <contour>
      <point x="923" y="542" type="curve" smooth="yes"/>
      <point x="923.0" y="247.0"/>
      <point x="838" y="113"/>
      <point x="622" y="113" type="curve" smooth="yes"/>
      <point x="530.667" y="113"/>
      <point x="462.333" y="142.333"/>
      <point x="417" y="201" type="curve"/>
      <point x="900" y="763" type="line"/>
      <point x="915.333" y="701.667"/>
      <point x="923" y="628"/>
    </contour>
    <contour>
      <point x="334" y="542" type="curve" smooth="yes"/>
      <point x="334.0" y="835.0"/>
      <point x="422.333" y="969"/>
      <point x="633" y="969" type="curve" smooth="yes"/>
      <point x="726.333" y="969"/>
      <point x="795.333" y="942"/>
      <point x="840" y="888" type="curve"/>
      <point x="358" y="327" type="line"/>
      <point x="342" y="383.667"/>
      <point x="334" y="455"/>
    </contour>
  </outline>
</glyph>
<glyph name="thorn" format="2">
  <advance width="1139"/>
  <unicode hex="00FE"/>
  <note>
thorn
</note>
  <outline>
    <contour>
      <point x="138" y="1484" type="line"/>
      <point x="138" y="1484" type="line"/>
      <point x="138" y="-425" type="line"/>
      <point x="318" y="-425" type="line"/>
      <point x="318" y="-2" type="line" smooth="yes"/>
      <point x="318" y="106"/>
      <point x="316.667" y="162.667"/>
      <point x="314" y="168" type="curve"/>
      <point x="319" y="168" type="line"/>
      <point x="376.333" y="42.667"/>
      <point x="488.333" y="-20"/>
      <point x="655" y="-20" type="curve" smooth="yes"/>
      <point x="920.333" y="-20"/>
      <point x="1053" y="168.667"/>
      <point x="1053" y="546" type="curve" smooth="yes"/>
      <point x="1053" y="928.667"/>
      <point x="921.667" y="1101"/>
      <point x="655" y="1101" type="curve" smooth="yes"/>
      <point x="483" y="1101"/>
      <point x="384" y="1041.333"/>
      <point x="320" y="908" type="curve"/>
      <point x="314" y="908" type="line"/>
      <point x="316.667" y="966.667"/>
      <point x="318" y="1017.667"/>
      <point x="318" y="1061" type="curve" smooth="yes"/>
      <point x="318" y="1484" type="line"/>
    </contour>
    <contour>
      <point x="864" y="542" type="curve"/>
      <point x="864" y="542" type="line"/>
      <point x="864" y="232.667"/>
      <point x="785.667" y="113"/>
      <point x="607" y="113" type="curve" smooth="yes"/>
      <point x="403" y="113"/>
      <point x="318" y="244"/>
      <point x="318" y="528" type="curve" smooth="yes"/>
      <point x="318" y="732"/>
      <point x="360.833" y="857"/>
      <point x="441.5" y="917" type="curve" smooth="yes"/>
      <point x="481.833" y="947"/>
      <point x="537.667" y="962"/>
      <point x="609" y="962" type="curve" smooth="yes"/>
      <point x="786.333" y="962"/>
      <point x="864" y="843.333"/>
    </contour>
  </outline>
</glyph>
<glyph name="Hbar" format="2">
  <advance width="1479"/>
  <unicode hex="0126"/>
  <note>
Hbar
</note>
  <anchor x="740" y="1540" name="top"/>
  <anchor x="1300" y="1540" name="caronalt"/>
  <anchor x="730" y="-130" name="bottom"/>
  <anchor x="1479" y="1540" name="topdouble"/>
  <anchor x="1479" y="-380" name="bottomdouble"/>
  <anchor x="1479" y="1840" name="tophalfright"/>
  <anchor x="0" y="1840" name="tophalfleft"/>
  <anchor x="1150" y="0" name="ogonek"/>
  <outline>
    <contour>
      <point x="359" y="653" type="line"/>
      <point x="1126" y="653" type="line"/>
      <point x="1126" y="0" type="line"/>
      <point x="1312" y="0" type="line"/>
      <point x="1312" y="1025" type="line"/>
      <point x="1465" y="1025" type="line"/>
      <point x="1465" y="1179" type="line"/>
      <point x="1312" y="1179" type="line"/>
      <point x="1312" y="1409" type="line"/>
      <point x="1126" y="1409" type="line"/>
      <point x="1126" y="1179" type="line"/>
      <point x="359" y="1179" type="line"/>
      <point x="359" y="1409" type="line"/>
      <point x="168" y="1409" type="line"/>
      <point x="168" y="1179" type="line"/>
      <point x="14" y="1179" type="line"/>
      <point x="14" y="1025" type="line"/>
      <point x="168" y="1025" type="line"/>
      <point x="168" y="0" type="line"/>
      <point x="359" y="0" type="line"/>
    </contour>
    <contour>
      <point x="359" y="813" type="line"/>
      <point x="359" y="1025" type="line"/>
      <point x="1126" y="1025" type="line"/>
      <point x="1126" y="813" type="line"/>
    </contour>
  </outline>
</glyph>
<glyph name="hbar" format="2">
  <advance width="1139"/>
  <unicode hex="0127"/>
  <note>
hbar
</note>
  <anchor x="580" y="1580" name="gpos_18_mark_to_base__MARKCLASS_0_lookup_18"/>
  <anchor x="940" y="1540" name="gpos_18_mark_to_base__MARKCLASS_1_lookup_18"/>
  <anchor x="540" y="-130" name="gpos_18_mark_to_base__MARKCLASS_2_lookup_18"/>
  <anchor x="1139" y="1540" name="gpos_22_mark_to_base__MARKCLASS_0_lookup_22"/>
  <anchor x="1139" y="-380" name="gpos_22_mark_to_base__MARKCLASS_1_lookup_22"/>
  <anchor x="1139" y="1840" name="gpos_23_mark_to_base__MARKCLASS_0_lookup_23"/>
  <anchor x="0" y="1840" name="gpos_23_mark_to_base__MARKCLASS_1_lookup_23"/>
  <anchor x="850" y="0" name="gpos_24_mark_to_base__MARKCLASS_0_lookup_24"/>
  <outline>
    <contour>
      <point x="317" y="857" type="curve"/>
      <point x="314" y="857" type="line"/>
      <point x="315" y="870"/>
      <point x="322" y="977"/>
      <point x="322" y="1058" type="curve" smooth="yes"/>
      <point x="322" y="1206" type="line"/>
      <point x="622" y="1206" type="line"/>
      <point x="622" y="1337" type="line"/>
      <point x="322" y="1337" type="line"/>
      <point x="322" y="1484" type="line"/>
      <point x="142" y="1484" type="line"/>
      <point x="142" y="1337" type="line"/>
      <point x="10" y="1337" type="line"/>
      <point x="10" y="1206" type="line"/>
      <point x="142" y="1206" type="line"/>
      <point x="142" y="0" type="line"/>
      <point x="322" y="0" type="line"/>
      <point x="322" y="598" type="line" smooth="yes"/>
      <point x="322" y="797"/>
      <point x="433" y="923"/>
      <point x="602" y="923" type="curve" smooth="yes"/>
      <point x="772" y="923"/>
      <point x="825" y="839"/>
      <point x="825" y="646" type="curve" smooth="yes"/>
      <point x="825" y="0" type="line"/>
      <point x="1006" y="0" type="line"/>
      <point x="1006" y="681" type="line" smooth="yes"/>
      <point x="1006" y="938"/>
      <point x="898" y="1062"/>
      <point x="663" y="1062" type="curve" smooth="yes"/>
      <point x="496" y="1062"/>
      <point x="394" y="998"/>
    </contour>
  </outline>
</glyph>
<glyph name="dotlessi" format="2">
  <advance width="569"/>
  <unicode hex="0131"/>
  <note>
dotlessi
</note>
  <outline>
    <contour>
      <point x="194" y="0" type="line"/>
      <point x="374" y="0" type="line"/>
      <point x="374" y="1082" type="line"/>
      <point x="194" y="1082" type="line"/>
    </contour>
  </outline>
</glyph>
<glyph name="jcircumflex" format="2">
  <advance width="455"/>
  <unicode hex="0135"/>
  <note>
jcircumflex
</note>
  <anchor x="240" y="1580" name="gpos_18_mark_to_base__MARKCLASS_0_lookup_18"/>
  <anchor x="600" y="1260" name="gpos_18_mark_to_base__MARKCLASS_1_lookup_18"/>
  <anchor x="140" y="-540" name="gpos_18_mark_to_base__MARKCLASS_2_lookup_18"/>
  <anchor x="455" y="1540" name="gpos_22_mark_to_base__MARKCLASS_0_lookup_22"/>
  <anchor x="455" y="-380" name="gpos_22_mark_to_base__MARKCLASS_1_lookup_22"/>
  <anchor x="455" y="1840" name="gpos_23_mark_to_base__MARKCLASS_0_lookup_23"/>
  <anchor x="0" y="1840" name="gpos_23_mark_to_base__MARKCLASS_1_lookup_23"/>
  <anchor x="100" y="-400" name="gpos_24_mark_to_base__MARKCLASS_0_lookup_24"/>
  <outline>
    <contour>
      <point x="233" y="1370" type="line"/>
      <point x="235" y="1370" type="line"/>
      <point x="454" y="1201" type="line"/>
      <point x="559" y="1201" type="line"/>
      <point x="559" y="1221" type="line"/>
      <point x="335" y="1491" type="line"/>
      <point x="131" y="1491" type="line"/>
      <point x="-103" y="1221" type="line"/>
      <point x="-103" y="1201" type="line"/>
      <point x="1" y="1201" type="line"/>
    </contour>
    <contour>
      <point x="77" y="-425" type="curve" smooth="yes"/>
      <point x="237" y="-425"/>
      <point x="317" y="-338"/>
      <point x="317" y="-134" type="curve" smooth="yes"/>
      <point x="317" y="1082" type="line"/>
      <point x="137" y="1082" type="line"/>
      <point x="137" y="-107" type="line" smooth="yes"/>
      <point x="137" y="-246"/>
      <point x="104" y="-283"/>
      <point x="12" y="-283" type="curve"/>
      <point x="-50" y="-277" type="line"/>
      <point x="-50" y="-416" type="line"/>
      <point x="-17" y="-422"/>
      <point x="26" y="-425"/>
    </contour>
  </outline>
</glyph>
<glyph name="kgreenlandic" format="2">
  <advance width="1024"/>
  <unicode hex="0138"/>
  <note>
kgreenlandic
</note>
  <anchor x="560" y="1200" name="top"/>
  <anchor x="960" y="1260" name="caronalt"/>
  <anchor x="540" y="-130" name="bottom"/>
  <anchor x="1024" y="1540" name="topdouble"/>
  <anchor x="1024" y="-380" name="bottomdouble"/>
  <anchor x="1024" y="1840" name="tophalfright"/>
  <anchor x="0" y="1840" name="tophalfleft"/>
  <anchor x="830" y="0" name="ogonek"/>
  <outline>
    <contour>
      <point x="318" y="386" type="line"/>
      <point x="450" y="494" type="line"/>
      <point x="816" y="0" type="line"/>
      <point x="1027" y="0" type="line"/>
      <point x="565" y="617" type="line"/>
      <point x="1004" y="1082" type="line"/>
      <point x="793" y="1082" type="line"/>
      <point x="318" y="557" type="line"/>
      <point x="318" y="1082" type="line"/>
      <point x="138" y="1082" type="line"/>
      <point x="138" y="0" type="line"/>
      <point x="318" y="0" type="line"/>
    </contour>
  </outline>
</glyph>
<glyph name="Lslash" format="2">
  <advance width="1139"/>
  <unicode hex="0141"/>
  <note>
Lslash
</note>
  <anchor x="600" y="1540" name="top"/>
  <anchor x="900" y="1540" name="caronalt"/>
  <anchor x="580" y="-130" name="bottom"/>
  <anchor x="1139" y="1540" name="topdouble"/>
  <anchor x="1139" y="-380" name="bottomdouble"/>
  <anchor x="1139" y="1840" name="tophalfright"/>
  <anchor x="0" y="1840" name="tophalfleft"/>
  <anchor x="940" y="0" name="ogonek"/>
  <outline>
    <contour>
      <point x="168" y="0" type="line"/>
      <point x="1071" y="0" type="line"/>
      <point x="1071" y="156" type="line"/>
      <point x="359" y="156" type="line"/>
      <point x="359" y="648" type="line"/>
      <point x="616" y="797" type="line"/>
      <point x="616" y="954" type="line"/>
      <point x="359" y="806" type="line"/>
      <point x="359" y="1409" type="line"/>
      <point x="168" y="1409" type="line"/>
      <point x="168" y="696" type="line"/>
      <point x="20" y="611" type="line"/>
      <point x="20" y="453" type="line"/>
      <point x="168" y="538" type="line"/>
    </contour>
  </outline>
</glyph>
<glyph name="lslash" format="2">
  <advance width="455"/>
  <unicode hex="0142"/>
  <note>
lslash
</note>
  <anchor x="230" y="1580" name="gpos_18_mark_to_base__MARKCLASS_0_lookup_18"/>
  <anchor x="380" y="1540" name="gpos_18_mark_to_base__MARKCLASS_1_lookup_18"/>
  <anchor x="240" y="-130" name="gpos_18_mark_to_base__MARKCLASS_2_lookup_18"/>
  <anchor x="455" y="1540" name="gpos_22_mark_to_base__MARKCLASS_0_lookup_22"/>
  <anchor x="455" y="-380" name="gpos_22_mark_to_base__MARKCLASS_1_lookup_22"/>
  <anchor x="455" y="1840" name="gpos_23_mark_to_base__MARKCLASS_0_lookup_23"/>
  <anchor x="0" y="1840" name="gpos_23_mark_to_base__MARKCLASS_1_lookup_23"/>
  <anchor x="160" y="0" name="gpos_24_mark_to_base__MARKCLASS_0_lookup_24"/>
  <outline>
    <contour>
      <point x="138" y="0" type="line"/>
      <point x="318" y="0" type="line"/>
      <point x="318" y="646" type="line"/>
      <point x="442" y="717" type="line"/>
      <point x="442" y="876" type="line"/>
      <point x="318" y="804" type="line"/>
      <point x="318" y="1484" type="line"/>
      <point x="138" y="1484" type="line"/>
      <point x="138" y="700" type="line"/>
      <point x="16" y="632" type="line"/>
      <point x="16" y="474" type="line"/>
      <point x="138" y="542" type="line"/>
    </contour>
  </outline>
</glyph>
<glyph name="Eng" format="2">
  <advance width="1481"/>
  <unicode hex="014A"/>
  <note>
Eng
</note>
  <outline>
    <contour>
      <point x="941" y="-20" type="curve"/>
      <point x="941" y="-20" type="line"/>
      <point x="1133" y="-20"/>
      <point x="1242.167" y="55.167"/>
      <point x="1293.5" y="206.5" type="curve" smooth="yes"/>
      <point x="1319.167" y="282.167"/>
      <point x="1332" y="394"/>
      <point x="1332" y="542" type="curve" smooth="yes"/>
      <point x="1332" y="889" type="line" smooth="yes"/>
      <point x="1332" y="1265"/>
      <point x="1194" y="1429"/>
      <point x="866" y="1429" type="curve" smooth="yes"/>
      <point x="648.667" y="1429"/>
      <point x="456" y="1330"/>
      <point x="360" y="1158" type="curve"/>
      <point x="356" y="1158" type="line"/>
      <point x="356" y="1222.667"/>
      <point x="353.667" y="1306.333"/>
      <point x="349" y="1409" type="curve"/>
      <point x="165" y="1409" type="line"/>
      <point x="169" y="1092" type="line"/>
      <point x="169" y="0" type="line"/>
      <point x="360" y="0" type="line"/>
      <point x="360" y="891" type="line" smooth="yes"/>
      <point x="360" y="1025.667"/>
      <point x="446.333" y="1152.667"/>
      <point x="585" y="1222" type="curve" smooth="yes"/>
      <point x="654.333" y="1256.667"/>
      <point x="728.667" y="1274"/>
      <point x="808" y="1274" type="curve" smooth="yes"/>
      <point x="1044" y="1274"/>
      <point x="1142" y="1152"/>
      <point x="1142" y="868" type="curve" smooth="yes"/>
      <point x="1142" y="546" type="line" smooth="yes"/>
      <point x="1142" y="431.333"/>
      <point x="1135.667" y="347"/>
      <point x="1123" y="293" type="curve" smooth="yes"/>
      <point x="1097.667" y="185"/>
      <point x="1043.333" y="133"/>
      <point x="946" y="133" type="curve" smooth="yes"/>
      <point x="875.333" y="133"/>
      <point x="810" y="169.667"/>
      <point x="750" y="243" type="curve"/>
      <point x="623" y="128" type="line"/>
      <point x="701.667" y="29.333"/>
      <point x="814.333" y="-20"/>
    </contour>
  </outline>
</glyph>
<glyph name="eng" format="2">
  <advance width="1139"/>
  <unicode hex="014B"/>
  <note>
eng
</note>
  <outline>
    <contour>
      <point x="769" y="-425" type="curve" smooth="yes"/>
      <point x="930.0" y="-425.0"/>
      <point x="1010" y="-335.333"/>
      <point x="1010" y="-134" type="curve" smooth="yes"/>
      <point x="1010" y="721" type="line" smooth="yes"/>
      <point x="1010" y="993"/>
      <point x="904.333" y="1102"/>
      <point x="667" y="1102" type="curve" smooth="yes"/>
      <point x="505.667" y="1102"/>
      <point x="403.667" y="1046.333"/>
      <point x="321" y="897" type="curve"/>
      <point x="318" y="897" type="line"/>
      <point x="314.76199999999994" y="1024.912"/>
      <point x="311.33399999999995" y="1075.3339999999998"/>
      <point x="310" y="1082" type="curve"/>
      <point x="140" y="1082" type="line"/>
      <point x="144" y="1054"/>
      <point x="146" y="977"/>
      <point x="146" y="851" type="curve" smooth="yes"/>
      <point x="146" y="0" type="line"/>
      <point x="326" y="0" type="line"/>
      <point x="326" y="627" type="line" smooth="yes"/>
      <point x="326" y="837.667"/>
      <point x="432.667" y="963"/>
      <point x="606" y="963" type="curve" smooth="yes"/>
      <point x="783.33373871797" y="963.0"/>
      <point x="829.0" y="880"/>
      <point x="829" y="686" type="curve" smooth="yes"/>
      <point x="829" y="-107" type="line" smooth="yes"/>
      <point x="829" y="-245.667"/>
      <point x="796" y="-283"/>
      <point x="704" y="-283" type="curve"/>
      <point x="642" y="-277" type="line"/>
      <point x="642" y="-416" type="line"/>
      <point x="675.333" y="-422"/>
      <point x="718" y="-425"/>
    </contour>
  </outline>
</glyph>
<glyph name="OE" format="2">
  <advance width="2048"/>
  <unicode hex="0152"/>
  <note>
OE
</note>
  <anchor x="1100" y="1540" name="gpos_18_mark_to_base__MARKCLASS_0_lookup_18"/>
  <anchor x="1860" y="1540" name="gpos_18_mark_to_base__MARKCLASS_1_lookup_18"/>
  <anchor x="1020" y="-130" name="gpos_18_mark_to_base__MARKCLASS_2_lookup_18"/>
  <anchor x="2048" y="1540" name="gpos_22_mark_to_base__MARKCLASS_0_lookup_22"/>
  <anchor x="2048" y="-380" name="gpos_22_mark_to_base__MARKCLASS_1_lookup_22"/>
  <anchor x="2048" y="1840" name="gpos_23_mark_to_base__MARKCLASS_0_lookup_23"/>
  <anchor x="0" y="1840" name="gpos_23_mark_to_base__MARKCLASS_1_lookup_23"/>
  <anchor x="1800" y="0" name="gpos_24_mark_to_base__MARKCLASS_0_lookup_24"/>
  <outline>
    <contour>
      <point x="999" y="0" type="curve"/>
      <point x="1958" y="0" type="line"/>
      <point x="1958" y="156" type="line"/>
      <point x="1114" y="156" type="line"/>
      <point x="1114" y="647" type="line"/>
      <point x="1857" y="647" type="line"/>
      <point x="1857" y="801" type="line"/>
      <point x="1114" y="801" type="line"/>
      <point x="1114" y="1253" type="line"/>
      <point x="1917" y="1253" type="line"/>
      <point x="1917" y="1409" type="line"/>
      <point x="1003" y="1409" type="line"/>
      <point x="933" y="1416"/>
      <point x="862" y="1420"/>
      <point x="791" y="1420" type="curve" smooth="yes"/>
      <point x="356" y="1420"/>
      <point x="97" y="1154"/>
      <point x="97" y="711" type="curve" smooth="yes"/>
      <point x="97" y="264"/>
      <point x="358" y="-10"/>
      <point x="789" y="-10" type="curve" smooth="yes"/>
      <point x="884" y="-10"/>
      <point x="954" y="-7"/>
    </contour>
    <contour>
      <point x="923" y="1260" type="curve"/>
      <point x="923" y="149" type="line"/>
      <point x="888" y="146"/>
      <point x="844" y="145"/>
      <point x="789" y="145" type="curve" smooth="yes"/>
      <point x="476" y="145"/>
      <point x="291" y="354"/>
      <point x="291" y="711" type="curve" smooth="yes"/>
      <point x="291" y="1067"/>
      <point x="464" y="1264"/>
      <point x="791" y="1264" type="curve" smooth="yes"/>
      <point x="811" y="1264"/>
      <point x="863" y="1265"/>
    </contour>
  </outline>
</glyph>
<glyph name="Tbar" format="2">
  <advance width="1251"/>
  <unicode hex="0166"/>
  <note>
Tbar
</note>
  <anchor x="600" y="1540" name="gpos_18_mark_to_base__MARKCLASS_0_lookup_18"/>
  <anchor x="1200" y="1540" name="gpos_18_mark_to_base__MARKCLASS_1_lookup_18"/>
  <anchor x="620" y="-130" name="gpos_18_mark_to_base__MARKCLASS_2_lookup_18"/>
  <anchor x="1251" y="1540" name="gpos_22_mark_to_base__MARKCLASS_0_lookup_22"/>
  <anchor x="1251" y="-380" name="gpos_22_mark_to_base__MARKCLASS_1_lookup_22"/>
  <anchor x="1251" y="1840" name="gpos_23_mark_to_base__MARKCLASS_0_lookup_23"/>
  <anchor x="0" y="1840" name="gpos_23_mark_to_base__MARKCLASS_1_lookup_23"/>
  <anchor x="550" y="0" name="gpos_24_mark_to_base__MARKCLASS_0_lookup_24"/>
  <outline>
    <contour>
      <point x="720" y="647" type="line"/>
      <point x="1001" y="647" type="line"/>
      <point x="1001" y="801" type="line"/>
      <point x="720" y="801" type="line"/>
      <point x="720" y="1253" type="line"/>
      <point x="1204" y="1253" type="line"/>
      <point x="1204" y="1409" type="line"/>
      <point x="46" y="1409" type="line"/>
      <point x="46" y="1253" type="line"/>
      <point x="530" y="1253" type="line"/>
      <point x="530" y="801" type="line"/>
      <point x="251" y="801" type="line"/>
      <point x="251" y="647" type="line"/>
      <point x="530" y="647" type="line"/>
      <point x="530" y="0" type="line"/>
      <point x="720" y="0" type="line"/>
    </contour>
  </outline>
</glyph>
<glyph name="tbar" format="2">
  <advance width="569"/>
  <unicode hex="0167"/>
  <note>
tbar
</note>
  <anchor x="280" y="1480" name="gpos_18_mark_to_base__MARKCLASS_0_lookup_18"/>
  <anchor x="460" y="1480" name="gpos_18_mark_to_base__MARKCLASS_1_lookup_18"/>
  <anchor x="380" y="-130" name="gpos_18_mark_to_base__MARKCLASS_2_lookup_18"/>
  <anchor x="569" y="1540" name="gpos_22_mark_to_base__MARKCLASS_0_lookup_22"/>
  <anchor x="569" y="-380" name="gpos_22_mark_to_base__MARKCLASS_1_lookup_22"/>
  <anchor x="569" y="1840" name="gpos_23_mark_to_base__MARKCLASS_0_lookup_23"/>
  <anchor x="0" y="1840" name="gpos_23_mark_to_base__MARKCLASS_1_lookup_23"/>
  <anchor x="380" y="0" name="gpos_24_mark_to_base__MARKCLASS_0_lookup_24"/>
  <outline>
    <contour>
      <point x="372" y="-16" type="curve" smooth="yes"/>
      <point x="434" y="-16"/>
      <point x="495" y="-8"/>
      <point x="554" y="8" type="curve"/>
      <point x="554" y="141" type="line"/>
      <point x="509" y="132"/>
      <point x="474" y="127"/>
      <point x="450" y="127" type="curve" smooth="yes"/>
      <point x="366" y="127"/>
      <point x="336" y="164"/>
      <point x="336" y="268" type="curve" smooth="yes"/>
      <point x="336" y="516" type="line"/>
      <point x="536" y="516" type="line"/>
      <point x="536" y="647" type="line"/>
      <point x="336" y="647" type="line"/>
      <point x="336" y="951" type="line"/>
      <point x="536" y="951" type="line"/>
      <point x="536" y="1082" type="line"/>
      <point x="336" y="1082" type="line"/>
      <point x="336" y="1324" type="line"/>
      <point x="216" y="1324" type="line"/>
      <point x="163" y="1082" type="line"/>
      <point x="31" y="1082" type="line"/>
      <point x="31" y="951" type="line"/>
      <point x="156" y="951" type="line"/>
      <point x="156" y="647" type="line"/>
      <point x="31" y="647" type="line"/>
      <point x="31" y="516" type="line"/>
      <point x="156" y="516" type="line"/>
      <point x="156" y="229" type="line" smooth="yes"/>
      <point x="156" y="66"/>
      <point x="228" y="-16"/>
    </contour>
  </outline>
</glyph>
<glyph name="longs" format="2">
  <advance width="455"/>
  <unicode hex="017F"/>
  <note>
longs
</note>
  <anchor x="340" y="1580" name="top"/>
  <anchor x="560" y="1540" name="caronalt"/>
  <anchor x="230" y="-130" name="bottom"/>
  <anchor x="455" y="1540" name="topdouble"/>
  <anchor x="455" y="-380" name="bottomdouble"/>
  <anchor x="455" y="1840" name="tophalfright"/>
  <anchor x="0" y="1840" name="tophalfleft"/>
  <anchor x="160" y="0" name="ogonek"/>
  <outline>
    <contour>
      <point x="318" y="1179" type="line" smooth="yes"/>
      <point x="318" y="1302"/>
      <point x="357" y="1341"/>
      <point x="449" y="1341" type="curve" smooth="yes"/>
      <point x="472" y="1341"/>
      <point x="499" y="1338"/>
      <point x="529" y="1333" type="curve"/>
      <point x="529" y="1470" type="line"/>
      <point x="494" y="1478"/>
      <point x="452" y="1482"/>
      <point x="402" y="1482" type="curve" smooth="yes"/>
      <point x="223" y="1482"/>
      <point x="138" y="1401"/>
      <point x="138" y="1204" type="curve" smooth="yes"/>
      <point x="138" y="0" type="line"/>
      <point x="318" y="0" type="line"/>
    </contour>
  </outline>
</glyph>
<glyph name="uni0181" format="2">
  <advance width="1553"/>
  <unicode hex="0181"/>
  <note>
uni0181
</note>
  <outline>
    <contour>
      <point x="1436" y="397" type="curve"/>
      <point x="1436" y="397" type="line"/>
      <point x="1436" y="585"/>
      <point x="1310" y="716.333"/>
      <point x="1086" y="743" type="curve"/>
      <point x="1256.667" y="781.667"/>
      <point x="1354" y="900.333"/>
      <point x="1354" y="1067" type="curve" smooth="yes"/>
      <point x="1354" y="1295"/>
      <point x="1188.667" y="1409"/>
      <point x="858" y="1409" type="curve" smooth="yes"/>
      <point x="346" y="1409" type="line" smooth="yes"/>
      <point x="140.667" y="1409"/>
      <point x="20" y="1308.333"/>
      <point x="20" y="1135" type="curve" smooth="yes"/>
      <point x="20" y="1094.333"/>
      <point x="25.667" y="1049.333"/>
      <point x="37" y="1000" type="curve"/>
      <point x="192" y="1017" type="line"/>
      <point x="180" y="1054.333"/>
      <point x="174" y="1089.333"/>
      <point x="174" y="1122" type="curve" smooth="yes"/>
      <point x="174" y="1216.667"/>
      <point x="214.333" y="1261"/>
      <point x="317" y="1261" type="curve" smooth="yes"/>
      <point x="346" y="1261" type="line"/>
      <point x="346" y="0" type="line"/>
      <point x="918" y="0" type="line" smooth="yes"/>
      <point x="1243.333" y="0"/>
      <point x="1436" y="146.333"/>
    </contour>
    <contour>
      <point x="1243" y="412" type="curve"/>
      <point x="1243" y="412" type="line"/>
      <point x="1243" y="240"/>
      <point x="1141.333" y="153"/>
      <point x="908" y="153" type="curve" smooth="yes"/>
      <point x="537" y="153" type="line"/>
      <point x="537" y="661" type="line"/>
      <point x="893" y="661" type="line" smooth="yes"/>
      <point x="1126.333" y="661"/>
      <point x="1243" y="578"/>
    </contour>
    <contour>
      <point x="1162" y="1044" type="curve"/>
      <point x="1162" y="1044" type="line"/>
      <point x="1162" y="885.333"/>
      <point x="1062" y="810"/>
      <point x="858" y="810" type="curve" smooth="yes"/>
      <point x="537" y="810" type="line"/>
      <point x="537" y="1256" type="line"/>
      <point x="858" y="1256" type="line" smooth="yes"/>
      <point x="1055.333" y="1256"/>
      <point x="1162" y="1196"/>
    </contour>
  </outline>
</glyph>
<glyph name="uni0182" format="2">
  <advance width="1344"/>
  <unicode hex="0182"/>
  <note>
uni0182
</note>
  <anchor x="640" y="1540" name="gpos_18_mark_to_base__MARKCLASS_0_lookup_18"/>
  <anchor x="1100" y="1540" name="gpos_18_mark_to_base__MARKCLASS_1_lookup_18"/>
  <anchor x="680" y="-130" name="gpos_18_mark_to_base__MARKCLASS_2_lookup_18"/>
  <anchor x="1344" y="1540" name="gpos_22_mark_to_base__MARKCLASS_0_lookup_22"/>
  <anchor x="1344" y="-380" name="gpos_22_mark_to_base__MARKCLASS_1_lookup_22"/>
  <anchor x="1344" y="1840" name="gpos_23_mark_to_base__MARKCLASS_0_lookup_23"/>
  <anchor x="0" y="1840" name="gpos_23_mark_to_base__MARKCLASS_1_lookup_23"/>
  <anchor x="760" y="0" name="gpos_24_mark_to_base__MARKCLASS_0_lookup_24"/>
  <outline>
    <contour>
      <point x="1263" y="413" type="curve" smooth="yes"/>
      <point x="1263" y="666"/>
      <point x="1081" y="813"/>
      <point x="766" y="813" type="curve" smooth="yes"/>
      <point x="359" y="813" type="line"/>
      <point x="359" y="1253" type="line"/>
      <point x="1119" y="1253" type="line"/>
      <point x="1119" y="1409" type="line"/>
      <point x="168" y="1409" type="line"/>
      <point x="168" y="0" type="line"/>
      <point x="778" y="0" type="line" smooth="yes"/>
      <point x="1081" y="0"/>
      <point x="1263" y="164"/>
    </contour>
    <contour>
      <point x="1071" y="411" type="curve" smooth="yes"/>
      <point x="1071" y="246"/>
      <point x="970" y="151"/>
      <point x="751" y="151" type="curve" smooth="yes"/>
      <point x="359" y="151" type="line"/>
      <point x="359" y="661" type="line"/>
      <point x="743" y="661" type="line" smooth="yes"/>
      <point x="962" y="661"/>
      <point x="1071" y="572"/>
    </contour>
  </outline>
</glyph>
<glyph name="uni0184" format="2">
  <advance width="1344"/>
  <unicode hex="0184"/>
  <note>
uni0184
</note>
  <outline>
    <contour>
      <point x="1263" y="418" type="curve" smooth="yes"/>
      <point x="1263.0" y="671.0"/>
      <point x="1082" y="823"/>
      <point x="766" y="823" type="curve" smooth="yes"/>
      <point x="359" y="823" type="line"/>
      <point x="359" y="1409" type="line"/>
      <point x="303" y="1409" type="line"/>
      <point x="10" y="1209" type="line"/>
      <point x="10" y="1176" type="line"/>
      <point x="168" y="1011" type="line"/>
      <point x="168" y="0" type="line"/>
      <point x="778" y="0" type="line" smooth="yes"/>
      <point x="976.667" y="0"/>
      <point x="1126.5" y="73.333"/>
      <point x="1204.5" y="200" type="curve" smooth="yes"/>
      <point x="1243.5" y="263.333"/>
      <point x="1263" y="336"/>
    </contour>
    <contour>
      <point x="1071" y="416" type="curve" smooth="yes"/>
      <point x="1071.0" y="251.0"/>
      <point x="969.667" y="151"/>
      <point x="751" y="151" type="curve" smooth="yes"/>
      <point x="359" y="151" type="line"/>
      <point x="359" y="671" type="line"/>
      <point x="743" y="671" type="line" smooth="yes"/>
      <point x="960.333" y="671"/>
      <point x="1071" y="576"/>
    </contour>
  </outline>
</glyph>
<glyph name="uni0185" format="2">
  <advance width="1139"/>
  <unicode hex="0185"/>
  <note>
uni0185
</note>
  <anchor x="680" y="1540" name="gpos_18_mark_to_base__MARKCLASS_0_lookup_18"/>
  <anchor x="980" y="1540" name="gpos_18_mark_to_base__MARKCLASS_1_lookup_18"/>
  <anchor x="620" y="-130" name="gpos_18_mark_to_base__MARKCLASS_2_lookup_18"/>
  <anchor x="1139" y="1540" name="gpos_22_mark_to_base__MARKCLASS_0_lookup_22"/>
  <anchor x="1139" y="-380" name="gpos_22_mark_to_base__MARKCLASS_1_lookup_22"/>
  <anchor x="1139" y="1840" name="gpos_23_mark_to_base__MARKCLASS_0_lookup_23"/>
  <anchor x="0" y="1840" name="gpos_23_mark_to_base__MARKCLASS_1_lookup_23"/>
  <anchor x="680" y="0" name="gpos_24_mark_to_base__MARKCLASS_0_lookup_24"/>
  <outline>
    <contour>
      <point x="1053" y="546" type="curve" smooth="yes"/>
      <point x="1053" y="919"/>
      <point x="928" y="1102"/>
      <point x="655" y="1102" type="curve" smooth="yes"/>
      <point x="492" y="1102"/>
      <point x="385" y="1047"/>
      <point x="318" y="908" type="curve"/>
      <point x="314" y="908" type="line"/>
      <point x="317" y="967"/>
      <point x="318" y="1018"/>
      <point x="318" y="1061" type="curve" smooth="yes"/>
      <point x="318" y="1484" type="line"/>
      <point x="267" y="1484" type="line"/>
      <point x="10" y="1299" type="line"/>
      <point x="10" y="1266" type="line"/>
      <point x="138" y="1086" type="line"/>
      <point x="138" y="223" type="line" smooth="yes"/>
      <point x="138" y="110"/>
      <point x="136" y="36"/>
      <point x="132" y="0" type="curve"/>
      <point x="306" y="0" type="line"/>
      <point x="309" y="13"/>
      <point x="316" y="127"/>
      <point x="316" y="168" type="curve"/>
      <point x="318" y="168" type="line"/>
      <point x="386" y="36"/>
      <point x="491" y="-20"/>
      <point x="655" y="-20" type="curve" smooth="yes"/>
      <point x="920" y="-20"/>
      <point x="1053" y="169"/>
    </contour>
    <contour>
      <point x="864" y="540" type="curve" smooth="yes"/>
      <point x="864" y="239"/>
      <point x="788" y="113"/>
      <point x="607" y="113" type="curve" smooth="yes"/>
      <point x="403" y="113"/>
      <point x="318" y="245"/>
      <point x="318" y="529" type="curve" smooth="yes"/>
      <point x="318" y="830"/>
      <point x="406" y="963"/>
      <point x="609" y="963" type="curve" smooth="yes"/>
      <point x="789" y="963"/>
      <point x="864" y="843"/>
    </contour>
  </outline>
</glyph>
<glyph name="uni0186" format="2">
  <advance width="1479"/>
  <unicode hex="0186"/>
  <note>
uni0186
</note>
  <outline>
    <contour>
      <point x="697" y="136" type="qcurve" smooth="yes"/>
      <point x="546" y="136"/>
      <point x="330" y="269"/>
      <point x="285" y="389" type="qcurve"/>
      <point x="104" y="329" type="line"/>
      <point x="247" y="-20"/>
      <point x="699" y="-20" type="qcurve" smooth="yes"/>
      <point x="1020" y="-20"/>
      <point x="1382" y="361"/>
      <point x="1382" y="699" type="qcurve" smooth="yes"/>
      <point x="1382" y="1038"/>
      <point x="1020" y="1430"/>
      <point x="698" y="1430" type="qcurve" smooth="yes"/>
      <point x="490" y="1430"/>
      <point x="179" y="1240"/>
      <point x="91" y="1058" type="qcurve"/>
      <point x="247" y="980" type="line"/>
      <point x="398" y="1273"/>
      <point x="689" y="1273" type="qcurve" smooth="yes"/>
      <point x="919" y="1273"/>
      <point x="1188" y="959"/>
      <point x="1188" y="699" type="qcurve" smooth="yes"/>
      <point x="1188" y="434"/>
      <point x="930" y="136"/>
    </contour>
  </outline>
</glyph>
<glyph name="uni0188" format="2">
  <advance width="1024"/>
  <unicode hex="0188"/>
  <note>
uni0188
</note>
  <outline>
    <contour>
      <point x="275" y="546" type="qcurve" smooth="yes"/>
      <point x="275" y="771"/>
      <point x="403" y="961"/>
      <point x="546" y="961" type="qcurve" smooth="yes"/>
      <point x="651" y="961"/>
      <point x="765" y="855"/>
      <point x="779" y="765" type="qcurve"/>
      <point x="964" y="779" type="line"/>
      <point x="964" y="989" type="line" smooth="yes"/>
      <point x="964" y="1066"/>
      <point x="1019" y="1137"/>
      <point x="1085" y="1137" type="qcurve" smooth="yes"/>
      <point x="1128" y="1137"/>
      <point x="1164" y="1121" type="qcurve"/>
      <point x="1164" y="1271" type="line"/>
      <point x="1112" y="1283"/>
      <point x="1065" y="1283" type="qcurve" smooth="yes"/>
      <point x="947" y="1283"/>
      <point x="816" y="1151"/>
      <point x="807" y="1030" type="qcurve"/>
      <point x="701" y="1102"/>
      <point x="551" y="1102" type="qcurve" smooth="yes"/>
      <point x="327" y="1102"/>
      <point x="87" y="815"/>
      <point x="87" y="542" type="qcurve" smooth="yes"/>
      <point x="87" y="267"/>
      <point x="326" y="-20"/>
      <point x="553" y="-20" type="qcurve" smooth="yes"/>
      <point x="725" y="-20"/>
      <point x="949" y="166"/>
      <point x="970" y="322" type="qcurve"/>
      <point x="788" y="334" type="line"/>
      <point x="773" y="226"/>
      <point x="644" y="122"/>
      <point x="548" y="122" type="qcurve" smooth="yes"/>
      <point x="411" y="122"/>
      <point x="275" y="330"/>
    </contour>
  </outline>
</glyph>
<glyph name="uni018A" format="2">
  <advance width="1658"/>
  <unicode hex="018A"/>
  <note>
uni018A
</note>
  <anchor x="800" y="1540" name="top"/>
  <anchor x="1420" y="1540" name="caronalt"/>
  <anchor x="860" y="-130" name="bottom"/>
  <anchor x="1658" y="1540" name="topdouble"/>
  <anchor x="1658" y="-380" name="bottomdouble"/>
  <anchor x="1658" y="1840" name="tophalfright"/>
  <anchor x="0" y="1840" name="tophalfleft"/>
  <anchor x="870" y="0" name="ogonek"/>
  <outline>
    <contour>
      <point x="1559" y="719" type="curve" smooth="yes"/>
      <point x="1559" y="1160"/>
      <point x="1289" y="1409"/>
      <point x="812" y="1409" type="curve" smooth="yes"/>
      <point x="346" y="1409" type="line" smooth="yes"/>
      <point x="141" y="1409"/>
      <point x="20" y="1308"/>
      <point x="20" y="1135" type="curve" smooth="yes"/>
      <point x="20" y="1094"/>
      <point x="26" y="1049"/>
      <point x="37" y="1000" type="curve"/>
      <point x="192" y="1017" type="line"/>
      <point x="180" y="1054"/>
      <point x="174" y="1089"/>
      <point x="174" y="1122" type="curve" smooth="yes"/>
      <point x="174" y="1217"/>
      <point x="214" y="1261"/>
      <point x="317" y="1261" type="curve" smooth="yes"/>
      <point x="346" y="1261" type="line"/>
      <point x="346" y="0" type="line"/>
      <point x="873" y="0" type="line" smooth="yes"/>
      <point x="1145" y="0"/>
      <point x="1361" y="120"/>
      <point x="1474" y="338" type="curve" smooth="yes"/>
      <point x="1531" y="447"/>
      <point x="1559" y="574"/>
    </contour>
    <contour>
      <point x="1367" y="719" type="curve" smooth="yes"/>
      <point x="1367" y="370"/>
      <point x="1160" y="153"/>
      <point x="851" y="153" type="curve" smooth="yes"/>
      <point x="537" y="153" type="line"/>
      <point x="537" y="1256" type="line"/>
      <point x="808" y="1256" type="line" smooth="yes"/>
      <point x="1171" y="1256"/>
      <point x="1367" y="1068"/>
    </contour>
  </outline>
</glyph>
<glyph name="uni018B" format="2">
  <advance width="1344"/>
  <unicode hex="018B"/>
  <note>
uni018B
</note>
  <outline>
    <contour>
      <point x="81" y="413" type="curve"/>
      <point x="81" y="413" type="line"/>
      <point x="81" y="163.667"/>
      <point x="264.667" y="0"/>
      <point x="566" y="0" type="curve" smooth="yes"/>
      <point x="1176" y="0" type="line"/>
      <point x="1176" y="1409" type="line"/>
      <point x="225" y="1409" type="line"/>
      <point x="225" y="1253" type="line"/>
      <point x="985" y="1253" type="line"/>
      <point x="985" y="813" type="line"/>
      <point x="578" y="813" type="line" smooth="yes"/>
      <point x="263.333" y="813"/>
      <point x="81" y="666.333"/>
    </contour>
    <contour>
      <point x="273" y="411" type="curve"/>
      <point x="273" y="411" type="line"/>
      <point x="273" y="572.333"/>
      <point x="382.333" y="661"/>
      <point x="601" y="661" type="curve" smooth="yes"/>
      <point x="985" y="661" type="line"/>
      <point x="985" y="151" type="line"/>
      <point x="593" y="151" type="line" smooth="yes"/>
      <point x="374.333" y="151"/>
      <point x="273" y="245.667"/>
    </contour>
  </outline>
</glyph>
<glyph name="uni018C" format="2">
  <advance width="1139"/>
  <unicode hex="018C"/>
  <note>
uni018C
</note>
  <outline>
    <contour>
      <point x="82" y="546" type="curve"/>
      <point x="82" y="546" type="line"/>
      <point x="82" y="168.667"/>
      <point x="214.667" y="-20"/>
      <point x="480" y="-20" type="curve" smooth="yes"/>
      <point x="644" y="-20"/>
      <point x="749" y="36"/>
      <point x="817" y="168" type="curve"/>
      <point x="819" y="168" type="line"/>
      <point x="819" y="126.667"/>
      <point x="826.333" y="12"/>
      <point x="829" y="0" type="curve"/>
      <point x="1003" y="0" type="line"/>
      <point x="999" y="36"/>
      <point x="997" y="110.333"/>
      <point x="997" y="223" type="curve" smooth="yes"/>
      <point x="997" y="1484" type="line"/>
      <point x="253" y="1484" type="line"/>
      <point x="253" y="1325" type="line"/>
      <point x="817" y="1325" type="line"/>
      <point x="817" y="1061" type="line" smooth="yes"/>
      <point x="817" y="1017.667"/>
      <point x="818.333" y="966.667"/>
      <point x="821" y="908" type="curve"/>
      <point x="817" y="908" type="line"/>
      <point x="750.333" y="1046.667"/>
      <point x="642.667" y="1102"/>
      <point x="480" y="1102" type="curve" smooth="yes"/>
      <point x="206.667" y="1102"/>
      <point x="82" y="919.333"/>
    </contour>
    <contour>
      <point x="271" y="540" type="curve"/>
      <point x="271" y="540" type="line"/>
      <point x="271" y="841.333"/>
      <point x="346" y="963"/>
      <point x="526" y="963" type="curve" smooth="yes"/>
      <point x="730" y="963"/>
      <point x="817" y="827.667"/>
      <point x="817" y="529" type="curve" smooth="yes"/>
      <point x="817" y="243.667"/>
      <point x="729.333" y="113"/>
      <point x="528" y="113" type="curve" smooth="yes"/>
      <point x="346.667" y="113"/>
      <point x="271" y="240"/>
    </contour>
  </outline>
</glyph>
<glyph name="uni018D" format="2">
  <advance width="1140"/>
  <unicode hex="018D"/>
  <note>
uni018D
</note>
  <outline>
    <contour>
      <point x="1053" y="557" type="curve" smooth="yes"/>
      <point x="1053" y="934"/>
      <point x="905.667" y="1102"/>
      <point x="571" y="1102" type="curve" smooth="yes"/>
      <point x="248.333" y="1102"/>
      <point x="86" y="929"/>
      <point x="86" y="557" type="curve" smooth="yes"/>
      <point x="86" y="333"/>
      <point x="140" y="187"/>
      <point x="281" y="71" type="curve" smooth="yes"/>
      <point x="708" y="-280" type="line"/>
      <point x="189" y="-280" type="line"/>
      <point x="189" y="-280" type="line"/>
      <point x="189" y="-425" type="line"/>
      <point x="965" y="-425" type="line"/>
      <point x="965" y="-293" type="line"/>
      <point x="609" y="5" type="line"/>
      <point x="905" y="21.667"/>
      <point x="1053" y="206"/>
    </contour>
    <contour>
      <point x="864" y="557" type="curve" smooth="yes"/>
      <point x="864" y="280"/>
      <point x="786.1156975192794" y="137.0"/>
      <point x="563" y="137" type="curve" smooth="yes"/>
      <point x="361.667" y="137"/>
      <point x="275" y="274.333"/>
      <point x="275" y="557" type="curve" smooth="yes"/>
      <point x="275" y="845"/>
      <point x="359.333" y="969"/>
      <point x="574" y="969" type="curve" smooth="yes"/>
      <point x="787.333" y="969"/>
      <point x="864" y="850"/>
    </contour>
  </outline>
</glyph>
<glyph name="uni018E" format="2">
  <advance width="1366"/>
  <unicode hex="018E"/>
  <note>
uni018E
</note>
  <anchor x="700" y="1540" name="gpos_18_mark_to_base__MARKCLASS_0_lookup_18"/>
  <anchor x="1160" y="1540" name="gpos_18_mark_to_base__MARKCLASS_1_lookup_18"/>
  <anchor x="640" y="-130" name="gpos_18_mark_to_base__MARKCLASS_2_lookup_18"/>
  <anchor x="1366" y="1540" name="gpos_22_mark_to_base__MARKCLASS_0_lookup_22"/>
  <anchor x="1366" y="-380" name="gpos_22_mark_to_base__MARKCLASS_1_lookup_22"/>
  <anchor x="1366" y="1840" name="gpos_23_mark_to_base__MARKCLASS_0_lookup_23"/>
  <anchor x="0" y="1840" name="gpos_23_mark_to_base__MARKCLASS_1_lookup_23"/>
  <anchor x="1000" y="0" name="gpos_24_mark_to_base__MARKCLASS_0_lookup_24"/>
  <outline>
    <contour>
      <point x="1199" y="1409" type="line"/>
      <point x="130" y="1409" type="line"/>
      <point x="130" y="1253" type="line"/>
      <point x="1008" y="1253" type="line"/>
      <point x="1008" y="801" type="line"/>
      <point x="190" y="801" type="line"/>
      <point x="190" y="647" type="line"/>
      <point x="1008" y="647" type="line"/>
      <point x="1008" y="156" type="line"/>
      <point x="89" y="156" type="line"/>
      <point x="89" y="0" type="line"/>
      <point x="1199" y="0" type="line"/>
    </contour>
  </outline>
</glyph>
